<?xml version="1.0" encoding="UTF-8"?>
<svg id="Layer_2" data-name="Layer 2" xmlns="http://www.w3.org/2000/svg" xmlns:xlink="http://www.w3.org/1999/xlink" viewBox="0 0 1448.29 594.88">
  <defs>
    <style>
      .cls-1 {
        clip-path: url(#clippath-21);
      }

      .cls-2 {
        clip-path: url(#clippath-6);
      }

      .cls-3 {
        clip-path: url(#clippath-7);
      }

      .cls-4 {
        clip-path: url(#clippath-17);
      }

      .cls-5 {
        clip-path: url(#clippath-15);
      }

      .cls-6 {
        clip-path: url(#clippath-18);
      }

      .cls-7 {
        clip-path: url(#clippath-4);
      }

      .cls-8 {
        clip-path: url(#clippath-22);
      }

      .cls-9 {
        clip-path: url(#clippath-23);
      }

      .cls-10 {
        clip-path: url(#clippath-9);
      }

      .cls-11 {
        clip-path: url(#clippath-10);
      }

      .cls-12 {
        fill: #2d2d2d;
      }

      .cls-13 {
        clip-path: url(#clippath-25);
      }

      .cls-14 {
        clip-path: url(#clippath-27);
      }

      .cls-15 {
        clip-path: url(#clippath-11);
      }

      .cls-16, .cls-17 {
        fill: none;
      }

      .cls-18 {
        clip-path: url(#clippath-1);
      }

      .cls-19 {
        clip-path: url(#clippath-5);
      }

      .cls-20 {
        clip-path: url(#clippath-20);
      }

      .cls-21 {
        clip-path: url(#clippath-8);
      }

      .cls-22 {
        clip-path: url(#clippath-3);
      }

      .cls-23 {
        clip-path: url(#clippath-26);
      }

      .cls-24 {
        clip-path: url(#clippath-12);
      }

      .cls-25 {
        clip-path: url(#clippath-14);
      }

      .cls-26 {
        clip-path: url(#clippath-19);
      }

      .cls-17 {
        stroke: #2d2d2d;
        stroke-miterlimit: 10;
      }

      .cls-27 {
        clip-path: url(#clippath-16);
      }

      .cls-28 {
        clip-path: url(#clippath-2);
      }

      .cls-29 {
        clip-path: url(#clippath-13);
      }

      .cls-30 {
        clip-path: url(#clippath-24);
      }

      .cls-31 {
        clip-path: url(#clippath);
      }
    </style>
    <clipPath id="clippath">
      <rect class="cls-16" x="28.14" y=".5" width="1392" height="594.38"/>
    </clipPath>
    <clipPath id="clippath-1">
      <rect class="cls-16" x="28.14" y=".5" width="1392" height="594.38"/>
    </clipPath>
    <clipPath id="clippath-2">
      <rect class="cls-16" x="28.14" y=".5" width="1392" height="594.38"/>
    </clipPath>
    <clipPath id="clippath-3">
      <rect class="cls-16" x="28.14" y=".5" width="1392" height="594.38"/>
    </clipPath>
    <clipPath id="clippath-4">
      <rect class="cls-16" x="28.14" y=".5" width="1392" height="594.38"/>
    </clipPath>
    <clipPath id="clippath-5">
      <rect class="cls-16" x="28.14" y=".5" width="1392" height="594.38"/>
    </clipPath>
    <clipPath id="clippath-6">
      <rect class="cls-16" x="28.14" y=".5" width="1392" height="594.38"/>
    </clipPath>
    <clipPath id="clippath-7">
      <rect class="cls-16" x="28.14" y=".5" width="1392" height="594.38"/>
    </clipPath>
    <clipPath id="clippath-8">
      <rect class="cls-16" x="28.14" y=".5" width="1392" height="594.38"/>
    </clipPath>
    <clipPath id="clippath-9">
      <rect class="cls-16" x="28.14" y=".5" width="1392" height="594.38"/>
    </clipPath>
    <clipPath id="clippath-10">
      <rect class="cls-16" x="28.14" y=".5" width="1392" height="594.38"/>
    </clipPath>
    <clipPath id="clippath-11">
      <rect class="cls-16" x="28.14" y=".5" width="1392" height="594.38"/>
    </clipPath>
    <clipPath id="clippath-12">
      <rect class="cls-16" x="28.14" y=".5" width="1392" height="594.38"/>
    </clipPath>
    <clipPath id="clippath-13">
      <rect class="cls-16" x="28.14" y=".5" width="1392" height="594.38"/>
    </clipPath>
    <clipPath id="clippath-14">
      <rect class="cls-16" x="28.14" y=".5" width="1392" height="594.38"/>
    </clipPath>
    <clipPath id="clippath-15">
      <rect class="cls-16" x="28.14" y=".5" width="1392" height="594.38"/>
    </clipPath>
    <clipPath id="clippath-16">
      <rect class="cls-16" x="28.14" y=".5" width="1392" height="594.38"/>
    </clipPath>
    <clipPath id="clippath-17">
      <rect class="cls-16" x="28.14" y=".5" width="1392" height="594.38"/>
    </clipPath>
    <clipPath id="clippath-18">
      <rect class="cls-16" x="28.14" y=".5" width="1392" height="594.38"/>
    </clipPath>
    <clipPath id="clippath-19">
      <rect class="cls-16" x="28.14" y=".5" width="1392" height="594.38"/>
    </clipPath>
    <clipPath id="clippath-20">
      <rect class="cls-16" x="28.14" y=".5" width="1392" height="594.38"/>
    </clipPath>
    <clipPath id="clippath-21">
      <rect class="cls-16" x="28.14" y=".5" width="1392" height="594.38"/>
    </clipPath>
    <clipPath id="clippath-22">
      <rect class="cls-16" x="28.14" y=".5" width="1392" height="594.38"/>
    </clipPath>
    <clipPath id="clippath-23">
      <rect class="cls-16" x="28.14" y=".5" width="1392" height="594.38"/>
    </clipPath>
    <clipPath id="clippath-24">
      <rect class="cls-16" x="28.14" y=".5" width="1392" height="594.38"/>
    </clipPath>
    <clipPath id="clippath-25">
      <rect class="cls-16" x="28.14" y=".5" width="1392" height="594.38"/>
    </clipPath>
    <clipPath id="clippath-26">
      <rect class="cls-16" x="28.14" y=".5" width="1392" height="594.38"/>
    </clipPath>
    <clipPath id="clippath-27">
      <rect class="cls-16" x="28.14" y=".5" width="1392" height="594.38"/>
    </clipPath>
  </defs>
  <g id="Layer_1-2" data-name="Layer 1">
    <g>
      <g>
        <g class="cls-31">
          <path class="cls-12" d="M68.38,4.92h9.52v27.83h-9.52V4.92ZM103.71,1.03h7.64v31.73h-7.64V1.03ZM128.81,1.03v31.58l-8.36.14V1.03h8.36ZM77.9,71.41h-9.52v-27.69h9.52v27.69ZM52.81.5h-9.81v32.26c-5.62,0-6.78,0-9.52-.14-1.3-1.88-2.02-2.6-2.74-2.6-.86,0-1.44.72-1.59,2.02l-1.01,12.55c2.31-.29,7.21-.58,14.85-.72v29.42c0,8.51-.14,20.62-.58,28.7h10.96c-.43-12.12-.58-17.31-.58-28.7v-29.42l6.78-.14v28.41c0,4.18-.14,7.07-.29,10.38,3.75-.29,6.2-.43,11.39-.43h5.05c8.51,0,11.68.14,15,.43v-11.1h-3.89v-27.69h7.64v34.61c0,5.62-.14,12.98-.43,17.31h10.1c-.29-7.21-.43-10.38-.43-17.31v-34.61h7.64v32.59c0,8.51-.29,20.62-.58,28.7h10.1c-.43-12.11-.43-17.31-.43-28.7v-32.59h8.36v34.61c0,5.62-.14,12.98-.29,17.31h10.1c-.29-7.21-.43-10.38-.43-17.31v-34.61h5.62c5.34,0,5.91.58,5.91,5.91,0,3.46,0,5.77-.43,10.38,4.47-2.02,6.49-2.45,12.26-2.88-.14-9.81-.43-13.41-1.44-16.44-2.02-6.2-5.34-8.36-13.12-8.36-1.88,0-5.34,0-8.8.15V1.03h6.92V.5h-50.69c.02,1.68.05,3.73.07,6.3v25.96h-7.64V4.92h3.17V.5h-30.48c.02,1.08.05,2.26.05,3.7v28.55h-6.78V.5Z"/>
          <path class="cls-12" d="M215.2,30.88c-7.79-3.32-15.58-6.2-23.51-8.8-.58-1.88-1.15-2.74-2.16-2.74-.87,0-1.44.58-1.73,1.88l-3.32,10.67c11.68,2.6,16.58,4.18,25.24,8.08,13.27,5.91,21.63,11.1,31.87,20.05,2.02-4.61,3.32-6.2,6.63-8.8-7.21-6.06-14.42-11.1-22.93-15.58v-8.08c11.83,1.44,18.46,3.32,28.7,7.93,13.27,5.91,21.63,12.83,33.31,27.54,2.6-3.6,4.04-5.05,7.93-7.5-10.82-13.56-21.06-21.92-34.47-28.41-11.68-5.62-20.48-8.08-35.48-9.95V7.23c24.8,2.45,39.23,6.78,53.51,15.86,11.25,7.07,18.32,15.43,26.54,31.01,3.17-3.61,4.76-4.76,8.94-6.92-8.94-16.44-17.31-25.67-30.43-33.75-9.45-5.98-19.95-10.19-32.57-12.93h-36.08v30.38ZM302.88,11.12c0,3.17-.14,5.77-.29,9.09,5.48-1.88,7.5-2.31,12.11-3.03-.22-6.92-.65-12.33-1.51-16.68h-11.75c1.06,2.57,1.44,5.91,1.44,10.62M270.14,68.09c-3.17-7.21-6.35-13.99-11.39-23.51l-9.95,2.6c4.33,8.8,7.21,14.71,9.81,20.91h-33.03v-3.6c0-4.18.14-10.24.29-14.42h-10.96c.15,6.2.29,8.8.29,14.42v3.6c-20.77-.14-21.34-.14-25.67-.29-1.15-1.88-1.88-2.6-2.74-2.6-.72,0-1.3.86-1.44,2.16l-1.01,12.4c3.75-.43,13.99-.72,30.86-.87v9.37c-4.33-.86-8.65-1.59-13.12-2.31-1.3-3.03-1.59-3.32-2.6-3.32s-1.59.72-2.02,2.31l-2.88,10.96c15.72,2.31,17.59,2.6,24.52,4.33,13.12,3.03,17.74,4.47,24.37,7.21,2.74-3.75,4.33-5.48,7.64-8.65-7.5-3.03-16.01-5.77-25.53-8.22v-11.68h37.06c2.31,6.35,4.9,14.42,8.51,25.96l11.25-5.05c1.01-.43,1.87-1.3,1.87-1.88,0-1.01-.86-1.88-2.88-3.03-2.16-5.19-2.6-5.91-6.78-16.01h.43c18.6,0,32.74.29,42.11.72v-12.26c-10.82.58-20.62.72-42.11.72h-4.9Z"/>
          <path class="cls-12" d="M395.9,21.8l6.2,8.94c8.08-6.2,12.55-8.8,28.84-17.16l-6.78-10.82c-13.41,7.64-18.89,11.25-28.27,19.04M458.49,5.07c0,2.16,0,2.31-.29,9.95,5.91-2.31,7.93-2.74,13.12-3.46v-2.02c0-3.39-.12-6.39-.38-9.04h-12.67c.17,1.27.21,2.76.21,4.57M368.35,25.11c-4.33-1.3-10.1-2.74-21.34-5.62q-1.3-3.03-2.31-3.03c-.87,0-1.44.58-1.88,1.88l-4.18,11.1c28.12,5.62,42.11,10.67,60.43,21.92,2.88-4.47,4.04-5.77,7.64-8.8-8.22-5.05-19.47-10.38-27.69-13.56V.5h-10.67v24.61ZM400.37,87.56h-24.23v-24.08h24.23v24.08ZM439.45,87.56h-28.7v-24.08h28.7v24.08ZM388.55,52.66q-18.32-.29-22.93-.43c.14,3.03.29,4.76.29,8.51v11.97c-14.57-6.49-15.29-6.78-21.49-9.23-.43-2.45-.72-2.88-1.59-2.88-.72,0-1.3.58-1.59,1.73l-3.03,12.4c9.37,2.16,18.6,4.76,27.69,8.08v7.79c0,3.32-.14,5.77-.29,8.51,4.61-.29,14.42-.43,22.93-.43h52.49c7.64,0,13.41.14,20.33.43v-11.54h-11.54v-24.08h6.06v-11.25c-6.35.29-11.54.43-21.92.43h-45.43Z"/>
          <path class="cls-12" d="M534.93.5h-10.53v8.17h-24.37c-1.01-2.6-1.59-3.32-2.45-3.32-1.15,0-1.73,1.01-2.02,3.03l-1.15,11.97c9.95-.43,20.05-.43,30-.43v12.69c-4.04-1.01-8.22-2.02-12.55-2.74-1.15-2.74-1.44-3.17-2.31-3.17s-1.44.72-1.87,2.45l-3.03,10.53c20.77,3.46,31.15,6.78,43.99,14.13,2.31-3.61,3.46-5.19,6.78-8.8-6.06-3.6-12.98-6.78-20.48-9.37v-15.72c7.21.14,14.57.29,21.78.86v16.3c0,5.62-.14,12.98-.29,17.31h11.1c-.29-7.21-.29-10.38-.29-17.31v-14.85c10.24,1.73,17.45,4.9,24.8,10.09,10.82,7.64,19.33,19.33,25.67,35.62,3.46-2.88,5.19-3.89,9.52-5.77-6.64-18.03-18.17-32.59-32.88-41.68-4.61-2.88-9.66-5.19-15.29-6.92,8.51-2.89,15.43-6.63,23.08-12.26.36-.26.72-.53,1.06-.82h-19.52c-4.95,2.81-9.97,4.93-16.44,6.88V.5h-10.53v9.04c-7.21-.72-14.57-.87-21.78-.87V.5ZM535.07,72.27h-25.09c-1.59-4.47-3.17-8.94-5.34-14.28l.14-1.3v-1.01c0-1.3-.72-2.16-1.59-2.16-.43,0-.87.29-1.44.72l-6.78,7.5c6.63,13.99,9.08,22.64,12.55,42.54,3.46-1.73,5.05-2.45,9.66-3.89-1.44-6.92-2.74-12.4-4.04-17.45h21.92v9.52c0,3.17-.14,8.37-.29,11.54h10.67c-.14-3.89-.14-6.63-.14-11.54v-7.35c22.21,5.62,34.9,11.39,49.61,22.5,2.74-3.32,4.33-4.61,9.52-7.79-6.63-4.76-9.81-6.64-15-9.38-6.34-3.32-8.51-4.33-19.04-7.5h14.71c18.6,0,32.74.29,42.11.72v-12.11c-10.96.58-20.91.72-42.11.72h-15.43c3.61-4.04,8.36-8.94,11.68-11.97l-9.95-6.49c-5.48,6.06-8.08,9.37-13.27,18.46h-12.84v-7.21c0-3.89,0-8.51.14-11.54h-10.67c.14,5.05.29,7.21.29,11.54v7.21Z"/>
          <path class="cls-12" d="M741.45,18.91c2.16-2.16,5.62-4.33,8.94-6.2-2.55-4.52-4.97-8.51-7.45-12.21h-12.84c3.99,5.29,7.4,10.96,11.35,18.41M672.37,3.91c0-1.08,0-2.21.02-3.41h-9.98v30.67h-9.52c-1.15-2.02-2.02-2.88-2.74-2.88-.86,0-1.44.86-1.59,2.74l-1.01,11.25c2.45-.14,4.62-.14,9.37-.14h5.48v36.92c0,6.35,0,11.25-.14,15.86,3.75-.29,6.49-.43,12.69-.43l32.88.14c30.57,0,46.15,2.74,62.59,11.11,2.74-3.89,4.18-5.48,7.93-8.8-11.1-5.77-19.33-8.51-32.3-10.82-6.92-1.15-12.69-1.88-20.91-2.16v-47.88h38.51c5.34,0,6.06.72,6.06,6.35,0,4.47-.14,7.79-.58,13.27,5.62-1.73,7.64-2.16,12.4-2.31-.14-11.11-.58-16.01-1.59-19.9-2.02-6.63-4.9-8.8-12.26-8.8-.58,0-1.44,0-2.02.14-4.76.15-11.97.43-14.42.43h-26.1V.5h-9.81v19.13l-4.18-3.75c-1.59,2.02-3.03,3.89-4.33,5.62-3.12-7.21-6.8-14.25-10.94-21.01h-14.3v56.05c0,5.91-.14,14.85-.43,20.05h10.38c-.29-8.22-.43-11.83-.43-20.05V10.26c3.89,6.49,7.21,13.12,9.81,20.19-2.74,4.76-5.19,9.95-8.36,17.02l7.64,4.9c5.34-10.82,7.35-14.42,15.14-24.52v55.81h-42.98V3.91Z"/>
          <path class="cls-12" d="M814.33.5h-9.04c.02,4.33,1.23,8.39,3.36,11.83,3.97,6.54,11.13,10.94,19.33,10.94s15.55-4.35,19.52-10.94c2.12-3.44,3.29-7.48,3.32-11.83h-9.21c-.02,5.12-2.76,9.52-6.9,11.83-1.97,1.13-4.28,1.75-6.73,1.75s-4.76-.62-6.73-1.75c-4.13-2.31-6.9-6.68-6.92-11.83"/>
        </g>
        <polygon class="cls-12" points="670.56 139.76 687.75 139.76 687.75 145.56 682.03 145.56 682.03 170.84 676.1 170.84 676.1 145.56 670.56 145.56 670.56 139.76"/>
        <g class="cls-18">
          <path class="cls-12" d="M691.24,138.99h5.76v11.21c2.21-1.9,4.33-2.94,6.79-2.94,4.33,0,7.88,2.81,7.88,8.4v15.19h-5.76v-10.86c0-4.67-.56-7.44-3.94-7.44-1.6,0-2.99.82-3.89,2.25-1.17,1.82-1.08,3.89-1.08,6.28v9.78h-5.76v-31.85Z"/>
          <path class="cls-12" d="M734.62,156.47c-.78-2.68-3.25-4.33-6.32-4.33-2.86,0-5.07,1.43-6.19,4.33h12.51ZM738.86,166.38c-2.47,3.51-5.71,5.06-10.56,5.06-7.31,0-12.03-5.37-12.03-12.12,0-6.27,4.54-12.07,11.94-12.07s12.21,5.19,12.21,12.46c0,.52-.04.78-.04,1.3h-18.52c.56,3.42,3.16,5.32,6.45,5.32,2.47,0,4.11-.69,5.71-2.25l4.85,2.29Z"/>
          <path class="cls-12" d="M762.22,155.39c0,6.32,4.76,10.52,10.26,10.52s10.13-4.63,10.13-10.56-4.29-10.69-10.22-10.69c-5.58,0-10.17,4.33-10.17,10.73M788.57,155.39c0,9.13-7.14,16.19-16.06,16.19s-16.27-7.27-16.27-16.32,7.36-16.27,16.19-16.27,16.14,6.92,16.14,16.4"/>
          <path class="cls-12" d="M798.18,150.76c1.08-2.38,2.94-3.51,4.85-3.51,1.21,0,1.95.35,2.51.61l-1.77,4.93c-.43-.22-1.08-.48-1.69-.48-1.65,0-2.94,1.9-3.07,5.28-.04,1.26-.04,2.68-.04,3.94v9.31h-5.76v-22.98h4.98v2.9Z"/>
          <path class="cls-12" d="M812.41,159.33c0,3.94,2.6,6.84,6.19,6.84s6.32-2.68,6.32-6.88-2.69-6.75-6.32-6.75-6.19,3.03-6.19,6.79M824.66,168.41c-2.04,1.99-4.2,3.03-7.1,3.03-5.84,0-10.95-5.02-10.95-12.08s4.85-12.12,10.82-12.12c2.77,0,5.15,1.04,7.23,3.12v-11.38h5.75v31.85h-5.75v-2.42Z"/>
          <path class="cls-12" d="M853.69,156.47c-.78-2.68-3.25-4.33-6.32-4.33-2.86,0-5.07,1.43-6.19,4.33h12.51ZM857.93,166.38c-2.47,3.51-5.71,5.06-10.56,5.06-7.31,0-12.03-5.37-12.03-12.12,0-6.27,4.54-12.07,11.95-12.07s12.2,5.19,12.2,12.46c0,.52-.04.78-.04,1.3h-18.53c.56,3.42,3.16,5.32,6.45,5.32,2.47,0,4.11-.69,5.71-2.25l4.85,2.29Z"/>
          <path class="cls-12" d="M868.49,150.76c1.08-2.38,2.94-3.51,4.85-3.51,1.21,0,1.95.35,2.51.61l-1.77,4.93c-.43-.22-1.08-.48-1.69-.48-1.65,0-2.94,1.9-3.07,5.28-.04,1.26-.04,2.68-.04,3.94v9.31h-5.76v-22.98h4.98v2.9Z"/>
          <path class="cls-12" d="M895.53,159.33c0,3.9,2.47,6.67,6.19,6.67s6.32-2.6,6.32-6.62-2.55-6.67-6.32-6.67-6.19,2.81-6.19,6.62M913.84,159.33c0,6.67-5.15,12.12-12.16,12.12s-11.94-5.32-11.94-12.07,5.62-12.12,11.9-12.12c6.71,0,12.2,5.28,12.2,12.07"/>
          <path class="cls-12" d="M916.35,147.86h2.08c.04-5.15-.48-9.48,5.58-9.48,1.86,0,3.12.48,4.07.82v4.41c-.56-.17-1.34-.39-2.08-.39-2.25,0-1.77,1.17-1.82,4.63h3.64v4.89h-3.64v18.09h-5.76v-18.09h-2.08v-4.89Z"/>
        </g>
        <polygon class="cls-12" points="940.76 139.76 957.94 139.76 957.94 145.56 952.22 145.56 952.22 170.84 946.3 170.84 946.3 145.56 940.76 145.56 940.76 139.76"/>
        <g class="cls-28">
          <path class="cls-12" d="M961.43,138.99h5.76v11.21c2.21-1.9,4.33-2.94,6.79-2.94,4.33,0,7.88,2.81,7.88,8.4v15.19h-5.76v-10.86c0-4.67-.56-7.44-3.94-7.44-1.6,0-2.99.82-3.89,2.25-1.17,1.82-1.08,3.89-1.08,6.28v9.78h-5.76v-31.85Z"/>
          <path class="cls-12" d="M993.87,142.19c0,2.03-1.64,3.68-3.68,3.68s-3.68-1.86-3.68-3.98c0-1.99,1.69-3.5,3.68-3.5s3.68,1.73,3.68,3.81M987.34,147.86h5.76v22.98h-5.76v-22.98Z"/>
          <path class="cls-12" d="M1004.59,150.19c2.21-1.86,4.24-2.94,6.79-2.94,4.29,0,7.88,2.94,7.88,7.88v15.71h-5.76v-10.86c0-4.54-.39-7.44-3.9-7.44-1.6,0-2.99.78-3.9,2.21-1.17,1.86-1.12,3.94-1.12,6.32v9.78h-5.76v-22.98h5.76v2.34Z"/>
          <path class="cls-12" d="M1029.79,159.07c0,3.81,2.73,6.49,6.32,6.49s6.19-2.55,6.19-6.45-2.47-6.58-6.28-6.58-6.23,2.99-6.23,6.54M1047.75,167.55c0,4.46-.87,7.44-3.51,9.7-2.08,1.73-4.85,2.55-8.35,2.55-6.32,0-10.34-2.47-11.9-7.27h6.36c1.17,1.38,2.9,1.99,5.32,1.99,2.12,0,3.85-.56,4.89-1.51,1.39-1.3,1.43-2.86,1.43-5.02-1.9,1.86-3.98,2.86-6.97,2.86-6.19,0-11.04-4.93-11.04-11.82s4.89-11.77,10.73-11.77c2.86,0,5.11,1.08,7.27,3.12v-2.51h5.76v19.69Z"/>
          <path class="cls-12" d="M1058.37,160.88c-3.68-1.86-5.54-4.11-5.54-7.01,0-3.59,3.03-6.62,7.44-6.62,2.98,0,5.71,1.34,7.57,3.81l-3.55,3.59c-1.3-1.3-2.6-2.12-3.98-2.12-1.17,0-2.08.48-2.08,1.39s.82,1.26,2.08,1.9l2.12,1.08c3.81,1.95,5.84,3.94,5.84,7.36,0,4.11-3.25,7.19-8.26,7.19-3.33,0-6.06-1.34-8.05-3.94l3.55-3.89c1.34,1.56,3.29,2.68,4.81,2.68,1.43,0,2.55-.82,2.55-1.86s-.95-1.73-2.55-2.55l-1.95-1Z"/>
        </g>
        <polygon class="cls-12" points="60.43 139.76 66.35 139.76 66.35 165.21 74.97 165.21 74.97 170.84 60.43 170.84 60.43 139.76"/>
        <g class="cls-22">
          <path class="cls-12" d="M95.99,156.47c-.78-2.68-3.25-4.33-6.32-4.33-2.86,0-5.06,1.43-6.19,4.33h12.51ZM100.23,166.38c-2.47,3.51-5.71,5.06-10.56,5.06-7.31,0-12.03-5.37-12.03-12.12,0-6.27,4.54-12.07,11.94-12.07s12.2,5.19,12.2,12.46c0,.52-.04.78-.04,1.3h-18.52c.56,3.42,3.16,5.32,6.45,5.32,2.47,0,4.11-.69,5.71-2.25l4.85,2.29Z"/>
          <path class="cls-12" d="M110.8,160.88c-3.68-1.86-5.54-4.11-5.54-7.01,0-3.59,3.03-6.62,7.44-6.62,2.99,0,5.71,1.34,7.57,3.81l-3.55,3.59c-1.3-1.3-2.6-2.12-3.98-2.12-1.17,0-2.08.48-2.08,1.39s.82,1.26,2.08,1.9l2.12,1.08c3.81,1.95,5.84,3.94,5.84,7.36,0,4.11-3.25,7.19-8.27,7.19-3.33,0-6.06-1.34-8.05-3.94l3.55-3.89c1.34,1.56,3.29,2.68,4.8,2.68,1.43,0,2.55-.82,2.55-1.86s-.95-1.73-2.55-2.55l-1.95-1Z"/>
        </g>
        <polygon class="cls-12" points="140.99 139.76 146.79 139.76 153.98 161.45 161.25 139.76 166.96 139.76 172.2 170.84 166.49 170.84 163.15 151.19 156.53 170.84 151.34 170.84 144.8 151.19 141.38 170.84 135.63 170.84 140.99 139.76"/>
        <g class="cls-7">
          <path class="cls-12" d="M181.17,159.33c0,3.9,2.47,6.67,6.19,6.67s6.32-2.6,6.32-6.62-2.55-6.67-6.32-6.67-6.19,2.81-6.19,6.62M199.48,159.33c0,6.67-5.15,12.12-12.16,12.12s-11.94-5.32-11.94-12.07,5.63-12.12,11.9-12.12c6.71,0,12.21,5.28,12.21,12.07"/>
        </g>
        <polygon class="cls-12" points="204.86 139.38 210.61 139.38 210.61 147.86 214.03 147.86 214.03 152.79 210.61 152.79 210.61 170.84 204.86 170.84 204.86 152.79 201.91 152.79 201.91 147.86 204.86 147.86 204.86 139.38"/>
        <g class="cls-19">
          <path class="cls-12" d="M222.33,160.88c-3.68-1.86-5.54-4.11-5.54-7.01,0-3.59,3.03-6.62,7.44-6.62,2.99,0,5.71,1.34,7.57,3.81l-3.55,3.59c-1.3-1.3-2.6-2.12-3.98-2.12-1.17,0-2.08.48-2.08,1.39s.82,1.26,2.08,1.9l2.12,1.08c3.81,1.95,5.84,3.94,5.84,7.36,0,4.11-3.25,7.19-8.27,7.19-3.33,0-6.06-1.34-8.05-3.94l3.55-3.89c1.34,1.56,3.29,2.68,4.8,2.68,1.43,0,2.55-.82,2.55-1.86s-.95-1.73-2.55-2.55l-1.95-1Z"/>
          <path class="cls-12" d="M266.2,156.47c-.78-2.68-3.25-4.33-6.32-4.33-2.86,0-5.06,1.43-6.19,4.33h12.51ZM270.44,166.38c-2.47,3.51-5.71,5.06-10.56,5.06-7.31,0-12.03-5.37-12.03-12.12,0-6.27,4.54-12.07,11.94-12.07s12.21,5.19,12.21,12.46c0,.52-.04.78-.04,1.3h-18.52c.56,3.42,3.16,5.32,6.45,5.32,2.47,0,4.11-.69,5.71-2.25l4.85,2.29Z"/>
        </g>
        <polygon class="cls-12" points="277.33 139.38 283.09 139.38 283.09 147.86 286.51 147.86 286.51 152.79 283.09 152.79 283.09 170.84 277.33 170.84 277.33 152.79 274.39 152.79 274.39 147.86 277.33 147.86 277.33 139.38"/>
        <rect class="cls-12" x="301.17" y="138.99" width="5.76" height="31.85"/>
        <g class="cls-2">
          <path class="cls-12" d="M329.82,156.47c-.78-2.68-3.25-4.33-6.32-4.33-2.86,0-5.06,1.43-6.19,4.33h12.51ZM334.06,166.38c-2.47,3.51-5.71,5.06-10.56,5.06-7.32,0-12.03-5.37-12.03-12.12,0-6.27,4.54-12.07,11.94-12.07s12.2,5.19,12.2,12.46c0,.52-.04.78-.04,1.3h-18.52c.56,3.42,3.16,5.32,6.45,5.32,2.47,0,4.11-.69,5.71-2.25l4.85,2.29Z"/>
          <path class="cls-12" d="M344.63,160.88c-3.68-1.86-5.54-4.11-5.54-7.01,0-3.59,3.03-6.62,7.45-6.62,2.99,0,5.71,1.34,7.57,3.81l-3.55,3.59c-1.3-1.3-2.6-2.12-3.98-2.12-1.17,0-2.08.48-2.08,1.39s.82,1.26,2.08,1.9l2.12,1.08c3.81,1.95,5.84,3.94,5.84,7.36,0,4.11-3.25,7.19-8.27,7.19-3.33,0-6.06-1.34-8.05-3.94l3.55-3.89c1.34,1.56,3.29,2.68,4.8,2.68,1.43,0,2.55-.82,2.55-1.86s-.95-1.73-2.55-2.55l-1.95-1Z"/>
          <path class="cls-12" d="M400.28,165.64c-4.11,4.02-7.66,5.97-13.5,5.97-9.74,0-16.45-6.8-16.45-16.36s7.62-16.27,16.53-16.27c5.15,0,10.13,2.25,13.55,6.23l-4.15,3.98c-2.81-2.98-5.89-4.54-9.52-4.54-5.84,0-10.6,4.5-10.6,10.6,0,6.4,4.59,10.69,10.73,10.69,3.85,0,6.45-1.56,9.39-4.5l4.03,4.2Z"/>
          <path class="cls-12" d="M404.52,138.99h5.76v11.21c2.21-1.9,4.33-2.94,6.79-2.94,4.33,0,7.88,2.81,7.88,8.4v15.19h-5.76v-10.86c0-4.67-.56-7.44-3.94-7.44-1.6,0-2.99.82-3.89,2.25-1.17,1.82-1.08,3.89-1.08,6.28v9.78h-5.76v-31.85Z"/>
          <path class="cls-12" d="M435.33,159.33c0,3.9,2.47,6.67,6.19,6.67s6.32-2.6,6.32-6.62-2.55-6.67-6.32-6.67-6.19,2.81-6.19,6.62M453.64,159.33c0,6.67-5.15,12.12-12.16,12.12s-11.94-5.32-11.94-12.07,5.63-12.12,11.9-12.12c6.71,0,12.21,5.28,12.21,12.07"/>
          <path class="cls-12" d="M462.69,160.88c-3.68-1.86-5.54-4.11-5.54-7.01,0-3.59,3.03-6.62,7.44-6.62,2.99,0,5.71,1.34,7.57,3.81l-3.55,3.59c-1.3-1.3-2.6-2.12-3.98-2.12-1.17,0-2.08.48-2.08,1.39s.82,1.26,2.08,1.9l2.12,1.08c3.81,1.95,5.84,3.94,5.84,7.36,0,4.11-3.25,7.19-8.27,7.19-3.33,0-6.06-1.34-8.05-3.94l3.55-3.89c1.34,1.56,3.29,2.68,4.8,2.68,1.43,0,2.55-.82,2.55-1.86s-.95-1.73-2.55-2.55l-1.95-1Z"/>
          <path class="cls-12" d="M494.25,156.47c-.78-2.68-3.25-4.33-6.32-4.33-2.86,0-5.06,1.43-6.19,4.33h12.51ZM498.49,166.38c-2.47,3.51-5.71,5.06-10.56,5.06-7.31,0-12.03-5.37-12.03-12.12,0-6.27,4.54-12.07,11.94-12.07s12.2,5.19,12.2,12.46c0,.52-.04.78-.04,1.3h-18.52c.56,3.42,3.16,5.32,6.45,5.32,2.47,0,4.11-.69,5.71-2.25l4.85,2.29Z"/>
          <path class="cls-12" d="M509.06,160.88c-3.68-1.86-5.54-4.11-5.54-7.01,0-3.59,3.03-6.62,7.44-6.62,2.99,0,5.71,1.34,7.57,3.81l-3.55,3.59c-1.3-1.3-2.6-2.12-3.98-2.12-1.17,0-2.08.48-2.08,1.39s.82,1.26,2.08,1.9l2.12,1.08c3.81,1.95,5.84,3.94,5.84,7.36,0,4.11-3.25,7.19-8.27,7.19-3.33,0-6.06-1.34-8.05-3.94l3.55-3.89c1.34,1.56,3.29,2.68,4.8,2.68,1.43,0,2.55-.82,2.55-1.86s-.95-1.73-2.55-2.55l-1.95-1Z"/>
          <path class="cls-12" d="M1181.25,87.16v3.99h.79c1.69,0,2.57-.74,2.57-2.06,0-1.22-.82-1.93-2.43-1.93h-.93ZM1181.25,94.37v4.89h1.22c2.27,0,3.49-.64,3.49-2.25s-1.27-2.64-3.81-2.64h-.9ZM1177.63,102.7v-18.99h3.46c1.98,0,3.6.21,4.79.93,1.43.85,2.27,2.33,2.27,3.97,0,1.51-.69,2.64-1.98,3.65,2.22,1.06,3.33,2.59,3.33,4.89,0,1.56-.53,2.86-1.64,3.91-1.27,1.24-2.64,1.64-4.57,1.64h-5.66Z"/>
        </g>
        <polygon class="cls-12" points="1190.37 83.72 1194.26 83.72 1197.8 90.51 1201.29 83.72 1205.15 83.72 1199.6 94.48 1199.6 102.7 1195.98 102.7 1195.98 94.48 1190.37 83.72"/>
        <polygon class="cls-12" points="1217.34 83.72 1220.88 83.72 1225.27 96.96 1229.72 83.72 1233.21 83.72 1236.41 102.7 1232.91 102.7 1230.88 90.7 1226.83 102.7 1223.66 102.7 1219.67 90.7 1217.58 102.7 1214.06 102.7 1217.34 83.72"/>
        <g class="cls-3">
          <path class="cls-12" d="M1243.25,85.2c0,1.24-1,2.25-2.25,2.25s-2.25-1.14-2.25-2.43c0-1.22,1.03-2.14,2.25-2.14s2.25,1.06,2.25,2.33M1239.26,88.66h3.52v14.04h-3.52v-14.04Z"/>
          <path class="cls-12" d="M1259.81,100.14c-1.51,1.96-3.62,2.94-6.37,2.94-4.79,0-7.88-3.25-7.88-7.35s3.28-7.43,7.93-7.43c2.75,0,5.08,1.14,6.48,3.2l-2.94,1.61c-1.01-1.06-1.98-1.59-3.52-1.59-2.7,0-4.42,1.82-4.42,4.26s1.67,4.07,4.26,4.07c1.56,0,2.8-.53,3.68-1.61l2.78,1.9Z"/>
          <path class="cls-12" d="M1262.91,83.24h3.52v6.85c1.35-1.16,2.64-1.8,4.15-1.8,2.65,0,4.81,1.72,4.81,5.13v9.28h-3.52v-6.64c0-2.86-.34-4.55-2.41-4.55-.98,0-1.82.5-2.38,1.38-.71,1.11-.66,2.38-.66,3.83v5.98h-3.52v-19.46Z"/>
          <path class="cls-12" d="M1289.57,93.92c-.47-1.64-1.98-2.64-3.86-2.64-1.75,0-3.1.87-3.78,2.64h7.64ZM1292.16,99.98c-1.51,2.14-3.49,3.09-6.45,3.09-4.47,0-7.35-3.28-7.35-7.4,0-3.83,2.78-7.38,7.3-7.38s7.46,3.17,7.46,7.61c0,.32-.03.48-.03.79h-11.32c.34,2.09,1.93,3.25,3.94,3.25,1.51,0,2.51-.42,3.49-1.38l2.96,1.4Z"/>
        </g>
        <rect class="cls-12" x="1295.99" y="83.24" width="3.52" height="19.46"/>
        <polygon class="cls-12" points="1310.56 83.72 1319.97 83.72 1319.97 87.26 1314.07 87.26 1314.07 90.64 1319.97 90.64 1319.97 94.19 1314.07 94.19 1314.07 102.7 1310.56 102.7 1310.56 83.72"/>
        <g class="cls-21">
          <path class="cls-12" d="M1325.79,95.67c0,2.38,1.51,4.07,3.78,4.07s3.86-1.59,3.86-4.05-1.56-4.07-3.86-4.07-3.78,1.72-3.78,4.05M1336.98,95.67c0,4.07-3.15,7.4-7.43,7.4s-7.3-3.25-7.3-7.38,3.44-7.4,7.27-7.4c4.1,0,7.46,3.23,7.46,7.38"/>
          <path class="cls-12" d="M1339.96,88.66h3.52v7.33c0,2.51.79,3.83,2.65,3.83s2.64-1.3,2.64-3.68v-7.48h3.52v6.48c0,2.59-.16,4.5-1.64,6.13-1.11,1.24-2.56,1.77-4.52,1.77-3.39,0-5.48-1.72-6.03-5-.19-1.14-.13-1.8-.13-2.96v-6.43Z"/>
          <path class="cls-12" d="M1369.52,100.14c-1.51,1.96-3.62,2.94-6.37,2.94-4.79,0-7.88-3.25-7.88-7.35s3.28-7.43,7.93-7.43c2.75,0,5.08,1.14,6.48,3.2l-2.94,1.61c-1-1.06-1.98-1.59-3.52-1.59-2.7,0-4.42,1.82-4.42,4.26s1.67,4.07,4.26,4.07c1.56,0,2.8-.53,3.68-1.61l2.78,1.9Z"/>
          <path class="cls-12" d="M1375.28,95.67c0,2.4,1.59,4.18,3.78,4.18s3.86-1.64,3.86-4.21-1.64-4.12-3.86-4.12-3.78,1.85-3.78,4.15M1382.76,101.22c-1.24,1.22-2.56,1.85-4.34,1.85-3.57,0-6.69-3.07-6.69-7.38s2.96-7.4,6.61-7.4c1.69,0,3.15.64,4.42,1.91v-1.53h3.52v14.04h-3.52v-1.48Z"/>
          <path class="cls-12" d="M1390.08,88.66h3.52v7.33c0,2.51.79,3.83,2.64,3.83s2.64-1.3,2.64-3.68v-7.48h3.52v6.48c0,2.59-.16,4.5-1.64,6.13-1.11,1.24-2.56,1.77-4.52,1.77-3.39,0-5.47-1.72-6.03-5-.19-1.14-.13-1.8-.13-2.96v-6.43Z"/>
        </g>
        <rect class="cls-12" x="1406.01" y="83.24" width="3.52" height="19.46"/>
        <polygon class="cls-12" points="1413.83 83.48 1413.83 88.66 1412.03 88.66 1412.03 91.68 1413.83 91.68 1413.83 102.7 1417.35 102.7 1417.35 91.68 1419.44 91.68 1419.44 88.66 1417.35 88.66 1417.35 83.48 1413.83 83.48"/>
        <g class="cls-10">
          <path class="cls-12" d="M58.68,190.86h3.52v7.32c0,2.51.79,3.84,2.64,3.84s2.64-1.3,2.64-3.68v-7.48h3.52v6.48c0,2.59-.16,4.49-1.64,6.13-1.11,1.24-2.57,1.77-4.52,1.77-3.39,0-5.47-1.72-6.03-5-.19-1.14-.13-1.8-.13-2.96v-6.43Z"/>
          <path class="cls-12" d="M78.29,192.29c1.35-1.14,2.59-1.8,4.15-1.8,2.62,0,4.81,1.8,4.81,4.81v9.6h-3.52v-6.64c0-2.78-.24-4.55-2.38-4.55-.98,0-1.82.48-2.38,1.35-.71,1.14-.69,2.41-.69,3.86v5.98h-3.52v-14.04h3.52v1.43Z"/>
          <path class="cls-12" d="M100.95,197.87c0,2.41,1.59,4.18,3.78,4.18s3.86-1.64,3.86-4.2-1.64-4.13-3.86-4.13-3.78,1.85-3.78,4.15M108.43,203.42c-1.24,1.22-2.56,1.85-4.34,1.85-3.57,0-6.69-3.07-6.69-7.38s2.96-7.4,6.61-7.4c1.69,0,3.15.64,4.42,1.91v-1.53h3.52v14.04h-3.52v-1.48Z"/>
          <path class="cls-12" d="M118.43,192.64c.66-1.45,1.8-2.14,2.96-2.14.74,0,1.19.21,1.53.37l-1.08,3.01c-.26-.13-.66-.29-1.03-.29-1,0-1.8,1.16-1.88,3.23-.03.77-.03,1.64-.03,2.41v5.69h-3.52v-14.04h3.04v1.77Z"/>
          <path class="cls-12" d="M137.91,202.34c-1.51,1.96-3.62,2.94-6.37,2.94-4.79,0-7.88-3.25-7.88-7.35s3.28-7.43,7.93-7.43c2.75,0,5.08,1.14,6.48,3.2l-2.93,1.61c-1-1.06-1.98-1.59-3.52-1.59-2.7,0-4.42,1.82-4.42,4.26s1.67,4.07,4.26,4.07c1.56,0,2.8-.53,3.68-1.61l2.78,1.9Z"/>
          <path class="cls-12" d="M141.01,185.44h3.52v6.85c1.35-1.16,2.64-1.8,4.15-1.8,2.64,0,4.81,1.72,4.81,5.13v9.28h-3.52v-6.64c0-2.86-.34-4.55-2.41-4.55-.98,0-1.83.5-2.38,1.38-.71,1.11-.66,2.38-.66,3.83v5.98h-3.52v-19.46Z"/>
          <path class="cls-12" d="M167.67,196.13c-.48-1.64-1.98-2.64-3.86-2.64-1.75,0-3.1.87-3.78,2.64h7.64ZM170.26,202.18c-1.51,2.14-3.49,3.09-6.45,3.09-4.47,0-7.35-3.28-7.35-7.4,0-3.83,2.78-7.38,7.3-7.38s7.46,3.17,7.46,7.61c0,.32-.03.48-.03.79h-11.32c.34,2.09,1.93,3.25,3.94,3.25,1.51,0,2.51-.42,3.49-1.38l2.96,1.4Z"/>
          <path class="cls-12" d="M177.03,197.87c0,2.38,1.51,4.07,3.78,4.07s3.86-1.59,3.86-4.05-1.56-4.07-3.86-4.07-3.78,1.72-3.78,4.05M188.21,197.87c0,4.07-3.15,7.4-7.43,7.4s-7.3-3.25-7.3-7.38,3.44-7.4,7.27-7.4c4.1,0,7.46,3.23,7.46,7.38"/>
        </g>
        <rect class="cls-12" x="191.16" y="185.44" width="3.52" height="19.46"/>
        <g class="cls-11">
          <path class="cls-12" d="M201.13,197.87c0,2.38,1.51,4.07,3.78,4.07s3.86-1.59,3.86-4.05-1.56-4.07-3.86-4.07-3.78,1.72-3.78,4.05M212.32,197.87c0,4.07-3.15,7.4-7.43,7.4s-7.3-3.25-7.3-7.38,3.44-7.4,7.27-7.4c4.1,0,7.46,3.23,7.46,7.38"/>
          <path class="cls-12" d="M218.25,197.71c0,2.33,1.67,3.97,3.86,3.97s3.78-1.56,3.78-3.94-1.51-4.02-3.83-4.02-3.81,1.82-3.81,3.99M229.23,202.9c0,2.72-.53,4.55-2.14,5.92-1.27,1.06-2.96,1.56-5.1,1.56-3.86,0-6.32-1.51-7.27-4.44h3.89c.72.85,1.77,1.22,3.25,1.22,1.3,0,2.35-.34,2.99-.93.85-.79.87-1.75.87-3.07-1.16,1.14-2.43,1.75-4.26,1.75-3.78,0-6.74-3.01-6.74-7.22s2.99-7.19,6.56-7.19c1.74,0,3.12.66,4.44,1.9v-1.53h3.52v12.03Z"/>
          <path class="cls-12" d="M236.93,187.4c0,1.24-1,2.25-2.25,2.25s-2.25-1.14-2.25-2.43c0-1.22,1.03-2.14,2.25-2.14s2.25,1.06,2.25,2.32M232.94,190.86h3.52v14.04h-3.52v-14.04Z"/>
          <path class="cls-12" d="M250.53,196.13c-.48-1.64-1.98-2.64-3.86-2.64-1.75,0-3.09.87-3.78,2.64h7.64ZM253.12,202.18c-1.51,2.14-3.49,3.09-6.45,3.09-4.47,0-7.35-3.28-7.35-7.4,0-3.83,2.78-7.38,7.3-7.38s7.46,3.17,7.46,7.61c0,.32-.03.48-.03.79h-11.32c.34,2.09,1.93,3.25,3.94,3.25,1.51,0,2.51-.42,3.49-1.38l2.96,1.4Z"/>
          <path class="cls-12" d="M267.19,197.87c0,2.41,1.59,4.18,3.78,4.18s3.86-1.64,3.86-4.2-1.64-4.13-3.86-4.13-3.78,1.85-3.78,4.15M274.67,203.42c-1.24,1.22-2.56,1.85-4.34,1.85-3.57,0-6.69-3.07-6.69-7.38s2.96-7.4,6.61-7.4c1.69,0,3.15.64,4.42,1.91v-6.96h3.52v19.46h-3.52v-1.48Z"/>
          <path class="cls-12" d="M292.56,196.13c-.48-1.64-1.98-2.64-3.86-2.64-1.75,0-3.1.87-3.78,2.64h7.64ZM295.15,202.18c-1.51,2.14-3.49,3.09-6.45,3.09-4.47,0-7.35-3.28-7.35-7.4,0-3.83,2.78-7.38,7.3-7.38s7.46,3.17,7.46,7.61c0,.32-.03.48-.03.79h-11.32c.34,2.09,1.93,3.25,3.94,3.25,1.51,0,2.51-.42,3.49-1.38l2.96,1.4Z"/>
          <path class="cls-12" d="M301.77,198.82c-2.25-1.14-3.39-2.51-3.39-4.28,0-2.19,1.85-4.05,4.55-4.05,1.82,0,3.49.82,4.63,2.33l-2.17,2.19c-.79-.79-1.59-1.29-2.43-1.29-.71,0-1.27.29-1.27.85s.5.77,1.27,1.16l1.3.66c2.33,1.19,3.57,2.41,3.57,4.49,0,2.51-1.98,4.39-5.05,4.39-2.04,0-3.7-.82-4.92-2.41l2.17-2.38c.82.95,2.01,1.64,2.93,1.64.87,0,1.56-.5,1.56-1.14s-.58-1.06-1.56-1.56l-1.19-.61Z"/>
          <path class="cls-12" d="M320.8,198.82c-2.25-1.14-3.39-2.51-3.39-4.28,0-2.19,1.85-4.05,4.55-4.05,1.82,0,3.49.82,4.63,2.33l-2.17,2.19c-.79-.79-1.59-1.29-2.43-1.29-.71,0-1.27.29-1.27.85s.5.77,1.27,1.16l1.3.66c2.33,1.19,3.57,2.41,3.57,4.49,0,2.51-1.98,4.39-5.05,4.39-2.04,0-3.7-.82-4.92-2.41l2.17-2.38c.82.95,2.01,1.64,2.93,1.64.87,0,1.56-.5,1.56-1.14s-.58-1.06-1.56-1.56l-1.19-.61Z"/>
          <path class="cls-12" d="M343.27,202.34c-1.51,1.96-3.62,2.94-6.37,2.94-4.79,0-7.88-3.25-7.88-7.35s3.28-7.43,7.93-7.43c2.75,0,5.08,1.14,6.48,3.2l-2.93,1.61c-1-1.06-1.98-1.59-3.52-1.59-2.7,0-4.42,1.82-4.42,4.26s1.67,4.07,4.26,4.07c1.56,0,2.8-.53,3.68-1.61l2.78,1.9Z"/>
          <path class="cls-12" d="M350.15,187.4c0,1.24-1.01,2.25-2.25,2.25s-2.25-1.14-2.25-2.43c0-1.22,1.03-2.14,2.25-2.14s2.25,1.06,2.25,2.32M346.16,190.86h3.52v14.04h-3.52v-14.04Z"/>
          <path class="cls-12" d="M363.74,196.13c-.48-1.64-1.98-2.64-3.86-2.64-1.75,0-3.1.87-3.78,2.64h7.64ZM366.34,202.18c-1.51,2.14-3.49,3.09-6.45,3.09-4.47,0-7.35-3.28-7.35-7.4,0-3.83,2.78-7.38,7.3-7.38s7.46,3.17,7.46,7.61c0,.32-.03.48-.03.79h-11.32c.34,2.09,1.93,3.25,3.94,3.25,1.51,0,2.51-.42,3.49-1.38l2.96,1.4Z"/>
          <path class="cls-12" d="M373.82,192.29c1.35-1.14,2.59-1.8,4.15-1.8,2.62,0,4.81,1.8,4.81,4.81v9.6h-3.52v-6.64c0-2.78-.24-4.55-2.38-4.55-.98,0-1.83.48-2.38,1.35-.71,1.14-.69,2.41-.69,3.86v5.98h-3.52v-14.04h3.52v1.43Z"/>
          <path class="cls-12" d="M400,202.34c-1.51,1.96-3.62,2.94-6.37,2.94-4.79,0-7.88-3.25-7.88-7.35s3.28-7.43,7.93-7.43c2.75,0,5.08,1.14,6.48,3.2l-2.93,1.61c-1.01-1.06-1.98-1.59-3.52-1.59-2.7,0-4.42,1.82-4.42,4.26s1.67,4.07,4.26,4.07c1.56,0,2.8-.53,3.68-1.61l2.78,1.9Z"/>
          <path class="cls-12" d="M413.39,196.13c-.48-1.64-1.98-2.64-3.86-2.64-1.75,0-3.1.87-3.78,2.64h7.64ZM415.98,202.18c-1.51,2.14-3.49,3.09-6.45,3.09-4.47,0-7.35-3.28-7.35-7.4,0-3.83,2.78-7.38,7.3-7.38s7.46,3.17,7.46,7.61c0,.32-.03.48-.03.79h-11.32c.34,2.09,1.93,3.25,3.94,3.25,1.51,0,2.51-.42,3.49-1.38l2.96,1.4Z"/>
          <path class="cls-12" d="M422.6,198.82c-2.25-1.14-3.39-2.51-3.39-4.28,0-2.19,1.85-4.05,4.55-4.05,1.82,0,3.49.82,4.63,2.33l-2.17,2.19c-.79-.79-1.59-1.29-2.43-1.29-.71,0-1.27.29-1.27.85s.5.77,1.27,1.16l1.3.66c2.33,1.19,3.57,2.41,3.57,4.49,0,2.51-1.98,4.39-5.05,4.39-2.04,0-3.7-.82-4.92-2.41l2.17-2.38c.82.95,2.01,1.64,2.93,1.64.87,0,1.56-.5,1.56-1.14s-.58-1.06-1.56-1.56l-1.19-.61Z"/>
          <path class="cls-12" d="M438.86,185.44h3.52v6.85c1.35-1.16,2.64-1.8,4.15-1.8,2.64,0,4.81,1.72,4.81,5.13v9.28h-3.52v-6.64c0-2.86-.35-4.55-2.41-4.55-.98,0-1.82.5-2.38,1.38-.71,1.11-.66,2.38-.66,3.83v5.98h-3.52v-19.46Z"/>
          <path class="cls-12" d="M454.91,190.86h3.52v7.32c0,2.51.79,3.84,2.64,3.84s2.64-1.3,2.64-3.68v-7.48h3.52v6.48c0,2.59-.16,4.49-1.64,6.13-1.11,1.24-2.57,1.77-4.52,1.77-3.39,0-5.47-1.72-6.03-5-.19-1.14-.13-1.8-.13-2.96v-6.43Z"/>
          <path class="cls-12" d="M483.54,204.91h-3.52v-6.8c0-2.72-.53-4.39-2.49-4.39-1.74,0-3.02,1.43-3.02,4.31v6.88h-3.52v-14.04h3.52v1.61c1.19-1.3,2.72-1.98,4.39-1.98s3.23.82,4.1,2.51c1.3-1.64,2.59-2.51,4.71-2.51,1.56,0,2.96.63,3.76,1.64.92,1.16,1.03,2.7,1.03,4.55v8.22h-3.52v-7.75c0-2.3-.82-3.44-2.41-3.44-1.77,0-3.04,1.38-3.04,4.26v6.93Z"/>
          <path class="cls-12" d="M499.1,197.87c0,2.41,1.59,4.18,3.78,4.18s3.86-1.64,3.86-4.2-1.64-4.13-3.86-4.13-3.78,1.85-3.78,4.15M506.58,203.42c-1.24,1.22-2.56,1.85-4.34,1.85-3.57,0-6.69-3.07-6.69-7.38s2.96-7.4,6.61-7.4c1.69,0,3.15.64,4.42,1.91v-1.53h3.52v14.04h-3.52v-1.48Z"/>
          <path class="cls-12" d="M517.8,187.4c0,1.24-1,2.25-2.25,2.25s-2.25-1.14-2.25-2.43c0-1.22,1.03-2.14,2.25-2.14s2.25,1.06,2.25,2.32M513.81,190.86h3.52v14.04h-3.52v-14.04Z"/>
          <path class="cls-12" d="M524.5,192.29c1.35-1.14,2.59-1.8,4.15-1.8,2.62,0,4.81,1.8,4.81,4.81v9.6h-3.52v-6.64c0-2.78-.24-4.55-2.38-4.55-.98,0-1.83.48-2.38,1.35-.71,1.14-.69,2.41-.69,3.86v5.98h-3.52v-14.04h3.52v1.43Z"/>
          <path class="cls-12" d="M547.65,196.13c-.47-1.64-1.98-2.64-3.86-2.64-1.75,0-3.1.87-3.78,2.64h7.64ZM550.24,202.18c-1.51,2.14-3.49,3.09-6.45,3.09-4.47,0-7.35-3.28-7.35-7.4,0-3.83,2.78-7.38,7.3-7.38s7.46,3.17,7.46,7.61c0,.32-.03.48-.03.79h-11.32c.34,2.09,1.93,3.25,3.94,3.25,1.51,0,2.51-.42,3.49-1.38l2.96,1.4Z"/>
          <path class="cls-12" d="M556.86,198.82c-2.25-1.14-3.39-2.51-3.39-4.28,0-2.19,1.85-4.05,4.55-4.05,1.83,0,3.49.82,4.63,2.33l-2.17,2.19c-.79-.79-1.59-1.29-2.43-1.29-.71,0-1.27.29-1.27.85s.5.77,1.27,1.16l1.3.66c2.33,1.19,3.57,2.41,3.57,4.49,0,2.51-1.98,4.39-5.05,4.39-2.04,0-3.7-.82-4.92-2.41l2.17-2.38c.82.95,2.01,1.64,2.93,1.64.87,0,1.56-.5,1.56-1.14s-.58-1.06-1.56-1.56l-1.19-.61Z"/>
          <path class="cls-12" d="M674.77,197.87c0,2.41,1.59,4.18,3.78,4.18s3.86-1.64,3.86-4.2-1.64-4.13-3.86-4.13-3.78,1.85-3.78,4.15M682.25,203.42c-1.24,1.22-2.56,1.85-4.34,1.85-3.57,0-6.69-3.07-6.69-7.38s2.96-7.4,6.61-7.4c1.69,0,3.15.64,4.42,1.91v-1.53h3.52v14.04h-3.52v-1.48Z"/>
          <path class="cls-12" d="M693.15,192.29c1.35-1.14,2.59-1.8,4.15-1.8,2.62,0,4.81,1.8,4.81,4.81v9.6h-3.52v-6.64c0-2.78-.24-4.55-2.38-4.55-.98,0-1.83.48-2.38,1.35-.71,1.14-.69,2.41-.69,3.86v5.98h-3.52v-14.04h3.52v1.43Z"/>
          <path class="cls-12" d="M715.81,197.87c0,2.41,1.59,4.18,3.78,4.18s3.86-1.64,3.86-4.2-1.64-4.13-3.86-4.13-3.78,1.85-3.78,4.15M723.29,203.42c-1.24,1.22-2.56,1.85-4.34,1.85-3.57,0-6.69-3.07-6.69-7.38s2.96-7.4,6.61-7.4c1.69,0,3.15.64,4.42,1.91v-1.53h3.52v14.04h-3.52v-1.48Z"/>
          <path class="cls-12" d="M733.29,192.64c.66-1.45,1.8-2.14,2.96-2.14.74,0,1.19.21,1.53.37l-1.08,3.01c-.27-.13-.66-.29-1.03-.29-1,0-1.8,1.16-1.88,3.23-.02.77-.02,1.64-.02,2.41v5.69h-3.52v-14.04h3.04v1.77Z"/>
          <path class="cls-12" d="M752.78,202.34c-1.51,1.96-3.62,2.94-6.37,2.94-4.79,0-7.88-3.25-7.88-7.35s3.28-7.43,7.93-7.43c2.75,0,5.08,1.14,6.48,3.2l-2.93,1.61c-1.01-1.06-1.98-1.59-3.52-1.59-2.7,0-4.42,1.82-4.42,4.26s1.67,4.07,4.26,4.07c1.56,0,2.8-.53,3.68-1.61l2.78,1.9Z"/>
          <path class="cls-12" d="M755.87,185.44h3.52v6.85c1.35-1.16,2.64-1.8,4.15-1.8,2.64,0,4.81,1.72,4.81,5.13v9.28h-3.52v-6.64c0-2.86-.35-4.55-2.41-4.55-.98,0-1.83.5-2.38,1.38-.71,1.11-.66,2.38-.66,3.83v5.98h-3.52v-19.46Z"/>
          <path class="cls-12" d="M774.91,197.87c0,2.41,1.59,4.18,3.78,4.18s3.86-1.64,3.86-4.2-1.64-4.13-3.86-4.13-3.78,1.85-3.78,4.15M782.39,203.42c-1.24,1.22-2.56,1.85-4.34,1.85-3.57,0-6.69-3.07-6.69-7.38s2.96-7.4,6.61-7.4c1.69,0,3.15.64,4.42,1.91v-1.53h3.52v14.04h-3.52v-1.48Z"/>
          <path class="cls-12" d="M800.28,196.13c-.47-1.64-1.98-2.64-3.86-2.64-1.75,0-3.1.87-3.78,2.64h7.64ZM802.87,202.18c-1.51,2.14-3.49,3.09-6.45,3.09-4.47,0-7.35-3.28-7.35-7.4,0-3.83,2.78-7.38,7.3-7.38s7.46,3.17,7.46,7.61c0,.32-.03.48-.03.79h-11.32c.34,2.09,1.93,3.25,3.94,3.25,1.51,0,2.51-.42,3.49-1.38l2.96,1.4Z"/>
          <path class="cls-12" d="M809.64,197.87c0,2.38,1.51,4.07,3.78,4.07s3.86-1.59,3.86-4.05-1.56-4.07-3.86-4.07-3.78,1.72-3.78,4.05M820.83,197.87c0,4.07-3.15,7.4-7.43,7.4s-7.3-3.25-7.3-7.38,3.44-7.4,7.27-7.4c4.1,0,7.46,3.23,7.46,7.38"/>
        </g>
        <rect class="cls-12" x="823.78" y="185.44" width="3.52" height="19.46"/>
        <g class="cls-15">
          <path class="cls-12" d="M833.75,197.87c0,2.38,1.51,4.07,3.78,4.07s3.86-1.59,3.86-4.05-1.56-4.07-3.86-4.07-3.78,1.72-3.78,4.05M844.93,197.87c0,4.07-3.15,7.4-7.43,7.4s-7.3-3.25-7.3-7.38,3.44-7.4,7.27-7.4c4.1,0,7.46,3.23,7.46,7.38"/>
          <path class="cls-12" d="M850.87,197.71c0,2.33,1.67,3.97,3.86,3.97s3.78-1.56,3.78-3.94-1.51-4.02-3.83-4.02-3.81,1.82-3.81,3.99M861.84,202.9c0,2.72-.53,4.55-2.14,5.92-1.27,1.06-2.96,1.56-5.1,1.56-3.86,0-6.32-1.51-7.27-4.44h3.89c.72.85,1.77,1.22,3.25,1.22,1.3,0,2.36-.34,2.99-.93.85-.79.87-1.75.87-3.07-1.16,1.14-2.43,1.75-4.26,1.75-3.78,0-6.74-3.01-6.74-7.22s2.99-7.19,6.56-7.19c1.75,0,3.12.66,4.44,1.9v-1.53h3.52v12.03Z"/>
        </g>
        <polygon class="cls-12" points="864.05 190.86 867.64 190.86 871.29 199.67 875.34 190.86 878.96 190.86 870.13 210.04 866.5 210.04 869.39 203.85 864.05 190.86"/>
        <g class="cls-24">
          <path class="cls-12" d="M891.2,197.87c0,2.38,1.51,4.07,3.78,4.07s3.86-1.59,3.86-4.05-1.56-4.07-3.86-4.07-3.78,1.72-3.78,4.05M902.38,197.87c0,4.07-3.15,7.4-7.43,7.4s-7.3-3.25-7.3-7.38,3.44-7.4,7.27-7.4c4.1,0,7.46,3.23,7.46,7.38"/>
          <path class="cls-12" d="M904.07,190.86h1.27c.03-3.15-.29-5.79,3.41-5.79,1.14,0,1.9.29,2.49.5v2.7c-.34-.11-.82-.24-1.27-.24-1.37,0-1.09.71-1.11,2.83h2.22v2.99h-2.22v11.05h-3.52v-11.05h-1.27v-2.99Z"/>
        </g>
        <polygon class="cls-12" points="920.89 185.68 924.4 185.68 924.4 190.86 926.49 190.86 926.49 193.88 924.4 193.88 924.4 204.91 920.89 204.91 920.89 193.88 919.09 193.88 919.09 190.86 920.89 190.86 920.89 185.68"/>
        <g class="cls-29">
          <path class="cls-12" d="M928.99,185.44h3.52v6.85c1.35-1.16,2.64-1.8,4.15-1.8,2.65,0,4.81,1.72,4.81,5.13v9.28h-3.52v-6.64c0-2.86-.34-4.55-2.41-4.55-.98,0-1.82.5-2.38,1.38-.71,1.11-.66,2.38-.66,3.83v5.98h-3.52v-19.46Z"/>
          <path class="cls-12" d="M955.65,196.13c-.47-1.64-1.98-2.64-3.86-2.64-1.75,0-3.1.87-3.78,2.64h7.64ZM958.24,202.18c-1.51,2.14-3.49,3.09-6.45,3.09-4.47,0-7.35-3.28-7.35-7.4,0-3.83,2.78-7.38,7.3-7.38s7.46,3.17,7.46,7.61c0,.32-.03.48-.03.79h-11.32c.34,2.09,1.93,3.25,3.94,3.25,1.51,0,2.51-.42,3.49-1.38l2.96,1.4Z"/>
          <path class="cls-12" d="M969.42,185.44h3.52v6.85c1.35-1.16,2.65-1.8,4.15-1.8,2.64,0,4.81,1.72,4.81,5.13v9.28h-3.52v-6.64c0-2.86-.34-4.55-2.41-4.55-.98,0-1.83.5-2.38,1.38-.71,1.11-.66,2.38-.66,3.83v5.98h-3.52v-19.46Z"/>
          <path class="cls-12" d="M985.48,190.86h3.52v7.32c0,2.51.79,3.84,2.65,3.84s2.64-1.3,2.64-3.68v-7.48h3.52v6.48c0,2.59-.16,4.49-1.64,6.13-1.11,1.24-2.57,1.77-4.52,1.77-3.39,0-5.47-1.72-6.03-5-.19-1.14-.13-1.8-.13-2.96v-6.43Z"/>
          <path class="cls-12" d="M1014.11,204.91h-3.52v-6.8c0-2.72-.53-4.39-2.49-4.39-1.75,0-3.02,1.43-3.02,4.31v6.88h-3.52v-14.04h3.52v1.61c1.19-1.3,2.72-1.98,4.39-1.98,1.75,0,3.23.82,4.1,2.51,1.3-1.64,2.59-2.51,4.71-2.51,1.56,0,2.96.63,3.76,1.64.92,1.16,1.03,2.7,1.03,4.55v8.22h-3.52v-7.75c0-2.3-.82-3.44-2.41-3.44-1.77,0-3.04,1.38-3.04,4.26v6.93Z"/>
          <path class="cls-12" d="M1029.66,197.87c0,2.41,1.59,4.18,3.78,4.18s3.86-1.64,3.86-4.2-1.64-4.13-3.86-4.13-3.78,1.85-3.78,4.15M1037.14,203.42c-1.24,1.22-2.57,1.85-4.34,1.85-3.57,0-6.69-3.07-6.69-7.38s2.96-7.4,6.61-7.4c1.69,0,3.15.64,4.42,1.91v-1.53h3.52v14.04h-3.52v-1.48Z"/>
          <path class="cls-12" d="M1048.05,192.29c1.35-1.14,2.59-1.8,4.15-1.8,2.62,0,4.81,1.8,4.81,4.81v9.6h-3.52v-6.64c0-2.78-.24-4.55-2.38-4.55-.98,0-1.83.48-2.38,1.35-.71,1.14-.69,2.41-.69,3.86v5.98h-3.52v-14.04h3.52v1.43Z"/>
          <path class="cls-12" d="M1070.6,198.82c-2.25-1.14-3.39-2.51-3.39-4.28,0-2.19,1.85-4.05,4.55-4.05,1.83,0,3.49.82,4.63,2.33l-2.17,2.19c-.79-.79-1.59-1.29-2.43-1.29-.72,0-1.27.29-1.27.85s.5.77,1.27,1.16l1.3.66c2.33,1.19,3.57,2.41,3.57,4.49,0,2.51-1.98,4.39-5.05,4.39-2.04,0-3.7-.82-4.92-2.41l2.17-2.38c.82.95,2.01,1.64,2.94,1.64.87,0,1.56-.5,1.56-1.14s-.58-1.06-1.56-1.56l-1.19-.61Z"/>
          <path class="cls-12" d="M1093.07,202.34c-1.51,1.96-3.62,2.94-6.37,2.94-4.79,0-7.88-3.25-7.88-7.35s3.28-7.43,7.93-7.43c2.75,0,5.08,1.14,6.48,3.2l-2.93,1.61c-1.01-1.06-1.98-1.59-3.52-1.59-2.7,0-4.42,1.82-4.42,4.26s1.67,4.07,4.26,4.07c1.56,0,2.8-.53,3.68-1.61l2.78,1.9Z"/>
          <path class="cls-12" d="M1099.95,187.4c0,1.24-1.01,2.25-2.25,2.25s-2.25-1.14-2.25-2.43c0-1.22,1.03-2.14,2.25-2.14s2.25,1.06,2.25,2.32M1095.95,190.86h3.52v14.04h-3.52v-14.04Z"/>
          <path class="cls-12" d="M1113.54,196.13c-.48-1.64-1.98-2.64-3.86-2.64-1.75,0-3.09.87-3.78,2.64h7.64ZM1116.13,202.18c-1.51,2.14-3.49,3.09-6.45,3.09-4.47,0-7.35-3.28-7.35-7.4,0-3.83,2.78-7.38,7.3-7.38s7.46,3.17,7.46,7.61c0,.32-.03.48-.03.79h-11.32c.34,2.09,1.93,3.25,3.94,3.25,1.51,0,2.51-.42,3.49-1.38l2.96,1.4Z"/>
          <path class="cls-12" d="M1123.62,192.29c1.35-1.14,2.59-1.8,4.15-1.8,2.62,0,4.81,1.8,4.81,4.81v9.6h-3.52v-6.64c0-2.78-.24-4.55-2.38-4.55-.98,0-1.82.48-2.38,1.35-.71,1.14-.69,2.41-.69,3.86v5.98h-3.52v-14.04h3.52v1.43Z"/>
          <path class="cls-12" d="M1149.8,202.34c-1.51,1.96-3.62,2.94-6.37,2.94-4.79,0-7.88-3.25-7.88-7.35s3.28-7.43,7.93-7.43c2.75,0,5.08,1.14,6.48,3.2l-2.94,1.61c-1-1.06-1.98-1.59-3.52-1.59-2.7,0-4.41,1.82-4.41,4.26s1.66,4.07,4.26,4.07c1.56,0,2.8-.53,3.68-1.61l2.78,1.9Z"/>
          <path class="cls-12" d="M1163.19,196.13c-.47-1.64-1.98-2.64-3.86-2.64-1.75,0-3.1.87-3.78,2.64h7.64ZM1165.78,202.18c-1.51,2.14-3.49,3.09-6.45,3.09-4.47,0-7.35-3.28-7.35-7.4,0-3.83,2.78-7.38,7.3-7.38s7.46,3.17,7.46,7.61c0,.32-.03.48-.03.79h-11.32c.34,2.09,1.93,3.25,3.94,3.25,1.51,0,2.51-.42,3.49-1.38l2.96,1.4Z"/>
          <path class="cls-12" d="M1172.4,198.82c-2.25-1.14-3.39-2.51-3.39-4.28,0-2.19,1.85-4.05,4.55-4.05,1.83,0,3.49.82,4.63,2.33l-2.17,2.19c-.79-.79-1.59-1.29-2.43-1.29-.72,0-1.27.29-1.27.85s.5.77,1.27,1.16l1.3.66c2.33,1.19,3.57,2.41,3.57,4.49,0,2.51-1.98,4.39-5.05,4.39-2.04,0-3.7-.82-4.92-2.41l2.17-2.38c.82.95,2.01,1.64,2.94,1.64.87,0,1.56-.5,1.56-1.14s-.58-1.06-1.56-1.56l-1.19-.61Z"/>
          <path class="cls-12" d="M836.68,63.72h8.21v-5.86h-8.21v5.86ZM850.68,63.72h5.25v6.33c-1.55-.13-3.84-.13-7.13-.13h-12.11c-2.09,0-4.71.07-5.92.13.07-1.48.13-2.83.13-4.85v-8.89c0-1.95-.07-3.36-.13-4.84,1.21.13,3.84.2,5.92.2h10.16c3.16,0,5.38-.07,7-.2v6.39h-3.16v5.86ZM825.64,49.79c-.07,1.41-.13,3.57-.13,5.32v10.84c0,1.82.07,3.97.13,5.39h-6.39c.07-1.48.13-3.97.13-5.39v-10.84c0-1.41-.07-3.84-.13-5.32h6.39ZM807.94,47.84q-.07-5.99-.14-7.94c1.21.07,3.77.14,5.99.14h29.48c3.1,0,6.93,0,15.28-.2h.81c3.43,0,5.11.61,6.26,2.22,1.41,1.95,1.68,3.7,1.68,10.77-2.83.14-3.57.27-7.07,1.28.13-2.02.2-3.23.2-4.78,0-2.56-.27-2.83-2.76-2.83h-43.54v18.57c0,2.22.07,5.99.13,8.01h-6.46c.07-2.09.14-5.32.14-8.01v-17.23ZM850.14,91.52h8.28v-8.28h-8.28v8.28ZM841.59,77.92c-.07,1.01-.07,2.69-.07,4.04v11.04c0,1.28,0,3.03.07,4.04h-6.26c.07-1.01.07-2.76.07-4.04v-11.04c0-1.35,0-3.03-.07-4.04h6.26ZM832.3,77.92c-.07,1.01-.07,2.69-.07,4.04v11.04c0,1.28,0,3.03.07,4.04h-6.26c.07-1.01.07-2.76.07-4.04v-11.04c0-1.35,0-3.03-.07-4.04h6.26ZM813.86,81.96v11.04l.07,4.04h-6.26c.07-1.01.13-2.76.13-4.04v-11.04c0-1.35-.07-3.03-.13-4.04h6.26l-.07,4.04ZM866.49,91.52v6.39c-1.55-.14-3.84-.2-7.13-.2h-8.75c-2.09,0-4.71.07-5.92.2.07-1.55.13-2.96.13-4.91v-11.24c0-1.95-.07-3.36-.13-4.85,1.21.07,3.84.2,5.92.2h8.35c3.16,0,5.45-.07,7-.2v6.33h-2.15v8.28h2.69ZM823.22,75.03c-.07,1.41-.13,3.5-.13,5.32v14.2c0,1.82.07,3.97.13,5.38h-6.39c.07-1.48.14-3.9.14-5.38v-14.2c0-1.41-.07-3.84-.14-5.32h6.39Z"/>
          <path class="cls-12" d="M925.85,58.54c4.04-7.4,5.79-12.05,7.81-21,2.56,1.62,3.3,2.15,5.86,3.1-2.15,9.09-4.64,15.01-9.36,22.41l-4.31-4.51ZM894.15,93.4c-1.35.07-5.25.27-11.78.74l1.41-3.7c-1.21-3.64-1.82-5.05-3.7-8.88l3.64-4.31c.34-.4.47-.47.74-.47.4,0,.61.4.61,1.15v.6q.4,1.48,1.89,5.52c.27.74.61,1.75,1.08,3.43l6.33-.2v-3.7c0-1.34,0-3.03-.07-4.04h5.85c-.07,1.01-.07,2.69-.07,4.04v3.5l5.85-.2v-3.3c0-1.34-.07-3.03-.13-4.04h5.85c-.07,1.01-.07,2.69-.07,4.04v3.1l7.74-.2v-9.35h-9.89c-1.89,0-3.36,0-4.37.07l.47-6.19c.07-.81.34-1.21.67-1.21.4,0,.81.34,1.35,1.28h11.78v-4.58h-18.04v4.17h1.55v6.19c-1.55-.14-3.5-.14-6.26-.14h-11.71c-2.89,0-5.45.07-6.46.2l.47-6.39c.07-.74.27-1.14.67-1.14s.81.34,1.34,1.28h4.24v-7.67l-.07-4.04h5.79l-.07,4.04v7.67h5.05v-5.52c0-1.95-.07-3.36-.13-4.84,1.48.13,4.44.2,7.27.2h16.35v-9.42l-7.74-.4v3.23c0,1.28,0,3.03.07,4.04h-5.85c.07-1.01.13-2.76.13-4.04v-3.5l-5.85-.34v3.84c0,1.28,0,3.03.07,4.04h-5.85c.07-1.01.07-2.76.07-4.04v-4.11l-6.06-.34v4.78c0,.94.07,2.42.14,3.3h-5.99c.07-.81.2-2.15.2-3.3v-7.13c0-1.68-.07-3.1-.14-4.37,5.39.4,8.95.67,10.77.74l25.98,1.28c-.07-2.69-.13-5.32-.2-7.2h6.53c-.13,3.57-.27,9.29-.27,13.39v35.4c0,3.7.13,9.76.27,13.39h-6.53c.07-1.89.14-4.51.2-7.07l-25.1.74ZM928.54,75.16c.34-.54.54-.74.81-.74.54,0,.67.27.94,1.82,5.25,8.28,7.4,13.19,9.42,21.33-2.09.61-3.77,1.48-5.86,3.1-2.09-9.36-4.31-14.74-8.34-20.53l3.03-4.98Z"/>
          <path class="cls-12" d="M962.87,42.93l3.83-4.04c.4-.47.61-.6.88-.6.47,0,.74.34,1.01,1.14l.2.6h7.81c10.43,0,19.92.74,25.1,1.95,5.25,1.28,7.8,3.9,8.82,9.02.34,1.55.4,2.62.47,4.31l.07,1.75c0,.61,0,1.21.07,1.75-2.49.27-4.31.67-6.87,1.41.07-.87.2-2.89.2-3.36,0-4.51-.88-6.6-3.36-7.81-3.84-1.89-12.86-2.83-26.45-2.83h-4.64v2.89c9.62.74,16.09,2.29,22.82,5.39,8.01,3.7,13.26,8.75,18.24,17.7-2.36,1.08-3.3,1.75-5.11,3.57-4.78-8.61-9.15-12.85-16.96-16.29-5.45-2.36-10.09-3.5-18.98-4.31v2.96c8.55,1.08,13.46,2.76,19.59,6.39,5.18,3.1,7,4.71,12.05,10.9-2.36,1.48-3.23,2.36-4.38,4.17-5.79-6.73-9.02-9.36-14.87-11.91-4.71-2.09-7.67-2.96-12.38-3.57v2.09c3.5,1.82,6.8,4.04,9.89,6.53-1.82,1.28-2.83,2.49-4.04,4.78-4.04-3.3-7.13-5.25-12.52-7.74-4.31-2.02-7.27-2.96-13.46-4.44l1.82-5.92c.2-.61.47-.87.81-.87.47,0,.81.4,1.08,1.28,3.97,1.21,7.4,2.42,10.5,3.64v-19.65l-1.21-.88ZM992.62,81.89c8.82,0,15.34-.07,19.65-.27v6.93c-4.24-.2-10.57-.27-18.85-.27,1.62,4.11,1.82,4.51,2.76,6.8.94.61,1.35.94,1.35,1.41,0,.34-.4.74-.88.94l-6.39,2.76c-1.34-4.71-2.49-8.55-3.63-11.91h-17.1v4.38c4.71.88,8.95,1.95,12.52,3.16-2.76,3.23-2.96,3.43-4.04,5.32q-3.16-1.01-10.83-2.49-4.91-.94-12.85-1.82l1.55-6.33c.2-.74.47-1.15.94-1.15s.61.2,1.21,1.62c1.82.2,3.63.4,5.38.67v-3.37c-7.07.07-11.51.2-13.12.4l.47-7.07c0-.61.34-1.01.67-1.01.4,0,.74.34,1.28,1.21,1.95.07,2.29.07,10.7.07v-.6c0-1.95-.07-4.78-.13-6.66h6.4c-.07,1.88-.14,4.71-.14,6.66v.6h14.67c-1.08-2.69-2.29-5.25-3.7-8.01l5.72-1.41c1.95,3.63,3.16,6.19,4.58,9.42h1.82Z"/>
          <path class="cls-12" d="M1184.02,44.61c-2.14-1.67-3.91-2.78-5.92-3.65l1.27-2.46c.11-.18.18-.26.32-.26.18,0,.29.21.34.71,2.62,1.66,3.6,2.35,5.21,3.7l-1.22,1.96ZM1178.15,54.85c1.8-1.61,3.33-2.7,5.45-3.86l1.4,2.2c-2.83,1.59-3.39,1.93-5.55,3.6l-1.3-1.93ZM1185.77,41.31c0-1.67-.05-3.91-.11-5.26h2.62c-.05,1.4-.11,3.65-.11,5.26v3.91c1.19-.87,2.2-1.82,3.31-3.04,1.69-1.9,2.75-3.52,4.57-6.96.71.61,1.3,1.03,2.2,1.64-1.82,3.31-3.01,4.95-4.95,6.93-1.08,1.11-2.01,1.93-3.04,2.67h3.01c3.47,0,6.03-.03,7.72-.11v2.78c-1.72-.08-4.31-.13-7.72-.13h-3.04c1.69,1.14,2.78,2.12,4.1,3.62,1.77,1.98,3.3,4.12,4.65,6.45-.93.45-1.32.72-2.14,1.45-1.56-2.72-2.88-4.6-4.63-6.53-1.3-1.43-2.46-2.46-4.04-3.6v3.83c0,1.45.05,3.84.11,5.26h-2.62c.05-1.35.11-3.76.11-5.26v-5.24h-1.35c-4.34,0-6.95.05-7.77.16l.19-2.8c0-.24.13-.4.26-.4.16,0,.29.13.5.48q.92.03,6.82.03h1.35v-5.16Z"/>
          <path class="cls-12" d="M1215.3,40.3c1.01,0,1.75,0,2.62.05,2.33-.29,3.81-.66,5.6-1.32,2.54-.95,3.89-1.88,6.08-4.12.64.58,1.24,1.11,2.14,1.72-2.25,2.17-3.99,3.28-6.53,4.18-.42.16-.84.29-1.3.42,3.6.71,5.63,2.06,8.09,5.02-.66.4-1.08.71-2.14,1.64-1.45-2.09-3.3-3.39-6.03-4.23-2.22-.69-3.81-.85-9.18-.9v1.03c1.88.55,3.41,1.14,4.89,1.88-.95.98-1.29,1.38-1.69,2.01-2.96-1.48-6.37-2.46-10.45-2.96l.66-2.38c.08-.29.21-.45.4-.45.21,0,.32.13.45.61,1.24.24,2.38.48,3.39.71v-5.84l-.53-.34,1.61-1.53c.16-.16.26-.21.4-.21.21,0,.24,0,.48.71,2.35.61,3.81,1.09,5.34,1.77-.93,1.06-1.01,1.22-1.4,2.04-1.11-.5-1.96-.82-3.54-1.27v1.77h.63ZM1225.14,56.38c-1.16-1.14-2.62-2.04-4.15-2.56v1.74c.34.29.69.58,1.01.9l.03-.16c.05-.32.1-.45.27-.45s.32.16.53.5c.58.03.71.03,1.93.03h.4ZM1213.98,56.54h1.09v-6.14h-1.09v6.14ZM1210.75,56.54h1.19v-6.14h-1.19v6.14ZM1226.72,56.38v-2.91c0-.77-.03-1.88-.05-2.62h2.11c-.03.74-.05,1.85-.05,2.62v2.91h2.06v2.35c-.66-.05-1.35-.08-2.46-.08h-4.34c.21.26.45.53.69.82-.82.32-1.38.63-2.2,1.19-.82-1.14-1.69-2.25-2.78-3.17-.77-.63-1.61-1.19-2.48-1.64v.69h.87v2.51c-.61-.05-1.51-.08-2.8-.08h-4.39c-.84,0-1.88.03-2.35.08.05-.93.05-1.74.05-2.91v-5.32c0-1.19,0-1.98-.05-2.91.47.03,1.51.08,2.35.08h4.18c1.24,0,2.14-.03,2.75-.08v2.49h-.61v2.85c.53.29,1.08.56,1.61.87v-5.53l-.58-.32,1.43-1.72c.13-.16.32-.26.47-.26.19,0,.32.08.48.5,4.97.26,6.72.5,8.3,1.06,2.38.87,2.91,1.93,2.91,5.84v.19c-1.08.11-1.56.21-2.48.5.05-.66.05-1.06.05-1.56,0-1.32-.13-1.8-.63-2.3-.69-.66-2.78-1.01-7.8-1.24v3.39l.29-.79c.08-.24.21-.37.35-.37.19,0,.27.16.37.66.32.13.61.24.9.37.58-.82,1.27-1.56,2.01-2.27l1.56,1.4c-.74.5-1.43,1.08-2.04,1.72.74.5,1.46,1.06,2.19,1.77-.74.55-.95.71-1.35,1.22h1.45Z"/>
          <path class="cls-12" d="M1241.82,46.65h3.76v-3.86c0-1.14-.03-2.3-.05-3.44-.66,1.83-1.45,3.62-2.51,5.26l-1.19-1.19v3.23ZM1241.82,52.07l.66-1.03c.11-.18.26-.32.34-.32.21,0,.29.18.29.69v.08c.87,1.45,1.75,2.88,2.41,4.44.05-1.06.05-2.14.05-3.2v-3.81h-3.76v3.15ZM1256.95,55.59c.53,0,1,0,1.45-.03-.4-.64-.87-1.24-1.38-1.8-.27.45-.58.98-.93,1.56l-1.45-1.03c.4-.77.71-1.35,1-1.85-.56-.45-1.16-.87-1.82-1.29l.79-1.77c.08-.16.16-.24.26-.24.13,0,.19.11.21.5.58.37,1.11.74,1.61,1.14.34-.45.74-.95,1.24-1.59l1.72,1.14c-.58.61-1.03,1.16-1.48,1.77.69.71,1.32,1.48,1.96,2.41-.79.48-1.06.66-1.59,1.06,3.54-.03,3.65-.03,4.63-.05v2.48c-1.03-.03-3.49-.08-5.16-.08h-7.41c-2.75.03-3.75.03-4.34.03.19.53.37,1.11.55,1.77-.61.13-1.51.53-2.06.85-.77-2.88-1.59-4.81-2.96-6.88v1.03c0,1.45.05,3.83.11,5.29h-2.38c.08-1.38.11-3.76.11-5.29v-13.88c0-1.67-.03-3.91-.11-5.26h2.38c-.08,1.4-.11,3.65-.11,5.26v1.69c1.08-2.12,2.04-4.79,2.62-7.51.79.56,1.19.79,2.04,1.14-.11.48-.24.92-.37,1.4.56,0,1.45,0,4.52.03h6.45c.42,0,1.75-.03,2.57-.08h.4c2.49,0,3.01.87,3.01,5-1.14.05-1.45.11-2.54.5.05-.98.08-1.46.08-2.04,0-.9-.13-1.03-1.08-1.03h-4.6c.11.03.16.13.19.5.58.37,1.11.77,1.61,1.16.34-.48.74-.98,1.24-1.61l1.72,1.16c-.58.61-1.03,1.16-1.48,1.74.69.71,1.32,1.51,1.96,2.41-.85.53-1.11.69-1.69,1.19-.42-.71-.9-1.32-1.4-1.9-.29.45-.61.95-.95,1.53l-1.45-1c.4-.77.71-1.35,1-1.88-.56-.42-1.16-.85-1.82-1.27l.79-1.77c.08-.16.11-.24.24-.26h-6.21c.13.03.18.13.21.5.58.37,1.11.77,1.61,1.16.34-.48.74-.98,1.24-1.61l1.72,1.16c-.58.64-1.03,1.16-1.51,1.77.71.69,1.35,1.48,1.98,2.38-.87.53-1.11.69-1.69,1.19-.45-.71-.9-1.32-1.43-1.9-.29.45-.61.95-.95,1.53l-1.43-1c.4-.77.69-1.35.98-1.88-.53-.42-1.14-.85-1.8-1.27l.77-1.77c.08-.16.16-.24.24-.26h-1.03v6.72h7.48c3.41,0,6.03-.05,7.75-.13v2.54c-1.72-.08-4.34-.13-7.75-.13h-7.48v6.66h4.6c-.42-.63-.87-1.24-1.38-1.82-.29.45-.61.95-.95,1.56l-1.43-1.03c.4-.74.69-1.35.98-1.85-.53-.45-1.14-.87-1.8-1.29l.77-1.77c.08-.16.18-.24.26-.24.16,0,.21.11.24.5.58.37,1.11.74,1.61,1.14.34-.45.74-.95,1.24-1.59l1.72,1.14c-.58.63-1.03,1.16-1.51,1.77.71.71,1.35,1.48,1.98,2.41-.82.48-1.08.66-1.59,1.08h4.63Z"/>
          <path class="cls-12" d="M1281.96,45.12c1.48,0,2.67,1.19,2.67,2.67s-1.19,2.67-2.67,2.67-2.67-1.19-2.67-2.67,1.19-2.67,2.67-2.67"/>
          <path class="cls-12" d="M1312.56,39.61h-.98v3.89h.98v-3.89ZM1309.73,39.61h-.95v3.89h.95v-3.89ZM1311.58,49.42h.98v-3.41h-.98v3.41ZM1308.77,49.42h.95v-3.41h-.95v3.41ZM1306.74,43.5v-3.33c0-1.32-.03-2.09-.05-3.07.48.05,1.48.08,2.33.08h4.31c1.24,0,2.14-.03,2.75-.08v2.51h-1.59v3.89c.79-.03,1.43-.03,1.88-.05v2.62c-.53-.03-1.14-.05-1.88-.05v3.41h1.9v2.51c-.61-.05-1.51-.08-2.8-.08h-4.58c-.85,0-1.85.03-2.33.08.03-.93.05-1.75.05-2.91v-3.01h-1.24v2.94c0,1.37.05,3.09.08,4.2h-2.38c.05-1.11.08-2.83.08-4.2v-2.94c-1.03.03-1.72.05-2.25.08l.19-2.65c0-.29.11-.45.27-.45s.29.13.53.5h1.27v-3.65c-.27.42-.48.87-1.03,2.12l-1.51-1.08c.42-1.22.79-1.93,1.45-2.93l1.08.85c-.03-1.09-.05-2.27-.08-3.09h2.38c-.03,1.14-.08,3.01-.08,4.23v3.57h1.24ZM1319.7,40.2c.66,0,1.9-.03,2.83-.08h.35c1.96,0,2.38.9,2.38,4.92-1.11.05-1.43.11-2.59.5.08-.92.11-1.46.11-1.93,0-.85-.16-.98-1.11-.98h-1.96v5.74c.71-.93,1.4-1.56,2.62-2.41l1.54,1.85c-1.43.95-2.2,1.61-2.91,2.46l-1.24-1.37v.9c0,1.35.03,3.09.08,4.2h-2.33c.05-1.11.08-2.86.08-4.2v-7.11c-1.32.05-1.38.08-1.64.16l.19-2.8c.03-.24.13-.37.29-.37s.29.13.5.48c.11,0,.32,0,.66.03v-.55c0-1.22-.03-3.09-.08-4.23h2.33c-.05,1.14-.08,3.02-.08,4.23v.58ZM1312.95,57.49c.95.42,1.61.79,2.7,1.43-1.3.61-1.66.85-2.46,1.56-3.71-2.25-7.54-3.73-12.43-4.79l.95-2.54c.11-.24.24-.37.4-.37.21,0,.27.08.45.64,2.62.71,3.7,1.06,5.77,1.88l.03-.48c.03-.24.13-.42.27-.42.16,0,.32.16.53.5,1.32.03,2.59.05,4.52.05h6.29c2.38,0,4.26-.03,5.42-.08v2.7c-1.19-.05-2.99-.08-5.42-.08h-7.01Z"/>
          <path class="cls-12" d="M1341.56,47.1h4.47v-2.65h-4.47v2.65ZM1350.4,47.1v2.51c-.61-.03-1.51-.05-2.8-.05h-6.03c-.82,0-1.85.03-2.33.05.03-.58.05-1.11.05-1.9v-3.89c0-.77-.02-1.32-.05-1.9.48.03,1.51.08,2.33.08h5.26c1.24,0,2.14-.02,2.75-.08v2.54h-1.27v2.64h2.09ZM1346.9,37.6c1.24,0,2.88-.03,6.19-.08h.24c1.32,0,1.96.21,2.38.87.53.77.63,1.53.63,4.73-1.16.08-1.56.13-2.8.53.08-1.03.11-1.51.11-2.35,0-.98-.11-1.08-1.11-1.08h-16.24v7.17c0,1.14.03,2.62.08,3.7h-2.56c.05-1,.08-2.51.08-3.7v-8.22c0-1.09-.03-2.78-.08-3.7h2.56c-.03.55-.03,1.37-.05,2.14h10.58ZM1342.09,53.84c.9-1.38,1.8-2.49,2.96-3.62l2.33,1.51c-.79.58-1.67,1.37-2.35,2.11h3.73c3.46,0,6.03-.03,7.72-.1v2.72c-1.72-.08-4.31-.11-7.72-.11h-2.38c1.98.71,3.49,1.53,5.39,2.83-1.35.74-1.8,1.03-2.43,1.59-3.15-2.11-5.58-3.2-9.39-4.15v1.22c0,.71.03,1.56.05,2.12h-2.51c.03-.58.05-1.53.05-2.12v-1.48c-3.01.03-4.86.08-5.53.16l.21-2.78c0-.24.1-.4.27-.4.13,0,.29.13.5.48.79.03.9.03,4.55.03v-1.11c0-.55-.03-1.53-.05-2.12h2.51c-.03.55-.05,1.4-.05,2.12v1.11h2.14Z"/>
        </g>
        <rect class="cls-12" x="1362.03" y="47.26" width="26.44" height="1.06"/>
        <g class="cls-25">
          <path class="cls-12" d="M1405.13,45.88c-.45-.74-.93-1.48-1.43-2.17-.03.71-.03,1.51-.03,2.06v1.48h1.46v-1.38ZM1415.71,42.28h-1.4v8.49h1.4v-8.49ZM1412.3,42.28h-1.43v8.49h1.43v-8.49ZM1398.44,42.44c.9,0,1.59-.03,2.04-.05v2.62c-.56-.05-1.16-.08-2.04-.08v5.66c.9,0,1.59-.03,2.04-.05v2.64c-.56-.05-1.16-.08-2.04-.08v1.61c0,1.45.05,3.83.11,5.29h-2.46c.05-1.38.08-3.76.08-5.29v-1.61c-.98,0-1.8.03-2.14.08l.19-2.64c.03-.29.1-.45.27-.45s.29.13.53.5h1.16v-5.66c-.98,0-1.8.03-2.14.08l.19-2.62c.03-.29.1-.48.27-.48s.29.16.53.53h1.16v-1.61c0-1.67-.03-3.91-.08-5.26h2.46c-.05,1.4-.11,3.65-.11,5.26v1.61ZM1402.88,42.63c-.87-1.11-1.88-2.19-3.07-3.38l1.19-2.17c.16-.24.21-.32.34-.32.24,0,.29.16.34.77,1.27,1.43,2.41,2.86,3.44,4.31v-.71c0-1.66-.05-3.91-.11-5.26h2.56c-.05,1.4-.1,3.65-.1,5.26v4.36c.48.79.93,1.61,1.32,2.46v-5.37c0-1.16-.03-1.98-.05-2.91.48.05,1.51.08,2.35.08h4.73c1.24,0,2.14-.03,2.75-.08v2.62h-.79v8.49h.87v2.59c-.64-.05-1.51-.08-2.83-.08h-4.71c.71,1.9,1.38,3.94,2.01,6.16-.79.24-1.43.47-2.38.95-.92-4.05-1.9-7.01-3.28-10.02v4.02c0,1.45.05,3.83.1,5.26h-2.56c.05-1.35.11-3.76.11-5.26v-4.49h-1.46v4.2c0,.87.03,2.38.08,3.17h-2.49c.03-.79.05-2.14.05-3.17v-4.2c-1.03,0-1.37,0-2.25.05l.16-2.72c.03-.29.13-.48.27-.48.16,0,.32.13.53.5h1.3v-1.48c0-1.01-.03-2.35-.05-3.15h1.61Z"/>
          <path class="cls-12" d="M1409.35,159.44c1.11,0,2.11.59,2.68,1.58l2.78,4.82c-.17-.02-.34-.02-.51-.02h-55.57c-1.3,0-2.35,1.05-2.35,2.35v28.48l-2.36-4.08c-.25-.44-.38-.95-.38-1.49v-28.56c0-1.69,1.37-3.06,3.06-3.06h52.65ZM1351.43,162.51v28.56c0,.92.23,1.82.68,2.59l4.94,8.56s0,0,0,.01c.95,1.65,2.71,2.68,4.58,2.68h52.66c2.9,0,5.27-2.36,5.27-5.27v-28.56c0-.92-.23-1.82-.68-2.59l-4.94-8.57c-.96-1.65-2.72-2.68-4.59-2.68h-52.65c-2.91,0-5.27,2.37-5.27,5.27"/>
        </g>
        <polygon class="cls-12" points="57.93 524.26 75.11 524.26 75.11 530.06 69.4 530.06 69.4 555.33 63.47 555.33 63.47 530.06 57.93 530.06 57.93 524.26"/>
        <g class="cls-5">
          <path class="cls-12" d="M78.6,523.48h5.76v11.21c2.21-1.91,4.33-2.94,6.79-2.94,4.33,0,7.88,2.81,7.88,8.4v15.19h-5.76v-10.86c0-4.67-.56-7.44-3.94-7.44-1.6,0-2.99.82-3.9,2.25-1.17,1.82-1.08,3.9-1.08,6.28v9.78h-5.76v-31.85Z"/>
          <path class="cls-12" d="M121.98,540.97c-.78-2.68-3.25-4.33-6.32-4.33-2.86,0-5.06,1.43-6.19,4.33h12.51ZM126.22,550.88c-2.47,3.51-5.71,5.06-10.56,5.06-7.31,0-12.03-5.37-12.03-12.12,0-6.28,4.54-12.07,11.94-12.07s12.21,5.19,12.21,12.46c0,.52-.04.78-.04,1.3h-18.52c.56,3.42,3.16,5.32,6.45,5.32,2.47,0,4.11-.69,5.71-2.25l4.85,2.29Z"/>
        </g>
        <path class="cls-12" d="M157.63,532.48l-4.11,10.65h8.22l-4.11-10.65ZM154.6,524.26h5.97l11.99,31.07h-6.15l-2.42-6.41h-12.68l-2.55,6.41h-6.15l11.99-31.07Z"/>
        <g class="cls-27">
          <path class="cls-12" d="M180.67,535.25c1.08-2.38,2.94-3.51,4.85-3.51,1.21,0,1.95.35,2.51.61l-1.77,4.93c-.43-.22-1.08-.47-1.69-.47-1.65,0-2.94,1.9-3.07,5.28-.04,1.26-.04,2.68-.04,3.94v9.31h-5.76v-22.98h4.98v2.9Z"/>
          <path class="cls-12" d="M212.28,551.14c-2.47,3.2-5.93,4.8-10.43,4.8-7.83,0-12.9-5.32-12.9-12.03s5.37-12.16,12.98-12.16c4.5,0,8.31,1.86,10.6,5.24l-4.8,2.64c-1.65-1.73-3.24-2.6-5.76-2.6-4.41,0-7.23,2.99-7.23,6.97s2.73,6.67,6.97,6.67c2.55,0,4.59-.87,6.01-2.64l4.54,3.12Z"/>
          <path class="cls-12" d="M217.08,523.48h5.76v11.21c2.21-1.91,4.33-2.94,6.79-2.94,4.33,0,7.88,2.81,7.88,8.4v15.19h-5.76v-10.86c0-4.67-.56-7.44-3.94-7.44-1.6,0-2.99.82-3.9,2.25-1.17,1.82-1.08,3.9-1.08,6.28v9.78h-5.76v-31.85Z"/>
          <path class="cls-12" d="M247.99,543.82c0,3.94,2.6,6.84,6.19,6.84s6.32-2.68,6.32-6.88-2.68-6.75-6.32-6.75-6.19,3.03-6.19,6.79M260.24,552.91c-2.03,1.99-4.2,3.03-7.1,3.03-5.84,0-10.95-5.02-10.95-12.07s4.85-12.12,10.82-12.12c2.77,0,5.15,1.04,7.23,3.12v-2.51h5.76v22.98h-5.76v-2.42Z"/>
          <path class="cls-12" d="M289.27,540.97c-.78-2.68-3.25-4.33-6.32-4.33-2.86,0-5.06,1.43-6.19,4.33h12.51ZM293.51,550.88c-2.47,3.51-5.71,5.06-10.56,5.06-7.32,0-12.03-5.37-12.03-12.12,0-6.28,4.54-12.07,11.94-12.07s12.21,5.19,12.21,12.46c0,.52-.04.78-.04,1.3h-18.52c.56,3.42,3.16,5.32,6.45,5.32,2.47,0,4.11-.69,5.71-2.25l4.85,2.29Z"/>
          <path class="cls-12" d="M304.33,543.82c0,3.9,2.47,6.67,6.19,6.67s6.32-2.6,6.32-6.62-2.55-6.66-6.32-6.66-6.19,2.81-6.19,6.62M322.64,543.82c0,6.67-5.15,12.12-12.16,12.12s-11.95-5.32-11.95-12.07,5.63-12.12,11.9-12.12c6.71,0,12.21,5.28,12.21,12.07"/>
        </g>
        <rect class="cls-12" x="327.22" y="523.48" width="5.76" height="31.85"/>
        <g class="cls-4">
          <path class="cls-12" d="M343.3,543.82c0,3.9,2.47,6.67,6.19,6.67s6.32-2.6,6.32-6.62-2.55-6.66-6.32-6.66-6.19,2.81-6.19,6.62M361.6,543.82c0,6.67-5.15,12.12-12.16,12.12s-11.94-5.32-11.94-12.07,5.62-12.12,11.9-12.12c6.71,0,12.21,5.28,12.21,12.07"/>
          <path class="cls-12" d="M371.08,543.56c0,3.81,2.73,6.49,6.32,6.49s6.19-2.55,6.19-6.45-2.47-6.58-6.28-6.58-6.23,2.99-6.23,6.53M389.04,552.05c0,4.46-.87,7.44-3.51,9.69-2.08,1.73-4.85,2.55-8.35,2.55-6.32,0-10.34-2.47-11.9-7.27h6.36c1.17,1.38,2.9,1.99,5.32,1.99,2.12,0,3.85-.56,4.89-1.51,1.39-1.3,1.43-2.86,1.43-5.02-1.9,1.86-3.98,2.86-6.97,2.86-6.19,0-11.04-4.93-11.04-11.81s4.89-11.77,10.73-11.77c2.86,0,5.11,1.08,7.27,3.12v-2.51h5.76v19.69Z"/>
        </g>
        <polygon class="cls-12" points="392.39 532.35 398.27 532.35 404.25 546.77 410.87 532.35 416.8 532.35 402.34 563.73 396.41 563.73 401.13 553.6 392.39 532.35"/>
        <g class="cls-6">
          <path class="cls-12" d="M436.82,543.82c0,3.9,2.47,6.67,6.19,6.67s6.32-2.6,6.32-6.62-2.55-6.66-6.32-6.66-6.19,2.81-6.19,6.62M455.13,543.82c0,6.67-5.15,12.12-12.16,12.12s-11.95-5.32-11.95-12.07,5.63-12.12,11.9-12.12c6.71,0,12.21,5.28,12.21,12.07"/>
          <path class="cls-12" d="M457.64,532.35h2.08c.04-5.15-.48-9.48,5.58-9.48,1.86,0,3.12.48,4.07.82v4.42c-.56-.17-1.34-.39-2.08-.39-2.25,0-1.77,1.17-1.82,4.63h3.64v4.89h-3.64v18.09h-5.76v-18.09h-2.08v-4.89Z"/>
        </g>
        <polygon class="cls-12" points="485.21 524.26 491.13 524.26 491.13 534.95 499.57 524.26 506.71 524.26 495.81 538.11 507.75 555.33 500.74 555.33 491.13 541.53 491.13 555.33 485.21 555.33 485.21 524.26"/>
        <g class="cls-26">
          <path class="cls-12" d="M517.09,534.69c2.21-1.86,4.24-2.94,6.79-2.94,4.29,0,7.88,2.94,7.88,7.88v15.71h-5.76v-10.86c0-4.54-.39-7.44-3.89-7.44-1.6,0-2.99.78-3.9,2.21-1.17,1.86-1.13,3.94-1.13,6.32v9.78h-5.76v-22.98h5.76v2.34Z"/>
          <path class="cls-12" d="M542.16,543.82c0,3.9,2.47,6.67,6.19,6.67s6.32-2.6,6.32-6.62-2.55-6.66-6.32-6.66-6.19,2.81-6.19,6.62M560.47,543.82c0,6.67-5.15,12.12-12.16,12.12s-11.95-5.32-11.95-12.07,5.63-12.12,11.9-12.12c6.71,0,12.21,5.28,12.21,12.07"/>
        </g>
        <polygon class="cls-12" points="561.88 532.35 567.55 532.35 572.14 545.43 577.12 532.35 580.58 532.35 585.47 545.25 590.1 532.35 595.77 532.35 587.42 555.34 583.74 555.34 578.85 542.22 573.79 555.34 570.19 555.34 561.88 532.35"/>
        <rect class="cls-12" x="598.87" y="523.48" width="5.76" height="31.85"/>
        <g class="cls-20">
          <path class="cls-12" d="M627.52,540.97c-.78-2.68-3.25-4.33-6.32-4.33-2.86,0-5.06,1.43-6.19,4.33h12.51ZM631.76,550.88c-2.47,3.51-5.71,5.06-10.56,5.06-7.31,0-12.03-5.37-12.03-12.12,0-6.28,4.54-12.07,11.94-12.07s12.2,5.19,12.2,12.46c0,.52-.04.78-.04,1.3h-18.52c.56,3.42,3.16,5.32,6.45,5.32,2.47,0,4.11-.69,5.71-2.25l4.85,2.29Z"/>
          <path class="cls-12" d="M642.6,543.82c0,3.94,2.6,6.84,6.19,6.84s6.32-2.68,6.32-6.88-2.68-6.75-6.32-6.75-6.19,3.03-6.19,6.79M654.85,552.91c-2.03,1.99-4.2,3.03-7.1,3.03-5.84,0-10.95-5.02-10.95-12.07s4.85-12.12,10.82-12.12c2.77,0,5.15,1.04,7.23,3.12v-11.38h5.76v31.85h-5.76v-2.42Z"/>
          <path class="cls-12" d="M671.35,543.56c0,3.81,2.73,6.49,6.32,6.49s6.19-2.55,6.19-6.45-2.47-6.58-6.28-6.58-6.23,2.99-6.23,6.53M689.31,552.05c0,4.46-.87,7.44-3.51,9.69-2.08,1.73-4.85,2.55-8.35,2.55-6.32,0-10.34-2.47-11.9-7.27h6.36c1.17,1.38,2.9,1.99,5.32,1.99,2.12,0,3.85-.56,4.89-1.51,1.39-1.3,1.43-2.86,1.43-5.02-1.91,1.86-3.98,2.86-6.97,2.86-6.19,0-11.04-4.93-11.04-11.81s4.89-11.77,10.73-11.77c2.86,0,5.11,1.08,7.27,3.12v-2.51h5.76v19.69Z"/>
          <path class="cls-12" d="M712.59,540.97c-.78-2.68-3.25-4.33-6.32-4.33-2.86,0-5.06,1.43-6.19,4.33h12.51ZM716.83,550.88c-2.47,3.51-5.71,5.06-10.56,5.06-7.31,0-12.03-5.37-12.03-12.12,0-6.28,4.54-12.07,11.94-12.07s12.2,5.19,12.2,12.46c0,.52-.04.78-.04,1.3h-18.52c.56,3.42,3.16,5.32,6.45,5.32,2.47,0,4.11-.69,5.71-2.25l4.85,2.29Z"/>
        </g>
        <polygon class="cls-12" points="64.43 570.42 68.05 570.42 68.05 585.97 73.31 585.97 73.31 589.4 64.43 589.4 64.43 570.42"/>
        <g class="cls-1">
          <path class="cls-12" d="M74.25,569.94h3.25v1.77c0,2.3-.53,3.75-1.83,5.45l-1.27-.98c.82-1.19.98-1.96,1.14-2.56h-1.3v-3.68Z"/>
          <path class="cls-12" d="M83.11,582.37c0,2.41,1.59,4.18,3.78,4.18s3.86-1.64,3.86-4.21-1.64-4.13-3.86-4.13-3.78,1.85-3.78,4.15M90.6,587.92c-1.24,1.22-2.56,1.85-4.34,1.85-3.57,0-6.69-3.07-6.69-7.38s2.96-7.4,6.61-7.4c1.69,0,3.15.64,4.42,1.9v-1.53h3.52v14.04h-3.52v-1.48Z"/>
          <path class="cls-12" d="M100.6,577.13c.66-1.45,1.8-2.14,2.96-2.14.74,0,1.19.21,1.53.37l-1.08,3.01c-.26-.13-.66-.29-1.03-.29-1,0-1.8,1.16-1.88,3.22-.03.77-.03,1.64-.03,2.41v5.68h-3.52v-14.04h3.04v1.77Z"/>
          <path class="cls-12" d="M120.08,586.84c-1.51,1.96-3.62,2.93-6.37,2.93-4.79,0-7.88-3.25-7.88-7.35s3.28-7.43,7.93-7.43c2.75,0,5.08,1.14,6.48,3.2l-2.93,1.61c-1.01-1.06-1.98-1.59-3.52-1.59-2.7,0-4.42,1.82-4.42,4.26s1.67,4.07,4.26,4.07c1.56,0,2.8-.53,3.68-1.61l2.78,1.9Z"/>
          <path class="cls-12" d="M123.18,569.94h3.52v6.85c1.35-1.16,2.64-1.8,4.15-1.8,2.64,0,4.81,1.72,4.81,5.13v9.28h-3.52v-6.64c0-2.86-.34-4.55-2.41-4.55-.98,0-1.83.5-2.38,1.38-.71,1.11-.66,2.38-.66,3.83v5.98h-3.52v-19.46Z"/>
          <path class="cls-12" d="M146.59,567.72h4.15l-4.71,5.05h-2.54l3.09-5.05ZM149.84,580.62c-.48-1.64-1.98-2.64-3.86-2.64-1.75,0-3.1.87-3.78,2.64h7.64ZM152.43,586.68c-1.51,2.14-3.49,3.09-6.45,3.09-4.47,0-7.35-3.28-7.35-7.4,0-3.83,2.78-7.38,7.3-7.38s7.46,3.17,7.46,7.61c0,.32-.03.48-.03.79h-11.32c.34,2.09,1.93,3.25,3.94,3.25,1.51,0,2.51-.42,3.49-1.38l2.96,1.4Z"/>
          <path class="cls-12" d="M159.2,582.37c0,2.38,1.51,4.07,3.78,4.07s3.86-1.59,3.86-4.05-1.56-4.07-3.86-4.07-3.78,1.72-3.78,4.05M170.38,582.37c0,4.07-3.15,7.4-7.43,7.4s-7.3-3.25-7.3-7.38,3.44-7.4,7.27-7.4c4.1,0,7.46,3.23,7.46,7.38"/>
        </g>
        <rect class="cls-12" x="173.33" y="569.94" width="3.52" height="19.46"/>
        <g class="cls-8">
          <path class="cls-12" d="M183.3,582.37c0,2.38,1.51,4.07,3.78,4.07s3.86-1.59,3.86-4.05-1.56-4.07-3.86-4.07-3.78,1.72-3.78,4.05M194.49,582.37c0,4.07-3.15,7.4-7.43,7.4s-7.3-3.25-7.3-7.38,3.44-7.4,7.27-7.4c4.1,0,7.46,3.23,7.46,7.38"/>
          <path class="cls-12" d="M200.42,582.21c0,2.33,1.66,3.97,3.86,3.97s3.78-1.56,3.78-3.94-1.51-4.02-3.83-4.02-3.81,1.82-3.81,3.99M211.4,587.39c0,2.72-.53,4.55-2.14,5.92-1.27,1.06-2.96,1.56-5.1,1.56-3.86,0-6.32-1.51-7.27-4.44h3.89c.72.85,1.77,1.22,3.25,1.22,1.3,0,2.35-.34,2.99-.92.85-.79.87-1.74.87-3.07-1.16,1.14-2.43,1.74-4.26,1.74-3.78,0-6.74-3.02-6.74-7.22s2.99-7.19,6.56-7.19c1.75,0,3.12.66,4.44,1.91v-1.53h3.52v12.03Z"/>
          <path class="cls-12" d="M219.1,571.9c0,1.24-1,2.25-2.25,2.25s-2.25-1.14-2.25-2.43c0-1.22,1.03-2.14,2.25-2.14s2.25,1.06,2.25,2.33M215.11,575.36h3.52v14.04h-3.52v-14.04Z"/>
          <path class="cls-12" d="M232.7,580.62c-.47-1.64-1.98-2.64-3.86-2.64-1.75,0-3.1.87-3.78,2.64h7.64ZM235.29,586.68c-1.51,2.14-3.49,3.09-6.45,3.09-4.47,0-7.35-3.28-7.35-7.4,0-3.83,2.78-7.38,7.3-7.38s7.46,3.17,7.46,7.61c0,.32-.03.48-.03.79h-11.32c.34,2.09,1.93,3.25,3.94,3.25,1.51,0,2.51-.42,3.49-1.38l2.96,1.4Z"/>
          <path class="cls-12" d="M249.35,582.37c0,2.41,1.59,4.18,3.78,4.18s3.86-1.64,3.86-4.21-1.64-4.13-3.86-4.13-3.78,1.85-3.78,4.15M256.84,587.92c-1.24,1.22-2.56,1.85-4.34,1.85-3.57,0-6.69-3.07-6.69-7.38s2.96-7.4,6.61-7.4c1.69,0,3.15.64,4.42,1.9v-6.95h3.52v19.46h-3.52v-1.48Z"/>
          <path class="cls-12" d="M264.15,575.36h3.52v7.32c0,2.51.79,3.83,2.64,3.83s2.64-1.3,2.64-3.68v-7.48h3.52v6.48c0,2.59-.16,4.49-1.64,6.13-1.11,1.24-2.57,1.77-4.52,1.77-3.38,0-5.47-1.72-6.03-5-.19-1.14-.13-1.8-.13-2.96v-6.43Z"/>
          <path class="cls-12" d="M290.19,583.32c-2.25-1.14-3.39-2.51-3.39-4.28,0-2.19,1.85-4.05,4.55-4.05,1.82,0,3.49.82,4.63,2.33l-2.17,2.19c-.79-.79-1.59-1.29-2.43-1.29-.71,0-1.27.29-1.27.85s.5.77,1.27,1.16l1.3.66c2.33,1.19,3.57,2.41,3.57,4.49,0,2.51-1.98,4.39-5.05,4.39-2.04,0-3.7-.82-4.92-2.41l2.17-2.38c.82.95,2.01,1.64,2.93,1.64.87,0,1.56-.5,1.56-1.14s-.58-1.06-1.56-1.56l-1.19-.61Z"/>
          <path class="cls-12" d="M302.04,582.37c0,2.41,1.59,4.18,3.78,4.18s3.86-1.64,3.86-4.21-1.64-4.13-3.86-4.13-3.78,1.85-3.78,4.15M309.52,587.92c-1.24,1.22-2.56,1.85-4.34,1.85-3.57,0-6.69-3.07-6.69-7.38s2.96-7.4,6.61-7.4c1.69,0,3.15.64,4.42,1.9v-1.53h3.52v14.04h-3.52v-1.48Z"/>
        </g>
        <polygon class="cls-12" points="315.26 575.36 318.85 575.36 322.4 583.64 325.94 575.36 329.51 575.36 323.53 589.4 321.26 589.4 315.26 575.36"/>
        <g class="cls-9">
          <path class="cls-12" d="M333.93,582.37c0,2.38,1.51,4.07,3.78,4.07s3.86-1.59,3.86-4.05-1.56-4.07-3.86-4.07-3.78,1.72-3.78,4.05M345.12,582.37c0,4.07-3.15,7.4-7.43,7.4s-7.3-3.25-7.3-7.38,3.44-7.4,7.27-7.4c4.1,0,7.46,3.23,7.46,7.38"/>
          <path class="cls-12" d="M351.95,571.9c0,1.24-1,2.25-2.25,2.25s-2.25-1.14-2.25-2.43c0-1.22,1.03-2.14,2.25-2.14s2.25,1.06,2.25,2.33M347.95,575.36h3.52v14.04h-3.52v-14.04Z"/>
          <path class="cls-12" d="M357.75,577.13c.66-1.45,1.8-2.14,2.96-2.14.74,0,1.19.21,1.53.37l-1.08,3.01c-.27-.13-.66-.29-1.03-.29-1,0-1.8,1.16-1.88,3.22-.03.77-.03,1.64-.03,2.41v5.68h-3.52v-14.04h3.04v1.77Z"/>
          <path class="cls-12" d="M1181.82,471.65v3.99h.79c1.69,0,2.57-.74,2.57-2.06,0-1.22-.82-1.93-2.43-1.93h-.93ZM1181.82,478.87v4.89h1.22c2.27,0,3.49-.63,3.49-2.25s-1.27-2.64-3.81-2.64h-.9ZM1178.2,487.2v-18.99h3.46c1.98,0,3.6.21,4.79.93,1.43.85,2.27,2.33,2.27,3.97,0,1.51-.69,2.64-1.98,3.65,2.22,1.06,3.33,2.59,3.33,4.89,0,1.56-.53,2.86-1.64,3.91-1.27,1.24-2.64,1.64-4.57,1.64h-5.66Z"/>
        </g>
        <polygon class="cls-12" points="1190.95 468.22 1194.83 468.22 1198.38 475.01 1201.87 468.22 1205.73 468.22 1200.17 478.98 1200.17 487.2 1196.55 487.2 1196.55 478.98 1190.95 468.22"/>
        <polygon class="cls-12" points="1217.92 468.22 1221.46 468.22 1225.85 481.46 1230.29 468.22 1233.78 468.22 1236.98 487.2 1233.49 487.2 1231.45 475.2 1227.41 487.2 1224.23 487.2 1220.24 475.2 1218.15 487.2 1214.64 487.2 1217.92 468.22"/>
        <g class="cls-30">
          <path class="cls-12" d="M1243.83,469.7c0,1.24-1,2.25-2.25,2.25s-2.25-1.14-2.25-2.43c0-1.22,1.03-2.14,2.25-2.14s2.25,1.06,2.25,2.33M1239.83,473.16h3.52v14.04h-3.52v-14.04Z"/>
          <path class="cls-12" d="M1260.39,484.64c-1.51,1.96-3.62,2.94-6.37,2.94-4.79,0-7.88-3.25-7.88-7.35s3.28-7.43,7.93-7.43c2.75,0,5.08,1.14,6.48,3.2l-2.94,1.61c-1.01-1.06-1.98-1.59-3.52-1.59-2.7,0-4.42,1.82-4.42,4.26s1.67,4.07,4.26,4.07c1.56,0,2.8-.53,3.68-1.61l2.78,1.9Z"/>
          <path class="cls-12" d="M1263.49,467.74h3.52v6.85c1.35-1.16,2.64-1.8,4.15-1.8,2.65,0,4.81,1.72,4.81,5.13v9.28h-3.52v-6.64c0-2.86-.34-4.55-2.41-4.55-.98,0-1.82.5-2.38,1.38-.71,1.11-.66,2.38-.66,3.84v5.98h-3.52v-19.46Z"/>
          <path class="cls-12" d="M1290.14,478.42c-.47-1.64-1.98-2.65-3.86-2.65-1.75,0-3.1.87-3.78,2.65h7.64ZM1292.74,484.48c-1.51,2.14-3.49,3.09-6.45,3.09-4.47,0-7.35-3.28-7.35-7.4,0-3.83,2.78-7.38,7.3-7.38s7.46,3.17,7.46,7.62c0,.32-.03.48-.03.79h-11.32c.34,2.09,1.93,3.25,3.94,3.25,1.51,0,2.51-.42,3.49-1.38l2.96,1.4Z"/>
        </g>
        <rect class="cls-12" x="1296.57" y="467.74" width="3.52" height="19.46"/>
        <polygon class="cls-12" points="1311.13 468.22 1320.55 468.22 1320.55 471.76 1314.65 471.76 1314.65 475.14 1320.55 475.14 1320.55 478.69 1314.65 478.69 1314.65 487.2 1311.13 487.2 1311.13 468.22"/>
        <g class="cls-13">
          <path class="cls-12" d="M1326.37,480.17c0,2.38,1.51,4.07,3.78,4.07s3.86-1.59,3.86-4.05-1.56-4.07-3.86-4.07-3.78,1.72-3.78,4.05M1337.56,480.17c0,4.07-3.15,7.4-7.43,7.4s-7.3-3.25-7.3-7.38,3.44-7.4,7.27-7.4c4.1,0,7.46,3.23,7.46,7.38"/>
          <path class="cls-12" d="M1340.54,473.16h3.52v7.33c0,2.51.79,3.83,2.65,3.83s2.64-1.3,2.64-3.68v-7.48h3.52v6.48c0,2.59-.16,4.5-1.64,6.14-1.11,1.24-2.56,1.77-4.52,1.77-3.39,0-5.47-1.72-6.03-5-.19-1.14-.13-1.8-.13-2.96v-6.43Z"/>
          <path class="cls-12" d="M1370.09,484.64c-1.51,1.96-3.62,2.94-6.37,2.94-4.79,0-7.88-3.25-7.88-7.35s3.28-7.43,7.93-7.43c2.75,0,5.08,1.14,6.48,3.2l-2.94,1.61c-1-1.06-1.98-1.59-3.52-1.59-2.7,0-4.42,1.82-4.42,4.26s1.67,4.07,4.26,4.07c1.56,0,2.8-.53,3.68-1.61l2.78,1.9Z"/>
          <path class="cls-12" d="M1375.85,480.17c0,2.41,1.59,4.18,3.78,4.18s3.86-1.64,3.86-4.21-1.64-4.12-3.86-4.12-3.78,1.85-3.78,4.15M1383.34,485.72c-1.24,1.22-2.56,1.85-4.34,1.85-3.57,0-6.69-3.07-6.69-7.38s2.96-7.41,6.61-7.41c1.69,0,3.15.64,4.42,1.91v-1.53h3.52v14.04h-3.52v-1.48Z"/>
          <path class="cls-12" d="M1390.65,473.16h3.52v7.33c0,2.51.79,3.83,2.64,3.83s2.64-1.3,2.64-3.68v-7.48h3.52v6.48c0,2.59-.16,4.5-1.64,6.14-1.11,1.24-2.56,1.77-4.52,1.77-3.39,0-5.47-1.72-6.03-5-.19-1.14-.13-1.8-.13-2.96v-6.43Z"/>
        </g>
        <rect class="cls-12" x="1406.59" y="467.74" width="3.52" height="19.46"/>
        <polygon class="cls-12" points="1414.41 467.98 1414.41 473.16 1412.61 473.16 1412.61 476.17 1414.41 476.17 1414.41 487.2 1417.92 487.2 1417.92 476.17 1420.01 476.17 1420.01 473.16 1417.92 473.16 1417.92 467.98 1414.41 467.98"/>
        <g class="cls-23">
          <path class="cls-12" d="M1184.6,429.11c-2.14-1.67-3.91-2.78-5.92-3.65l1.27-2.46c.11-.18.18-.26.32-.26.18,0,.29.21.34.71,2.62,1.67,3.6,2.35,5.21,3.7l-1.22,1.96ZM1178.72,439.35c1.8-1.61,3.33-2.7,5.45-3.86l1.4,2.2c-2.83,1.59-3.38,1.93-5.55,3.6l-1.3-1.93ZM1186.34,425.8c0-1.66-.05-3.91-.11-5.26h2.62c-.05,1.4-.11,3.65-.11,5.26v3.91c1.19-.87,2.2-1.82,3.31-3.04,1.69-1.9,2.75-3.52,4.57-6.95.71.61,1.3,1.03,2.19,1.64-1.82,3.3-3.01,4.94-4.95,6.93-1.08,1.11-2.01,1.93-3.04,2.67h3.01c3.47,0,6.03-.03,7.72-.11v2.78c-1.72-.08-4.31-.13-7.72-.13h-3.04c1.69,1.14,2.78,2.11,4.1,3.62,1.77,1.98,3.3,4.12,4.65,6.45-.93.45-1.32.71-2.14,1.45-1.56-2.72-2.88-4.6-4.63-6.53-1.3-1.43-2.46-2.46-4.04-3.6v3.83c0,1.45.05,3.84.11,5.26h-2.62c.05-1.35.11-3.75.11-5.26v-5.23h-1.35c-4.34,0-6.95.05-7.77.16l.19-2.8c0-.24.13-.4.26-.4.16,0,.29.13.5.47q.92.03,6.82.03h1.35v-5.16Z"/>
          <path class="cls-12" d="M1215.88,424.8c1.01,0,1.75,0,2.62.05,2.33-.29,3.81-.66,5.6-1.32,2.54-.95,3.89-1.88,6.08-4.12.64.58,1.24,1.11,2.14,1.72-2.25,2.17-3.99,3.28-6.53,4.18-.42.16-.84.29-1.3.42,3.6.71,5.63,2.06,8.09,5.02-.66.4-1.08.71-2.14,1.64-1.46-2.09-3.3-3.38-6.03-4.23-2.22-.69-3.81-.85-9.18-.9v1.03c1.88.55,3.41,1.14,4.89,1.88-.95.98-1.29,1.38-1.69,2.01-2.96-1.48-6.37-2.46-10.45-2.96l.66-2.38c.08-.29.21-.45.4-.45.21,0,.32.13.45.61,1.24.24,2.38.48,3.39.71v-5.84l-.53-.34,1.61-1.53c.16-.16.26-.21.4-.21.21,0,.24,0,.48.71,2.35.61,3.81,1.08,5.34,1.77-.93,1.06-1.01,1.22-1.4,2.04-1.11-.5-1.96-.82-3.54-1.27v1.77h.63ZM1225.71,440.88c-1.16-1.14-2.62-2.04-4.15-2.56v1.75c.34.29.69.58,1.01.9l.03-.16c.05-.32.1-.45.27-.45s.32.16.53.5c.58.03.71.03,1.93.03h.4ZM1214.55,441.04h1.09v-6.14h-1.09v6.14ZM1211.33,441.04h1.19v-6.14h-1.19v6.14ZM1227.3,440.88v-2.91c0-.77-.03-1.88-.05-2.62h2.11c-.03.74-.05,1.85-.05,2.62v2.91h2.06v2.35c-.66-.05-1.35-.08-2.46-.08h-4.34c.21.26.45.53.69.82-.82.32-1.38.63-2.2,1.19-.82-1.14-1.69-2.25-2.78-3.17-.77-.63-1.61-1.19-2.48-1.64v.69h.87v2.51c-.61-.05-1.51-.08-2.8-.08h-4.39c-.84,0-1.88.03-2.35.08.05-.93.05-1.75.05-2.91v-5.32c0-1.19,0-1.98-.05-2.91.47.03,1.51.08,2.35.08h4.18c1.24,0,2.14-.03,2.75-.08v2.49h-.61v2.86c.53.29,1.08.56,1.61.87v-5.53l-.58-.32,1.43-1.72c.13-.16.32-.26.47-.26.19,0,.32.08.48.5,4.97.26,6.72.5,8.3,1.06,2.38.87,2.91,1.93,2.91,5.84v.19c-1.08.1-1.56.21-2.48.5.05-.66.05-1.06.05-1.56,0-1.32-.13-1.8-.63-2.3-.69-.66-2.78-1.01-7.8-1.24v3.38l.29-.79c.08-.24.21-.37.35-.37.18,0,.27.16.37.66.32.13.61.24.9.37.58-.82,1.27-1.56,2.01-2.27l1.56,1.4c-.74.5-1.43,1.09-2.04,1.72.74.5,1.46,1.06,2.19,1.77-.74.55-.95.71-1.35,1.22h1.45Z"/>
          <path class="cls-12" d="M1242.4,431.15h3.76v-3.86c0-1.14-.03-2.3-.05-3.44-.66,1.82-1.45,3.62-2.51,5.26l-1.19-1.19v3.23ZM1242.4,436.57l.66-1.03c.11-.19.26-.32.34-.32.21,0,.29.18.29.69v.08c.87,1.45,1.75,2.88,2.41,4.44.05-1.06.05-2.14.05-3.2v-3.81h-3.76v3.15ZM1257.52,440.09c.53,0,1,0,1.45-.03-.4-.64-.87-1.24-1.38-1.8-.27.45-.58.98-.93,1.56l-1.45-1.03c.4-.77.71-1.35,1-1.85-.56-.45-1.16-.87-1.82-1.3l.79-1.77c.08-.16.16-.24.26-.24.13,0,.19.11.21.5.58.37,1.11.74,1.61,1.14.34-.45.74-.95,1.24-1.59l1.72,1.14c-.58.61-1.03,1.16-1.48,1.77.69.71,1.32,1.48,1.96,2.41-.79.48-1.06.66-1.59,1.06,3.54-.03,3.65-.03,4.63-.05v2.49c-1.03-.03-3.49-.08-5.16-.08h-7.41c-2.75.03-3.75.03-4.34.03.19.53.37,1.11.55,1.77-.61.13-1.51.53-2.06.85-.77-2.88-1.59-4.81-2.96-6.88v1.03c0,1.45.05,3.83.11,5.29h-2.38c.08-1.38.11-3.75.11-5.29v-13.88c0-1.67-.03-3.91-.11-5.26h2.38c-.08,1.4-.11,3.65-.11,5.26v1.69c1.08-2.12,2.04-4.79,2.62-7.51.79.56,1.19.79,2.04,1.14-.1.48-.24.93-.37,1.4.56,0,1.45,0,4.52.03h6.45c.42,0,1.75-.03,2.57-.08h.4c2.48,0,3.01.87,3.01,5-1.14.05-1.45.11-2.54.5.05-.98.08-1.45.08-2.04,0-.9-.13-1.03-1.08-1.03h-4.6c.11.02.16.13.19.5.58.37,1.11.77,1.61,1.16.34-.48.74-.98,1.24-1.61l1.72,1.16c-.58.61-1.03,1.16-1.48,1.75.69.71,1.32,1.51,1.96,2.41-.85.53-1.11.69-1.69,1.19-.42-.71-.9-1.32-1.4-1.9-.29.45-.61.95-.95,1.53l-1.45-1.01c.4-.77.71-1.35,1-1.88-.56-.42-1.16-.85-1.82-1.27l.79-1.77c.08-.16.11-.24.24-.26h-6.21c.13.02.18.13.21.5.58.37,1.11.77,1.61,1.16.34-.48.74-.98,1.24-1.61l1.72,1.16c-.58.64-1.03,1.16-1.51,1.77.72.69,1.35,1.48,1.98,2.38-.87.53-1.11.69-1.69,1.19-.45-.71-.9-1.32-1.43-1.9-.29.45-.61.95-.95,1.53l-1.43-1.01c.4-.77.69-1.35.98-1.88-.53-.42-1.14-.85-1.8-1.27l.77-1.77c.08-.16.16-.24.24-.26h-1.03v6.72h7.48c3.41,0,6.03-.05,7.75-.13v2.54c-1.72-.08-4.34-.13-7.75-.13h-7.48v6.66h4.6c-.42-.63-.87-1.24-1.38-1.82-.29.45-.61.95-.95,1.56l-1.43-1.03c.4-.74.69-1.35.98-1.85-.53-.45-1.14-.87-1.8-1.3l.77-1.77c.08-.16.18-.24.26-.24.16,0,.21.11.24.5.58.37,1.11.74,1.61,1.14.34-.45.74-.95,1.24-1.59l1.72,1.14c-.58.63-1.03,1.16-1.51,1.77.72.71,1.35,1.48,1.98,2.41-.82.48-1.08.66-1.59,1.08h4.63Z"/>
          <path class="cls-12" d="M1282.54,429.61c1.48,0,2.67,1.19,2.67,2.67s-1.19,2.67-2.67,2.67-2.67-1.19-2.67-2.67,1.19-2.67,2.67-2.67"/>
          <path class="cls-12" d="M1313.13,424.11h-.98v3.89h.98v-3.89ZM1310.3,424.11h-.95v3.89h.95v-3.89ZM1312.15,433.92h.98v-3.41h-.98v3.41ZM1309.35,433.92h.95v-3.41h-.95v3.41ZM1307.31,428v-3.33c0-1.32-.02-2.09-.05-3.07.48.05,1.48.08,2.33.08h4.31c1.24,0,2.14-.03,2.75-.08v2.51h-1.59v3.89c.79-.03,1.43-.03,1.88-.05v2.62c-.53-.03-1.14-.05-1.88-.05v3.41h1.9v2.51c-.61-.05-1.51-.08-2.8-.08h-4.58c-.85,0-1.85.03-2.33.08.03-.93.05-1.74.05-2.91v-3.01h-1.24v2.93c0,1.37.05,3.09.08,4.2h-2.38c.05-1.11.08-2.83.08-4.2v-2.93c-1.03.03-1.72.05-2.25.08l.19-2.65c0-.29.1-.45.27-.45s.29.13.53.5h1.27v-3.65c-.27.42-.48.87-1.03,2.12l-1.51-1.08c.42-1.22.79-1.93,1.45-2.94l1.08.85c-.03-1.09-.05-2.27-.08-3.09h2.38c-.03,1.14-.08,3.01-.08,4.23v3.57h1.24ZM1320.27,424.69c.66,0,1.9-.03,2.83-.08h.35c1.96,0,2.38.9,2.38,4.92-1.11.05-1.43.11-2.59.5.08-.93.11-1.45.11-1.93,0-.85-.16-.98-1.11-.98h-1.96v5.74c.71-.93,1.4-1.56,2.62-2.41l1.54,1.85c-1.43.95-2.2,1.61-2.91,2.46l-1.24-1.38v.9c0,1.35.03,3.09.08,4.2h-2.33c.05-1.11.08-2.85.08-4.2v-7.11c-1.32.05-1.38.08-1.64.16l.19-2.8c.03-.24.13-.37.29-.37s.29.13.5.48c.11,0,.32,0,.66.03v-.55c0-1.22-.03-3.09-.08-4.23h2.33c-.05,1.14-.08,3.01-.08,4.23v.58ZM1313.53,441.99c.95.42,1.61.79,2.7,1.43-1.3.61-1.66.85-2.46,1.56-3.7-2.25-7.54-3.73-12.43-4.79l.95-2.54c.11-.24.24-.37.4-.37.21,0,.27.08.45.63,2.62.71,3.7,1.06,5.76,1.88l.03-.48c.03-.24.13-.42.27-.42.16,0,.32.16.53.5,1.32.03,2.59.05,4.52.05h6.29c2.38,0,4.26-.03,5.42-.08v2.7c-1.19-.05-2.99-.08-5.42-.08h-7.01Z"/>
          <path class="cls-12" d="M1342.14,431.6h4.47v-2.65h-4.47v2.65ZM1350.97,431.6v2.51c-.61-.03-1.51-.05-2.8-.05h-6.03c-.82,0-1.85.03-2.33.05.03-.58.05-1.11.05-1.9v-3.89c0-.77-.03-1.32-.05-1.9.48.03,1.51.08,2.33.08h5.26c1.24,0,2.14-.03,2.75-.08v2.54h-1.27v2.64h2.09ZM1347.48,422.1c1.24,0,2.88-.03,6.19-.08h.24c1.32,0,1.96.21,2.38.87.53.77.63,1.53.63,4.73-1.16.08-1.56.13-2.8.53.08-1.03.11-1.51.11-2.35,0-.98-.11-1.08-1.11-1.08h-16.24v7.17c0,1.14.03,2.62.08,3.7h-2.56c.05-1,.08-2.51.08-3.7v-8.22c0-1.08-.03-2.78-.08-3.7h2.56c-.03.55-.03,1.37-.05,2.14h10.58ZM1342.67,438.34c.9-1.38,1.8-2.49,2.96-3.62l2.33,1.51c-.79.58-1.67,1.38-2.35,2.11h3.73c3.46,0,6.03-.03,7.72-.11v2.72c-1.72-.08-4.31-.11-7.72-.11h-2.38c1.98.71,3.49,1.53,5.39,2.83-1.35.74-1.8,1.03-2.43,1.59-3.15-2.12-5.58-3.2-9.39-4.15v1.22c0,.71.03,1.56.05,2.12h-2.51c.03-.58.05-1.53.05-2.12v-1.48c-3.01.03-4.86.08-5.53.16l.21-2.78c0-.24.1-.4.27-.4.13,0,.29.13.5.48.79.03.9.03,4.55.03v-1.11c0-.56-.03-1.53-.05-2.12h2.51c-.03.56-.05,1.4-.05,2.12v1.11h2.14Z"/>
        </g>
        <rect class="cls-12" x="1362.61" y="431.75" width="26.44" height="1.06"/>
        <g class="cls-14">
          <path class="cls-12" d="M1405.71,430.38c-.45-.74-.93-1.48-1.43-2.17-.03.71-.03,1.51-.03,2.06v1.48h1.46v-1.38ZM1416.28,426.78h-1.4v8.49h1.4v-8.49ZM1412.87,426.78h-1.43v8.49h1.43v-8.49ZM1399.01,426.94c.9,0,1.59-.03,2.04-.05v2.62c-.56-.05-1.16-.08-2.04-.08v5.66c.9,0,1.59-.03,2.04-.05v2.64c-.56-.05-1.16-.08-2.04-.08v1.61c0,1.45.05,3.84.11,5.29h-2.46c.05-1.38.08-3.76.08-5.29v-1.61c-.98,0-1.8.03-2.14.08l.19-2.64c.03-.29.1-.45.27-.45s.29.13.53.5h1.16v-5.66c-.98,0-1.8.03-2.14.08l.19-2.62c.03-.29.1-.48.27-.48s.29.16.53.53h1.16v-1.61c0-1.67-.03-3.91-.08-5.26h2.46c-.05,1.4-.11,3.65-.11,5.26v1.61ZM1403.46,427.13c-.87-1.11-1.88-2.19-3.07-3.38l1.19-2.17c.16-.24.21-.32.34-.32.24,0,.29.16.34.77,1.27,1.43,2.41,2.86,3.44,4.31v-.71c0-1.67-.05-3.91-.11-5.26h2.56c-.05,1.4-.1,3.65-.1,5.26v4.36c.48.79.93,1.61,1.32,2.46v-5.37c0-1.17-.03-1.98-.05-2.91.48.05,1.51.08,2.35.08h4.73c1.24,0,2.14-.03,2.75-.08v2.62h-.79v8.49h.87v2.59c-.64-.05-1.51-.08-2.83-.08h-4.71c.71,1.9,1.38,3.94,2.01,6.16-.79.24-1.43.48-2.38.95-.92-4.05-1.9-7.01-3.28-10.02v4.02c0,1.45.05,3.83.1,5.26h-2.56c.05-1.35.11-3.76.11-5.26v-4.5h-1.46v4.2c0,.87.03,2.38.08,3.17h-2.49c.03-.79.05-2.14.05-3.17v-4.2c-1.03,0-1.37,0-2.25.05l.16-2.72c.03-.29.13-.48.27-.48.16,0,.32.13.53.5h1.3v-1.48c0-1-.03-2.35-.05-3.15h1.61Z"/>
          <path class="cls-12" d="M1409.93,543.94c1.11,0,2.11.59,2.68,1.58l2.78,4.82c-.17-.02-.34-.02-.51-.02h-55.57c-1.3,0-2.35,1.05-2.35,2.35v28.47l-2.36-4.08c-.25-.44-.38-.95-.38-1.49v-28.56c0-1.69,1.37-3.06,3.06-3.06h52.65ZM1352.01,547.01v28.56c0,.92.23,1.82.68,2.59l4.94,8.56s0,0,0,.01c.95,1.65,2.71,2.68,4.58,2.68h52.66c2.9,0,5.27-2.37,5.27-5.27v-28.56c0-.92-.23-1.82-.68-2.59l-4.94-8.57c-.96-1.65-2.72-2.68-4.59-2.68h-52.65c-2.91,0-5.27,2.36-5.27,5.27"/>
          <path class="cls-12" d="M102.27,430.02c0-4.76.14-12.98.43-17.31h-11.25c.29,5.91.29,10.1.29,17.31v12.4c-3.17-.15-6.49-.15-9.95-.15h-17.02v-7.07c0-4.76.15-12.84.29-17.31h-11.1c.14,5.91.29,10.1.29,17.31v27.98c-5.91-2.45-12.26-4.62-19.18-6.63q-1.15-3.17-2.16-3.17c-1.01,0-1.59.72-2.02,2.6l-2.74,10.24c21.63,5.34,33.46,10.67,49.47,22.21q4.62-4.61,8.65-7.21c-6.2-4.9-13.27-9.37-21.49-13.41v-13.99h15.14c4.18,0,8.22.14,11.83.29v14.71c0,5.48-.14,12.83-.29,17.16h11.25c-.29-7.21-.43-10.24-.43-17.16v-13.7c9.09,1.15,16.3,3.32,22.64,6.63,11.39,5.91,17.88,12.4,27.11,26.82,3.32-3.03,5.05-4.04,9.95-6.63-9.81-14.42-15.29-20.33-24.08-26.39-4.76-3.32-9.52-5.77-15-7.79,8.94-10.24,15-15.29,27.98-23.8l-8.37-9.81c-13.12,9.09-20.62,16.44-30.43,30.57-3.17-.72-6.49-1.15-9.81-1.44v-13.27ZM61.89,385h-10.53v14.01c0,3.32,0,5.77-.14,8.51,6.49-.43,11.25-.43,22.93-.43h58.99c11.1,0,19.47.15,25.24.43v-12.11h-16.58v-10.41h-10.53v10.41H61.89v-10.41Z"/>
          <path class="cls-12" d="M210.15,451.94v22.64c0,3.17-.14,8.36-.29,11.54h10.96c-.15-3.89-.29-6.78-.29-11.54v-22.64c0-3.89.14-8.51.29-11.54h-10.96c.14,5.05.29,7.21.29,11.54M297.69,470.54h-19.18v-14.85h19.18v14.85ZM281.68,444.87c-4.47,0-10.1-.14-12.69-.43.14,3.61.14,5.77.14,10.38v16.44c0,4.33,0,7.21-.14,10.53,3.75-.43,6.49-.43,12.69-.43h18.46c7.5,0,11.97.15,15.43.43v-11.25h-8.51v-14.85h5.34v-11.25c-3.75.29-7.21.43-14.85.43h-15.86ZM190.39,455.26v16.01l-.15,8.65h10.53l-.14-8.65v-16.01l.14-8.65h-10.53c.15,2.88.15,5.05.15,8.65M229.04,455.26v16.01c0,2.74,0,6.49-.14,8.65h10.67c-.14-3.03-.14-5.05-.14-8.65v-16.01c0-2.74,0-6.49.14-8.65h-10.67c.14,2.88.14,5.05.14,8.65M248.8,455.26v16.01c0,2.74,0,6.49-.14,8.65h10.67c-.14-3.03-.14-5.05-.14-8.65v-16.01c0-2.74,0-6.49.14-8.65h-10.67c.14,2.88.14,5.05.14,8.65M271.73,424.39h-9.81v-17.6h9.81v17.6ZM290.91,424.39h-10.38v-17.6h10.38v17.6ZM303.46,396.42c-3.32.14-6.78.14-13.27.14l-25.38.14c-4.47,0-10.1-.29-12.69-.43.14,3.6.14,5.77.14,10.38v17.88c0,4.18,0,7.07-.14,10.38,3.75-.29,6.49-.43,12.69-.43h29.85c7.36,0,11.97.15,15.43.43v-10.53h-9.52v-17.6h4.62v-7.35c1.3,2.31,2.6,5.05,4.04,7.93,2.88-2.6,4.04-3.46,8.22-5.77-3.68-6.78-7.02-12.11-10.48-16.61h-12.83c3.51,3.41,6.61,7.21,9.33,11.42M183.61,388.92c2.02-.43,4.04-.58,7.79-.58q9.95-.14,16.01-.14c13.41-.14,16.44-.14,27.55-.72v15.43c-1.73-.72-3.32-1.3-4.9-1.88q-8.8-3.32-10.96-4.33c-.58-3.17-1.01-3.75-2.16-3.75-1.01,0-1.88,1.01-2.31,2.6l-3.32,10.67c9.37,1.88,15.58,3.46,23.65,6.63v15.14l-3.32-9.09c-7.93,2.16-12.55,4.04-20.34,7.93l3.17,8.65c7.79-3.03,12.26-4.47,20.48-6.49-.14,4.76-.29,9.66-.43,13.12h10.82c-.43-8.36-.43-11.97-.43-20.05v-35.04c7.81-.53,15.58-1.06,23.29-2.04h-84.06l-.53,3.92ZM201.21,400.45v10.38h-11.83c-1.3-2.02-2.02-2.74-2.88-2.74s-1.44.86-1.59,2.6l-.86,10.67c2.16-.14,4.18-.14,9.23-.14h7.93v7.93c0,2.74-.14,6.49-.29,8.65h10.38c-.14-3.03-.14-5.05-.14-8.65v-28.7l.14-8.65h-10.38c.14,2.88.29,5.05.29,8.65"/>
          <path class="cls-12" d="M378.88,409.97v10.67h-13.41v-9.52c0-5.19.14-10.24.29-15.43,4.61,4.61,9.09,9.23,13.12,14.28M353.6,385c3.73,3.08,7.11,6.01,10.29,8.97h-8.65c.29,5.77.29,9.95.29,17.16v9.52h-11.1c-1.3-2.02-2.02-2.88-2.88-2.88s-1.3.87-1.44,2.6l-1.01,11.68c5.05-.29,5.77-.29,16.44-.29v25.38c0,5.48-.14,12.98-.29,17.31h10.67c-.29-7.36-.43-10.38-.43-17.31v-25.38h13.41v24.95c0,8.22-.29,21.2-.58,28.7h10.96c-.43-12.26-.58-17.6-.58-28.7v-34.04l1.59,2.16c3.03,4.18,5.77,8.22,8.22,12.11l-3.61,8.22c3.17.43,6.49.87,9.66,1.44,6.78,11.83,12.26,23.94,18.6,40.67,3.32-2.74,4.76-3.61,9.66-5.48-5.62-13.7-9.95-23.22-15.43-33.03,10.38,1.88,19.47,3.89,25.67,5.62l1.15-11.83-9.52-2.31v-55.26h-9.52v53.38l-5.91-1.01c-3.34-22.64-5.31-32.67-10.62-52.38h-12.5c5.53,12.83,10.05,29.06,13.89,50.64l-.43-.14-1.87-3.03c-6.35-10.24-12.4-18.89-19.04-26.97v-20.5h-9.81v9.11c-2.81-3.03-5.77-6.06-8.87-9.11h-16.42ZM456.33,389.93c2.88,2.31,4.33,7.21,4.33,14.57,0,3.89-.15,7.07-.87,12.98,5.48-1.59,7.5-2.02,12.69-2.31.15-3.17.15-7.21.15-8.51,0-9.66-1.03-16.46-4.52-21.66h-20.33c3.44,1.42,6.3,3.05,8.56,4.93"/>
          <path class="cls-12" d="M571.7,386.9h34.32v64.47h-34.32v-64.47ZM534.49,385h-10.53v28.43h-24.23c-1.15-2.02-2.02-2.74-2.74-2.74-.86,0-1.44.87-1.59,2.45l-.87,11.97c3.89-.29,10.96-.43,21.63-.43h7.79v31.87c0,8.22-.29,21.2-.58,28.7h11.68c-.58-12.26-.58-17.59-.58-28.7v-31.87h26.68v25.82c0,4.9-.14,8.36-.29,12.26,6.49-.29,11.39-.43,22.93-.43h18.32c11.25,0,19.61.14,25.38.43v-11.39h-10.96v-64.47h7.93v-1.9h-63.31v28.43h-26.68v-28.43Z"/>
          <path class="cls-12" d="M704.96,435.5c-2.6-5.48-5.48-10.96-8.8-16.15,2.31-2.74,4.76-5.34,7.5-8.08l-6.06-6.63c-2.6,2.74-4.76,5.19-6.78,7.64-1.73-2.02-3.61-4.04-5.77-6.2-.14-2.74-.72-3.75-1.73-3.75-.72,0-1.59.87-2.02,1.88l-.14.29-3.46,6.2c2.88,2.16,5.62,4.9,8.22,8.36-2.02,3.32-4.04,7.07-6.2,11.54l6.06,4.33c1.59-3.03,3.32-5.91,5.19-8.65,2.6,4.04,5.05,8.51,7.35,13.56,2.6-2.02,3.75-2.74,6.63-4.04v22.21l-8.8.43v-12.26l.14-8.65h-8.94c.15,2.88.15,5.05.15,8.65v12.55l-7.93.43v-12.98l.14-8.65h-8.94c.15,2.88.15,5.05.15,8.65v13.27l-7.93.43c-1.73-8.37-3.17-15.29-4.47-20.77-.14-3.17-.58-4.04-1.73-4.04-.43,0-1.15.43-1.73,1.01l-5.91,6.35c2.6,5.48,5.05,12.55,6.92,20.33l-2.88,7.93c3.03-.29,7.5-.58,13.27-.87l38.36-1.88c-.14,5.34-.29,10.24-.43,14.13,4.04-.15,5.91-.15,8.36-.15h4.18c3.03,0,6.63.15,10.38.29v-11.54h-13.12v-85.69h-9.23v50.5ZM687.51,393.1c0,2.74,0,6.49-.15,8.65h8.94c-.14-2.88-.14-5.05-.14-8.65v-8.1h-8.65v8.1ZM670.92,393.1c0,2.74,0,6.49-.15,8.65h8.94l-.14-8.65v-8.1h-8.65v8.1ZM654.19,393.1c0,2.6,0,6.63-.14,8.65h9.09l-.15-8.65v-8.1h-8.8v8.1ZM663.14,412.86c-1.73-1.73-3.61-3.32-5.77-5.05-.14-2.74-.72-3.75-1.73-3.75-.58,0-1.44.72-2.16,2.02l-3.6,6.63c3.6,2.74,6.49,5.19,9.09,7.79-1.59,3.46-3.17,7.21-4.76,11.68l6.49,3.46c1.3-3.17,2.6-6.06,3.89-8.65,2.16,3.03,4.18,6.2,6.35,10.24,2.31-1.73,3.89-2.74,6.78-4.18-3.17-5.77-5.91-10.1-8.8-13.7,2.02-3.17,4.33-6.35,7.21-10.1l-7.07-5.34c-2.31,3.32-4.18,6.2-5.91,8.94M730.77,385.6c-.02-.22-.05-.41-.07-.6h-8.34l-3.99,4.06,2.45,2.45v50.04c0,6.06-.14,14.57-.29,20.05h10.24c-.43-8.37-.43-11.97-.43-20.05v-37.79c2.45,4.47,4.47,9.09,6.49,13.56l-.72,7.5c1.73-.43,3.46-.72,6.49-.72l3.03-.14v31.29c0,8.22-.14,21.2-.43,28.7h10.82c-.43-12.26-.58-17.6-.58-28.7v-31.58h9.66c5.19,0,5.91.86,5.91,5.91,0,3.32-.14,6.35-.43,11.54,5.34-2.02,7.5-2.45,12.4-2.74,0-21.2-2.6-26.1-12.98-26.1-.29,0-4.33,0-14.57.29v-27.57h-9.81v27.57h-2.16c-3.6-9.23-7.93-18.17-12.69-26.97"/>
          <path class="cls-12" d="M814.9,385h-9.04c.02,4.33,1.23,8.39,3.36,11.83,3.97,6.54,11.13,10.94,19.33,10.94s15.55-4.35,19.52-10.94c2.12-3.44,3.29-7.48,3.32-11.83h-9.21c-.02,5.12-2.76,9.52-6.9,11.83-1.97,1.13-4.28,1.75-6.73,1.75s-4.76-.62-6.73-1.75c-4.13-2.31-6.9-6.68-6.92-11.83"/>
        </g>
      </g>
      <line class="cls-17" y1=".5" x2="1448.29" y2=".5"/>
      <line class="cls-17" x1="0" y1="385" x2="1448.29" y2="385"/>
    </g>
  </g>
</svg>