<?xml version="1.0" encoding="UTF-8"?>
<svg id="Layer_2" data-name="Layer 2" xmlns="http://www.w3.org/2000/svg" viewBox="0 0 989.98 142">
  <defs>
    <style>
      .cls-1 {
        fill: #2d2d2d;
      }
    </style>
  </defs>
  <g id="_圖層_1" data-name="圖層 1">
    <g>
      <path class="cls-1" d="M989.95,16.83c-.76-1.53-1.34-4.2-1.34-6.4,0-.19-.1-.29-.19-.29-.29,0-.29.48-1.05.67-.38.1-.96.19-1.72.19h-11.84c-.76,0-1.34-.1-1.72-.19-.76-.19-.76-.67-1.05-.67-.1,0-.19.1-.19.29,0,2.2-.57,4.87-1.34,6.4-.15.3.36.51.48.19,1.53-4.01,3.15-5.06,5.83-5.06h2.6s.08.03.08.08v22.85c0,1.24-.57,2.01-2.01,2.48-.19.1-.1.48.19.38,1.15-.38,1.81-.38,3.06-.38,1.15,0,1.91,0,3.06.38.29.1.38-.29.19-.38-1.43-.48-2.01-1.24-2.01-2.48V12.04s.03-.08.08-.08h2.6c2.67,0,4.3,1.05,5.83,5.06.12.32.63.11.48-.19Z"/>
      <path class="cls-1" d="M928.02,10.1c-7.63-.07-14.25,6.55-14.25,14.11s6.55,14.11,14.11,14.11c7.63-.07,14.18-6.62,14.18-14.18.07-7.5-6.48-14.05-14.05-14.05ZM927.96,37.32c-7.02,0-11.05-5.09-11.12-13.1.07-8.01,4.1-13.24,11.12-13.24,7.02,0,11.05,5.23,11.05,13.3-.13,7.94-4.03,13.03-11.05,13.03Z"/>
      <path class="cls-1" d="M897.4,10.91c1.43.57,2.58,1.24,2.58,2.48v21.49c0,1.24-.46,1.9-1.89,2.48-.26.11-.09.48.17.39,1.15-.38,1.81-.38,3.06-.38,1.15,0,1.91,0,3.06.38.27.09.41-.3.15-.4-1.53-.57-1.96-1.23-1.96-2.47v-10.33s.03-.08.08-.08h3.27c1.24,0,1.91,1.23,2.38,2.66.11.32.57.19.47-.11-.48-1.15-.47-1.88-.47-3.12,0-1.05,0-1.81.48-3.06.1-.26-.36-.43-.48-.08-.48,1.43-1.15,2.75-2.38,2.75h-3.27s-.08-.03-.08-.08v-11.4s.03-.08.08-.08h2.98c3.08,0,4.34,1.1,5.92,4.97.12.29.57.09.43-.19-.74-1.49-1.26-3.97-1.29-6.13,0-.27-.19-.46-.43-.46-.45,0-.75.86-2.52.86h-6.97c-1.24,0-2.01-.19-3.16-.48-.29-.1-.38.29-.19.38Z"/>
      <path class="cls-1" d="M967.7,10.53c-1.15.38-1.91.48-3.06.48-1.24,0-1.91-.1-3.15-.48-.31-.09-.45.36-.14.46,1.43.48,2.82,1.26,2.82,2.4v20.44l-16.52-22.64c-.38-.48-.67-.67-1.43-.67-1.15,0-1.89,0-3.03-.37-.27-.09-.39.32-.13.41,1.62.57,2.97,2.06,2.97,3.5v20.82c0,1.24-1.27,2.01-2.7,2.49-.25.08-.13.45.12.37,1.24-.38,1.91-.38,3.15-.38,1.15,0,1.91,0,3.06.38.25.08.36-.29.12-.37-1.43-.48-2.79-1.25-2.79-2.49V14.92l16.62,22.83c.48.67,1.62.48,1.62-.29V13.39c0-1.15,1.2-1.93,2.63-2.41.3-.1.16-.56-.15-.46Z"/>
      <path class="cls-1" d="M932,138c-5.8-1.8-11.4-7.4-15-14.8l-54.2-112.2c-.6-1.2-2.2-1.2-2.8,0l-48.6,112.2c-3.2,7.2-8.8,12.4-16.2,14.8-1.2.4-.6,2.4.4,2,5.8-1.8,9-2,14.6-2s9,.2,14.6,2c1.2.4,1.8-1.6.6-2-10.8-3.6-14.2-8.6-11-16l19-44h51l22,45.4c3.4,7.2,4,11.8-4.6,14.6-1.2.4-.6,2.4.6,2,5.6-1.8,9-2,14.6-2s8.8.2,14.6,2c1,.4,1.6-1.6.4-2ZM834.6,75.6l23-53.2,25.6,53.2h-48.6Z"/>
      <path class="cls-1" d="M571.6,137.6c-7.8-2.4-11.6-7.2-12.2-12.4l-11.8-95.8c-1.2-9.6,2.2-14.6,10.8-17.2,1.4-.4.8-2.8-.8-2.2-5.2,1.4-8.2,1.8-13.2,1.8-.6,0-1.4.4-1.6,1l-44.8,111.8h-.4l-50.2-111.4c-.4-.8-.8-1.4-2-1.4-5.2,0-8.4-.4-13.2-1.8-1.4-.6-2.2,1.6-.8,2.2,8,3.4,12.4,9.4,11.4,17.6l-5.4,43.8c-4.4,35-32,65.2-59.4,65.2-16.2,0-26-10.4-26-27.6s9.4-21,9.4-31.2h2.8c22.8,0,39.4-12.8,39.4-30.6,0-13.4-9.4-25.2-22.8-32.4,5.2-3,10.6-4.6,16.4-4.6,1.6,0,1.6-2.4,0-2.4-7.8,0-14.8,1.4-21.4,4.6-7-3-15-4.6-23.2-4.6-27.6,0-50.4,18.2-50.4,40.4,0,5.8,1.8,9.6,5.2,9.6,2,0,3.6-1.6,3.6-3.6,0-3.4-4.2-4.8-4.2-11.8,0-16.4,22.2-32.2,44.6-32.2,7,0,14,1.6,20,4.6-10,6-19.8,16.4-30.8,32.2l-35.4,50.8c-19,26.8-35,38.8-52.6,38.8-5.2,0-10.8-1-15.8-3.2,22.6-10.8,39-34.2,39-59.8,0-35.2-31.4-65.8-65.8-65.8-4.8,0-9.2.6-13.4,1.4-1.2-6.4-7.4-11.4-14.8-11.4-4.6,0-7.2,1.8-7.2,4.6,0,2.2,1.6,3.8,3.8,3.8,3.4,0,5.2-4,8.8-4,3.2,0,6.4,3,7,7.4-12.8,3.2-24.4,10.2-33.4,19.8-10.4-.6-22.2-4.2-41-11.6-19-7.6-27.8-10-37.2-10C76.4,3.6,68,0,58.8,0,40.2,0,23.4,15,23.4,36c0,6.4,1.6,10,4.8,10,2,0,3.6-1.6,3.6-3.6,0-3.4-4.6-4.8-4.6-12.6,0-13.8,14.8-27.4,31.8-27.4,7.8,0,15,2.8,20,7.6-19.2,0-33,11.2-33,27,0,12.2,8.4,21,20,21,13.8,0,26-12.4,26-27,0-6.8-2.6-13.6-7.4-18.6,7.2,0,17.6,3,34.2,9.8,17.6,7,29.8,10.6,40,11.6-10,11.6-16.2,26.2-16.2,42,0,35,31.2,66.2,67,66.2,9,0,16.4-2,24.2-5.2,6.6,3.2,14.4,5.2,23.2,5.2,21.8,0,38.8-12.4,62.6-46l42-60c4.8-7,9.8-12.4,14.8-16.2,10.4,6.8,17.2,17.8,17.2,30.2,0,14.8-10,27-22.8,27-8.8,0-9-5.8-13.4-5.8-2.6,0-4.4,1.8-4.4,4.2,0,1.6.8,2.8,2.6,3.6,2,1,3,2.4,3,3.8,0,5.4-16.6,12-16.6,29.6s14.8,29.6,33.8,29.6c25,0,49.4-21.8,59.4-50.2l-4,32.2c-.8,6-4.8,10-14.6,13.6-1.6.6-.6,2.8.6,2.4,4-1.4,8.6-2,14.2-2s10.4.6,14.4,2c1.2.4,1.8-2,.6-2.4-9.2-2.4-13.6-7.2-12.8-13.4l11.6-94,46.4,104c1,2.2,4.4,2.2,5.2,0l41.4-103.6,11.4,94c.6,5.6-2,10.6-9.6,13-1.6.4-.6,2.8.6,2.4,3.8-1.4,8.2-2,15-2s11.4.6,15.4,2c1.2.4,2.2-2,.6-2.4ZM86.4,28c0,15-9.8,27.4-21.4,27.4-9,0-16.2-7.6-16.2-18.4,0-15,14-25.6,32.2-24.6,3.8,4.8,5.4,9.6,5.4,15.6ZM194.4,14.8c-1,8.6-11.8,15.4-25.8,16.6,6.6-8.2,15.4-13.8,25.8-16.6ZM209.6,139.2c-33.2,0-55-25.2-55-63.2,0-17,4.4-31.2,12-42,16.6-.8,29.8-9.2,30.2-19.8,4-.8,8-1.4,13-1.4,31.8,0,54,24.6,54,62.4,0,10.2-1.6,19.4-4.4,27.6-2.6-9-11.2-16.8-22-16.8-12.6,0-22.6,10.4-22.6,23.8,0,10.4,6,19.4,15.6,25.2-6.4,2.8-13,4.2-20.8,4.2ZM233.2,133.8c-9.2-5-16-13.6-16-24.2,0-12,9-21.2,20.4-21.2,10.6,0,18,8.2,18,18.2s-8,20.2-22.4,27.2Z"/>
      <path class="cls-1" d="M824.6,14c5.8,0,7.2,4.8,11.2,4.8,2.4,0,4-1.8,4-4.2,0-3.2-3-4.6-9-4.6-18.6,0-37.2,14.4-60.8,48.4l-22.6,32.4c-24.8,35.4-38.8,48-57.4,48-6,0-11.8-1.2-17.2-3.4,22.4-11,38.6-34,38.6-59.6,0-35.2-30.8-65.8-66.6-65.8s-66.6,30.4-66.6,65.8,30.8,66.2,66.4,66.2c8.6,0,17-1.8,24.8-5.2,6.6,3.2,14.8,5.2,23.4,5.2,23.6,0,42.4-15.2,72-57.4l22-31.4c21.2-30.4,30.4-39.2,37.8-39.2ZM644.4,139.2c-33,0-54.2-25.2-54.2-63.2s21.4-63.2,54.6-63.2,54.6,24.6,54.6,62.2c0,10.4-1.6,19.6-4.4,27.8-2.6-9-11.2-16.8-22-16.8-12.6,0-22.6,10.4-22.6,23.6,0,10.6,6.2,19.6,15.8,25.4-6.4,2.8-13.8,4.2-21.8,4.2ZM668.8,133.8c-9.2-5-16-13.6-16-24.2,0-12,9-21.2,20.4-21.2,10.6,0,18,8.2,18,18.2s-8,20.2-22.4,27.2Z"/>
      <path class="cls-1" d="M141.6,36c-17,0-28.2,7-41.4,26l-11,15.6c-13.4,0-21,2.4-27.2,9,0-11.8-10-20.6-23.6-20.6C18.2,66,0,85.8,0,107.6c0,19.8,14.8,34.4,34.8,34.4,16.4,0,28.2-9.8,50.6-42l14-20h9c6.2,0,8.8,5.4,6.6,13.2-.4,1.4,2,2,2.4.6l4.6-18.6c.4-1.4-1.4-2.2-2.2-.8-1.2,2-4.6,3.2-9.4,3.2h-9.2l13.4-19.6c10-14.6,17-19.6,27-19.6,1.6,0,1.6-2.4,0-2.4ZM63.6,114c-12.6,17.8-21.4,24.6-32.4,24.6-15.8,0-28.4-14.2-28.4-31.8,0-20.2,16.8-38.4,35.4-38.4,11.8,0,17.8,7.4,17.8,16.8s-6,18.8-12.4,18.8c-4.2,0-5.8-4.4-9.2-4.4-2,0-3.6,1.6-3.6,3.8,0,2.8,2.6,4.6,7,4.6,8.2,0,17.4-6,22.6-15,5.2-9.2,13.2-13,27.2-13l-24,34Z"/>
    </g>
  </g>
</svg>