<?xml version="1.0" encoding="UTF-8"?>
<svg id="Layer_2" data-name="Layer 2" xmlns="http://www.w3.org/2000/svg" viewBox="0 0 28 28">
  <defs>
    <style>
      .cls-1 {
        fill: #2d2d2d;
      }
    </style>
  </defs>
  <g id="Layer_1-2" data-name="Layer 1">
    <g>
      <polygon class="cls-1" points="15.11 6.87 12.89 4.9 4.83 14 12.89 23.1 15.11 21.13 10.1 15.48 22.22 15.48 22.22 12.52 10.1 12.52 15.11 6.87"/>
      <path class="cls-1" d="M14,0C6.28,0,0,6.28,0,14s6.28,14,14,14,14-6.28,14-14S21.72,0,14,0ZM14,26.52c-6.9,0-12.52-5.62-12.52-12.52S7.1,1.48,14,1.48s12.52,5.62,12.52,12.52-5.62,12.52-12.52,12.52Z"/>
    </g>
  </g>
</svg>