<?xml version="1.0" encoding="UTF-8"?>
<svg id="Layer_2" data-name="Layer 2" xmlns="http://www.w3.org/2000/svg" viewBox="0 0 234.36 234.36">
  <defs>
    <style>
      .cls-1 {
        fill: #ccc;
      }

      .cls-2 {
        fill: #0a0a0a;
      }
    </style>
  </defs>
  <g id="Layer_1-2" data-name="Layer 1">
    <circle class="cls-1" cx="117.18" cy="117.18" r="117.18"/>
    <g>
      <path class="cls-2" d="M105.48,50.05l-1.23-11.45,3.59-.39c.11-.01.3-.03.59-.06.29-.03.57-.03.84-.03.91.02,1.7.25,2.37.72.67.46,1.2,1.09,1.6,1.87s.65,1.66.76,2.63c.1.98.04,1.89-.18,2.74s-.62,1.57-1.17,2.16c-.56.59-1.28.99-2.16,1.2-.26.07-.54.12-.82.15-.29.04-.49.06-.59.07l-3.59.38ZM107.02,48.28l1.89-.2c.18-.02.39-.05.64-.08.25-.04.47-.08.65-.13.57-.17,1.02-.48,1.34-.91.32-.43.54-.95.64-1.55.11-.6.13-1.22.06-1.87-.07-.67-.23-1.29-.46-1.84-.24-.56-.56-1.01-.96-1.36-.41-.35-.9-.55-1.48-.59-.19-.02-.42-.02-.67,0-.25.02-.47.04-.64.06l-1.89.2.89,8.29Z"/>
      <path class="cls-2" d="M116.29,49.1l.44-11.51,7.36.28-.06,1.58-5.68-.22-.12,3.23,4.72.18-.06,1.58-4.72-.18-.14,3.56,5.68.22-.06,1.58-7.35-.28Z"/>
      <path class="cls-2" d="M129.09,50.48c-.81-.14-1.52-.41-2.13-.81-.6-.4-1.07-.89-1.4-1.49s-.5-1.27-.5-2.01l1.76.04c.05.72.32,1.33.8,1.81.48.48,1.09.79,1.83.92.46.08.89.08,1.3,0s.75-.23,1.04-.46.46-.53.52-.91c.04-.2.03-.39,0-.56-.04-.17-.12-.32-.22-.46-.1-.14-.23-.27-.39-.39-.16-.12-.34-.23-.54-.33l-2.76-1.37c-.27-.13-.54-.29-.81-.48-.27-.19-.51-.41-.71-.67-.21-.26-.36-.57-.45-.92-.1-.35-.1-.76-.02-1.22.12-.7.41-1.26.85-1.68s1-.71,1.65-.85c.66-.14,1.37-.15,2.13-.01.77.15,1.43.4,1.99.77s1,.83,1.31,1.4c.31.56.49,1.21.52,1.93h-1.82c0-.45-.11-.85-.31-1.2s-.48-.64-.82-.88c-.34-.23-.73-.39-1.17-.47-.42-.08-.81-.09-1.19-.01-.37.08-.69.22-.94.43-.25.21-.4.48-.46.8-.05.32,0,.59.14.81.15.23.35.42.6.58.25.16.5.3.76.42l1.99.96c.25.12.53.27.84.45.31.18.61.41.88.69s.48.61.62,1.02c.14.4.16.88.07,1.43-.1.57-.3,1.05-.61,1.45-.31.39-.69.7-1.14.92s-.96.36-1.51.41-1.12.03-1.7-.07Z"/>
      <path class="cls-2" d="M135.17,51.6l3.19-11.07,1.61.46-3.19,11.07-1.61-.46Z"/>
      <path class="cls-2" d="M143.28,54.66c-.71-.3-1.32-.7-1.82-1.2-.5-.5-.87-1.08-1.11-1.74-.24-.66-.34-1.39-.3-2.17.04-.79.24-1.62.61-2.49.48-1.15,1.1-2.04,1.86-2.69s1.61-1.04,2.54-1.18c.93-.13,1.88,0,2.85.41,1.25.52,2.13,1.23,2.63,2.12.5.89.67,1.91.52,3.04l-1.68-.37c.05-.73-.09-1.38-.41-1.96-.32-.58-.85-1.03-1.58-1.33-.75-.32-1.45-.42-2.09-.28-.64.13-1.22.45-1.72.96s-.93,1.17-1.28,1.98-.52,1.57-.52,2.28c0,.71.18,1.34.54,1.9.36.55.92.99,1.67,1.3.6.26,1.17.37,1.7.32s1.02-.25,1.47-.6.84-.83,1.19-1.46l-2.07-.87.52-1.24,3.71,1.55c-.03.09-.07.21-.12.36-.06.15-.09.24-.11.28-.41.98-.97,1.78-1.67,2.4-.7.61-1.51.99-2.41,1.13s-1.88,0-2.9-.44Z"/>
      <path class="cls-2" d="M149.49,57.2l6.14-9.75,1.43.9.24,10.27,4.56-7.24,1.44.9-6.14,9.75-1.43-.9-.23-10.27-4.57,7.25-1.44-.9Z"/>
      <path class="cls-2" d="M161.72,65.84l7.66-8.6,1.25,1.11-7.66,8.6-1.25-1.11Z"/>
      <path class="cls-2" d="M164.7,68.38l8.56-7.71,1.13,1.26-2.57,9.94,6.36-5.72,1.13,1.26-8.56,7.71-1.13-1.26,2.58-9.95-6.37,5.73-1.13-1.26Z"/>
      <path class="cls-2" d="M175.5,82.24l8.58-5.02-1.93-3.31,1.36-.79,4.71,8.06-1.36.79-1.93-3.31-8.58,5.02-.84-1.44Z"/>
      <path class="cls-2" d="M178.75,87.99l10.71-4.24.62,1.55-4.62,1.83,2.12,5.36,4.62-1.83.62,1.56-10.71,4.24-.62-1.56,4.63-1.83-2.12-5.36-4.63,1.83-.62-1.55Z"/>
      <path class="cls-2" d="M182.65,98.47l11.22-2.59,1.65,7.17-1.54.35-1.28-5.54-3.15.73,1.06,4.61-1.54.35-1.06-4.61-3.47.8,1.28,5.54-1.54.35-1.65-7.17Z"/>
      <path class="cls-2" d="M184.99,110.15l11.63,3.39.07,2.41-11.4,4.09-.05-1.73,10.4-3.76v.43s-10.6-3.09-10.6-3.09l-.05-1.73ZM187.65,112.02l1.57-.05.18,6.01-1.57.05-.18-6.01Z"/>
      <path class="cls-2" d="M184.42,125.53c.09-.77.31-1.46.66-2.07s.81-1.13,1.38-1.54c.57-.41,1.24-.71,2.01-.88.77-.17,1.62-.2,2.56-.09,1.23.15,2.27.51,3.1,1.07.83.56,1.44,1.27,1.82,2.12.38.86.51,1.81.38,2.85-.17,1.34-.61,2.38-1.33,3.1-.72.73-1.65,1.17-2.79,1.32l-.1-1.72c.71-.15,1.3-.46,1.77-.93.47-.47.76-1.09.86-1.88.1-.81,0-1.5-.29-2.09-.3-.58-.76-1.05-1.39-1.4s-1.38-.58-2.25-.7-1.65-.07-2.34.12c-.69.19-1.25.53-1.68,1.03s-.7,1.15-.8,1.96c-.09.65-.04,1.22.16,1.72.19.5.52.92.97,1.25s1.03.59,1.73.75l.27-2.22,1.33.16-.49,3.99c-.1,0-.22,0-.38-.02-.16-.01-.26-.02-.3-.03-1.06-.13-1.98-.45-2.76-.96s-1.36-1.18-1.74-2.02c-.38-.84-.5-1.81-.36-2.91Z"/>
      <path class="cls-2" d="M183.6,132.18l11.09,3.12-1.99,7.08-1.52-.43,1.54-5.48-3.11-.88-1.28,4.55-1.52-.43,1.28-4.55-3.43-.96-1.54,5.48-1.52-.43,1.99-7.08Z"/>
      <path class="cls-2" d="M177.27,148.46c.53-1.02,1.21-1.77,2.03-2.26s1.73-.71,2.73-.67c1,.04,2.02.33,3.08.88s1.88,1.23,2.48,2.02c.6.8.94,1.67,1.01,2.62.07.95-.16,1.94-.69,2.96-.53,1.02-1.21,1.77-2.03,2.26s-1.73.71-2.73.67-2.02-.33-3.08-.88c-1.05-.55-1.88-1.22-2.48-2.02-.6-.8-.94-1.67-1.01-2.62s.16-1.94.69-2.96ZM178.68,149.19c-.39.72-.54,1.4-.46,2.05.08.65.35,1.25.81,1.8.46.55,1.08,1.03,1.86,1.43.78.41,1.52.64,2.23.71.71.06,1.35-.06,1.93-.37.58-.31,1.06-.82,1.44-1.54.39-.72.54-1.4.47-2.05s-.35-1.25-.81-1.8-1.09-1.03-1.86-1.44-1.52-.65-2.23-.71c-.71-.06-1.35.06-1.93.38-.58.31-1.06.83-1.44,1.55Z"/>
      <path class="cls-2" d="M174.02,154.57l9.33,6.76-4.01,5.52-1.35-.98,3.03-4.17-2.63-1.91-2.46,3.39-1.36-.99,2.46-3.39-3.98-2.89.98-1.35Z"/>
    </g>
    <g>
      <path class="cls-2" d="M74.75,40.76l-4.76-8.73-3.37,1.83-.75-1.38,8.2-4.47.75,1.38-3.37,1.83,4.76,8.73-1.47.8Z"/>
      <path class="cls-2" d="M80.68,37.62l-4.27-10.7,1.55-.62,1.84,4.62,5.35-2.13-1.84-4.62,1.56-.62,4.27,10.7-1.56.62-1.84-4.62-5.35,2.13,1.84,4.62-1.55.62Z"/>
      <path class="cls-2" d="M91.17,33.64l-2.98-11.13,7.11-1.91.41,1.52-5.49,1.47.84,3.12,4.57-1.22.41,1.52-4.57,1.22.92,3.44,5.49-1.47.41,1.52-7.11,1.9Z"/>
      <path class="cls-2" d="M103.69,30.71l-1.26-11.45,4.63-.51c.11-.01.25-.02.42-.03.17-.01.32,0,.47,0,.65.03,1.2.19,1.67.48s.83.67,1.1,1.16c.27.49.44,1.04.5,1.65.07.62.02,1.2-.13,1.73s-.43.99-.82,1.37c-.39.38-.9.66-1.52.83-.15.04-.3.07-.47.1-.17.03-.3.05-.41.06l-2.97.33.45,4.11-1.66.18ZM104.73,24.84l2.9-.32c.11-.01.22-.03.35-.05.13-.03.25-.06.36-.1.33-.12.59-.29.77-.53.18-.24.3-.5.36-.79s.07-.58.04-.86c-.03-.28-.11-.56-.23-.82-.12-.27-.3-.5-.53-.69-.23-.19-.52-.31-.87-.35-.12-.02-.25-.03-.38-.02s-.25.01-.36.02l-2.9.32.46,4.2Z"/>
      <path class="cls-2" d="M113.41,29.7l.19-11.52,4.66.08c.11,0,.25,0,.42.02.17,0,.32.03.47.06.64.11,1.17.34,1.59.68s.74.77.94,1.29c.21.52.3,1.08.29,1.7-.02.92-.26,1.7-.74,2.36-.48.66-1.19,1.06-2.13,1.21l-.68.07-3.26-.05-.07,4.14-1.67-.03ZM115.18,24l2.92.05c.11,0,.23,0,.36-.01s.25-.03.37-.05c.34-.07.62-.22.83-.43.21-.21.37-.46.46-.74.09-.28.14-.56.15-.85,0-.28-.04-.56-.12-.85-.09-.28-.23-.53-.44-.75-.21-.22-.48-.37-.82-.46-.12-.03-.24-.06-.37-.07-.13-.01-.25-.02-.36-.02l-2.92-.05-.07,4.22ZM120.15,29.81l-2.2-4.72,1.69-.4,2.41,5.16-1.91-.03Z"/>
      <path class="cls-2" d="M123.11,29.82l5.14-10.97,2.39.3,2.29,11.89-1.72-.21-2.12-10.86.43.05-4.68,10.01-1.72-.21ZM125.36,27.48l.19-1.56,5.97.74-.19,1.56-5.97-.74Z"/>
      <path class="cls-2" d="M138.43,32.62c-1.12-.28-2.01-.76-2.67-1.45-.66-.69-1.09-1.52-1.29-2.5s-.15-2.04.14-3.2c.29-1.15.75-2.12,1.39-2.89.64-.77,1.41-1.3,2.32-1.59.91-.29,1.92-.3,3.04-.02,1.29.32,2.27.92,2.96,1.78.68.86,1.05,1.89,1.11,3.07l-1.76.03c-.02-.84-.25-1.55-.7-2.13-.45-.58-1.11-.99-1.99-1.21-.79-.2-1.5-.18-2.11.04-.62.23-1.14.62-1.57,1.2-.43.57-.75,1.29-.96,2.14-.22.85-.28,1.63-.17,2.34s.38,1.31.82,1.8c.44.49,1.06.83,1.85,1.03.88.22,1.66.18,2.33-.13.67-.31,1.21-.82,1.62-1.54l1.53.85c-.61,1.02-1.42,1.75-2.42,2.19-1.01.44-2.16.5-3.45.18Z"/>
      <path class="cls-2" d="M147.49,35.17l3.55-9.29-3.58-1.37.56-1.47,8.72,3.33-.56,1.47-3.58-1.37-3.55,9.29-1.56-.6Z"/>
      <path class="cls-2" d="M153.84,37.82l4.95-10.4,1.51.72-4.95,10.4-1.51-.72Z"/>
      <path class="cls-2" d="M161.55,42.16c-.99-.59-1.71-1.3-2.15-2.15s-.62-1.77-.53-2.76c.09-.99.44-2,1.04-3.03s1.32-1.81,2.15-2.37,1.72-.85,2.67-.87c.95-.02,1.93.26,2.92.85,1.14.68,1.92,1.53,2.33,2.55.41,1.02.47,2.11.18,3.26l-1.69-.47c.22-.81.2-1.55-.06-2.24-.26-.69-.78-1.26-1.57-1.73-.7-.42-1.38-.6-2.04-.57-.66.04-1.27.27-1.84.7-.57.43-1.08,1.02-1.53,1.78-.45.75-.73,1.49-.83,2.19s0,1.36.27,1.96c.28.59.77,1.1,1.48,1.52.79.46,1.54.64,2.27.54s1.39-.44,1.99-1.02l1.23,1.26c-.87.8-1.86,1.27-2.95,1.41s-2.21-.14-3.35-.81Z"/>
      <path class="cls-2" d="M167.28,45.49l6.98-9.16,5.85,4.46-.96,1.25-4.52-3.45-1.96,2.57,3.76,2.87-.96,1.25-3.76-2.87-2.16,2.83,4.52,3.45-.96,1.25-5.85-4.46Z"/>
      <path class="cls-2" d="M180.42,57.23c-.79-.84-1.29-1.72-1.48-2.66-.19-.93-.11-1.87.25-2.8.36-.93.97-1.81,1.83-2.63.86-.82,1.77-1.38,2.72-1.69s1.89-.34,2.81-.1,1.78.78,2.57,1.62c.79.83,1.28,1.72,1.48,2.65.19.94.11,1.87-.25,2.8s-.97,1.8-1.83,2.62c-.86.82-1.77,1.38-2.72,1.69-.95.31-1.88.34-2.81.1-.93-.24-1.78-.78-2.57-1.61ZM181.57,56.14c.55.6,1.15.97,1.79,1.11s1.3.08,1.97-.18,1.32-.69,1.96-1.3,1.1-1.23,1.39-1.88c.29-.65.38-1.3.28-1.94-.11-.65-.44-1.27-.99-1.86-.55-.6-1.15-.97-1.79-1.11-.64-.14-1.29-.08-1.97.18s-1.33.69-1.97,1.29c-.64.6-1.11,1.23-1.4,1.88-.29.65-.38,1.3-.27,1.95.11.65.44,1.27,1,1.87Z"/>
      <path class="cls-2" d="M185.26,62.32l9.21-6.93,4.1,5.45-1.34,1-3.1-4.12-2.6,1.95,2.52,3.35-1.34,1.01-2.52-3.35-3.93,2.96-1-1.34Z"/>
    </g>
    <g>
      <path class="cls-2" d="M103.7,108.17l-3.74-11.52h1.74l3.19,9.83,3.23-9.83h1.74l-3.74,11.52h-2.41Z"/>
      <path class="cls-2" d="M111.34,108.17v-11.52h1.67v11.52h-1.67Z"/>
      <path class="cls-2" d="M119.66,108.41c-.83,0-1.57-.14-2.24-.43-.66-.29-1.21-.69-1.64-1.22-.43-.53-.71-1.16-.84-1.89l1.74-.26c.18.7.54,1.25,1.1,1.64.56.39,1.21.59,1.96.59.46,0,.89-.07,1.28-.22.39-.15.7-.36.94-.63.24-.27.36-.6.36-.99,0-.21-.04-.39-.11-.55-.07-.16-.17-.3-.3-.42-.13-.12-.28-.22-.46-.31s-.38-.16-.59-.23l-2.95-.87c-.29-.09-.58-.2-.88-.33-.3-.14-.57-.32-.82-.54-.25-.22-.45-.5-.6-.82-.16-.33-.23-.73-.23-1.2,0-.71.18-1.31.55-1.8s.86-.87,1.48-1.12c.62-.25,1.32-.38,2.1-.38.78.01,1.48.15,2.09.42.62.27,1.13.65,1.54,1.15.41.5.69,1.1.84,1.81l-1.79.3c-.08-.43-.25-.8-.51-1.12-.26-.31-.58-.55-.96-.72s-.79-.25-1.23-.26c-.43-.01-.82.05-1.17.19-.35.14-.64.33-.85.58-.21.25-.32.54-.32.86s.09.58.28.78.42.35.69.47c.27.12.55.21.82.28l2.13.6c.27.08.57.17.91.3.34.12.67.3.98.52.32.22.58.52.79.89.21.37.31.84.31,1.4s-.12,1.09-.35,1.53c-.23.44-.56.81-.96,1.1s-.88.52-1.41.67c-.53.15-1.1.22-1.69.22Z"/>
      <path class="cls-2" d="M130.53,108.41c-.9,0-1.7-.19-2.39-.56-.69-.37-1.23-.89-1.62-1.56s-.58-1.46-.58-2.36v-7.27h1.7s0,7.18,0,7.18c0,.49.08.92.25,1.3.17.37.39.69.66.94.28.25.59.44.93.57s.69.19,1.05.19.72-.07,1.06-.2.65-.32.93-.57c.28-.25.5-.56.66-.94s.24-.8.24-1.29v-7.19h1.7v7.28c0,.9-.2,1.69-.58,2.36-.39.67-.93,1.19-1.62,1.56-.69.37-1.49.56-2.39.56Z"/>
      <path class="cls-2" d="M136.23,108.17l3.74-11.52h2.41l3.74,11.52h-1.74l-3.45-10.51h.43l-3.41,10.51h-1.74ZM138.17,105.57v-1.57h6.02v1.57h-6.02Z"/>
      <path class="cls-2" d="M147.78,108.17v-11.52h1.67v9.94h5.22v1.58h-6.89Z"/>
      <path class="cls-2" d="M47.36,126.19v-11.52h7.36v1.58h-5.69v3.23h4.73v1.58h-4.73v3.56h5.69v1.58h-7.36Z"/>
      <path class="cls-2" d="M56.07,126.19l3.93-5.83-3.82-5.69h2.05l2.81,4.27,2.79-4.27h2.06l-3.82,5.69,3.92,5.83h-2.05l-2.9-4.41-2.9,4.41h-2.06Z"/>
      <path class="cls-2" d="M67.47,126.19v-11.52h4.66c.11,0,.25,0,.42.01s.32.03.47.05c.64.1,1.17.32,1.6.66.43.34.75.76.96,1.27.21.51.32,1.08.32,1.7s-.11,1.19-.32,1.7c-.21.51-.54.94-.96,1.27-.43.34-.96.56-1.6.66-.15.02-.31.04-.48.05s-.31.02-.41.02h-2.98v4.14h-1.67ZM69.14,120.47h2.92c.11,0,.23,0,.36-.02s.25-.03.37-.06c.34-.08.62-.23.82-.44.21-.22.36-.46.45-.75.09-.28.14-.56.14-.85s-.05-.56-.14-.84c-.09-.28-.24-.53-.45-.74s-.48-.36-.82-.44c-.12-.03-.24-.05-.37-.06s-.25-.02-.36-.02h-2.92v4.22Z"/>
      <path class="cls-2" d="M77.64,126.19v-11.52h1.67v9.94h5.22v1.58h-6.89Z"/>
      <path class="cls-2" d="M90.62,126.43c-1.15,0-2.13-.25-2.94-.76s-1.43-1.21-1.86-2.11c-.43-.9-.64-1.95-.64-3.14s.21-2.23.64-3.14c.43-.9,1.05-1.6,1.86-2.11s1.79-.76,2.94-.76,2.13.25,2.94.76c.81.5,1.43,1.21,1.86,2.11.43.9.64,1.95.64,3.14s-.21,2.23-.64,3.14-1.05,1.6-1.86,2.11c-.81.5-1.79.76-2.94.76ZM90.62,124.84c.82.01,1.5-.17,2.04-.54.54-.37.95-.89,1.22-1.55.27-.66.41-1.44.41-2.32s-.14-1.65-.41-2.31c-.27-.66-.68-1.17-1.22-1.54-.54-.37-1.22-.55-2.04-.56-.82-.01-1.5.17-2.04.54s-.95.88-1.22,1.55c-.27.67-.41,1.44-.42,2.32,0,.88.13,1.65.4,2.31.27.66.68,1.17,1.23,1.54s1.23.55,2.04.56Z"/>
      <path class="cls-2" d="M97.96,126.19v-11.52h4.66c.11,0,.25,0,.42.01.17,0,.32.03.47.05.64.1,1.17.32,1.6.66.43.34.75.76.96,1.27.21.51.32,1.08.32,1.7,0,.92-.23,1.71-.7,2.37s-1.17,1.08-2.11,1.24l-.68.08h-3.26v4.14h-1.67ZM99.63,120.47h2.92c.11,0,.22,0,.36-.02s.25-.03.37-.06c.34-.08.62-.23.82-.44.21-.22.36-.46.45-.75.09-.28.14-.56.14-.85s-.04-.56-.14-.84c-.09-.28-.24-.53-.45-.74s-.48-.36-.82-.44c-.12-.03-.24-.05-.37-.06s-.25-.02-.36-.02h-2.92v4.22ZM104.69,126.19l-2.27-4.69,1.69-.43,2.5,5.12h-1.91Z"/>
      <path class="cls-2" d="M107.95,126.19l3.74-11.52h2.41l3.74,11.52h-1.74l-3.45-10.51h.43l-3.41,10.51h-1.74ZM109.89,123.59v-1.57h6.02v1.57h-6.02Z"/>
      <path class="cls-2" d="M121.18,126.19v-9.94h-3.83v-1.58h9.34v1.58h-3.83v9.94h-1.67Z"/>
      <path class="cls-2" d="M128.26,126.19v-11.52h1.67v11.52h-1.67Z"/>
      <path class="cls-2" d="M137.39,126.43c-1.15,0-2.13-.25-2.94-.76s-1.43-1.21-1.86-2.11c-.43-.9-.64-1.95-.64-3.14s.21-2.23.64-3.14c.43-.9,1.05-1.6,1.86-2.11s1.79-.76,2.94-.76,2.13.25,2.94.76,1.43,1.21,1.86,2.11c.43.9.64,1.95.64,3.14s-.21,2.23-.64,3.14-1.05,1.6-1.86,2.11-1.79.76-2.94.76ZM137.39,124.84c.82.01,1.49-.17,2.04-.54.54-.37.95-.89,1.22-1.55.27-.66.41-1.44.41-2.32s-.14-1.65-.41-2.31c-.27-.66-.68-1.17-1.22-1.54-.54-.37-1.22-.55-2.04-.56-.82-.01-1.5.17-2.04.54-.54.37-.95.88-1.22,1.55-.27.67-.41,1.44-.42,2.32,0,.88.13,1.65.4,2.31.27.66.68,1.17,1.23,1.54.55.37,1.23.55,2.04.56Z"/>
      <path class="cls-2" d="M144.73,126.19v-11.52h1.7l5.67,8.56v-8.56h1.7v11.52h-1.7l-5.67-8.57v8.57h-1.7Z"/>
    </g>
    <circle class="cls-2" cx="65.05" cy="182.44" r="15.86"/>
    <polygon class="cls-1" points="73.05 182.07 65.42 182.07 65.42 174.44 64.67 174.44 64.67 182.07 57.05 182.07 57.05 182.82 64.67 182.82 64.67 190.44 65.42 190.44 65.42 182.82 73.05 182.82 73.05 182.07"/>
  </g>
</svg>