<?xml version="1.0" encoding="UTF-8"?>
<svg id="_圖層_2" data-name="圖層 2" xmlns="http://www.w3.org/2000/svg" viewBox="0 0 384 384">
  <defs>
    <style>
      .cls-1 {
        fill: #a0937e;
      }
    </style>
  </defs>
  <g id="_圖層_1-2" data-name="圖層 1">
    <g>
      <path class="cls-1" d="M192,16c97.05,0,176,78.95,176,176s-78.95,176-176,176S16,289.05,16,192,94.95,16,192,16M192,0C85.96,0,0,85.96,0,192s85.96,192,192,192,192-85.96,192-192S298.04,0,192,0h0Z"/>
      <path class="cls-1" d="M118.37,232.87h20.28c1.25,34.32,23.09,52.73,55.22,52.73s51.17-17.79,51.17-46.8-19.35-44.93-52.73-44.93h-14.98v-16.54h14.66c29.33,0,45.87-15.6,45.87-39.63,0-25.9-19.03-40.56-44.3-40.56-30.89,0-48.36,22.15-48.36,51.17h-19.97c.31-39.31,25.58-67.71,68.95-67.71,35.88,0,63.65,21.53,63.65,57.1,0,24.34-13.1,39-32.14,46.49v.94c27.14,8.74,39.94,27.77,39.94,55.23,0,39-29.33,63.03-71.45,63.03s-75.51-26.52-75.82-70.51Z"/>
    </g>
  </g>
</svg>