<?xml version="1.0" encoding="UTF-8"?>
<svg id="_圖層_2" data-name="圖層 2" xmlns="http://www.w3.org/2000/svg" viewBox="0 0 384 384">
  <defs>
    <style>
      .cls-1 {
        fill: #a0937e;
      }
    </style>
  </defs>
  <g id="_圖層_1-2" data-name="圖層 1">
    <g>
      <path class="cls-1" d="M192,16c97.05,0,176,78.95,176,176s-78.95,176-176,176S16,289.05,16,192,94.95,16,192,16M192,0C85.96,0,0,85.96,0,192s85.96,192,192,192,192-85.96,192-192S298.04,0,192,0h0Z"/>
      <path class="cls-1" d="M193.09,204.95c29.02-17.47,48.98-28.08,48.98-59.28,0-28.7-18.1-45.55-46.18-45.55-14.98,0-27.14,4.68-35.57,13.73-8.43,9.36-13.11,22.46-13.42,42.12h-20.59c0-24.02,6.87-41.5,19.03-53.67,12.79-12.79,31.51-19.34,51.79-19.34,40.25,0,65.52,26.83,65.52,62.09,0,42.75-30.58,57.72-62.09,76.44-24.65,14.66-51.79,31.2-56.16,60.84h115.45v18.72H121.33c.94-54.91,38.06-75.82,71.76-96.1Z"/>
    </g>
  </g>
</svg>