<?xml version="1.0" encoding="UTF-8"?>
<svg id="_圖層_2" xmlns="http://www.w3.org/2000/svg" version="1.1" viewBox="0 0 96 96">
  <!-- Generator: Adobe Illustrator 29.6.1, SVG Export Plug-In . SVG Version: 2.1.1 Build 9)  -->
  <defs>
    <style>
      .st0 {
        fill: #a0937e;
      }
    </style>
  </defs>
  <g id="_圖層_1-2">
    <g>
      <path class="st0" d="M48,0C21.5,0,0,21.5,0,48s21.5,48,48,48,48-21.5,48-48S74.5,0,48,0ZM48,92c-24.3,0-44-19.7-44-44S23.7,4,48,4s44,19.7,44,44-19.7,44-44,44Z"/>
      <path class="st0" d="M56.1,52.8c1.3-1.5,2.5-3,3.6-4.6,1.6-2.2,2.6-4.2,3.2-5.9s.9-3.5.9-5.2-.4-4.3-1.2-6.2c-.8-1.9-1.9-3.5-3.3-4.9-1.4-1.4-3.1-2.5-5.1-3.2s-4.1-1.2-6.4-1.2-4.6.4-6.6,1.2-3.6,1.9-5,3.3c-1.4,1.4-2.5,3.1-3.3,5.1s-1.2,4.1-1.3,6.5h5.8c0-1.5.3-2.9.8-4.2.5-1.3,1.2-2.4,2.1-3.4s2-1.8,3.2-2.3,2.7-.8,4.3-.8c3.1,0,5.6,1,7.5,2.9,1.9,1.9,2.8,4.3,2.8,7.3s-.2,2.2-.5,3.5c-.4,1.3-1.1,2.8-2.3,4.5-.3.5-.7,1-1.3,1.8s-1.1,1.4-1.7,2.2c-.6.7-1.2,1.4-1.8,2.1s-1,1.2-1.3,1.6l-19,21.9h33.6v-5.3h-22l10.8-12.2c1-1.2,2.2-2.6,3.5-4.1Z"/>
    </g>
  </g>
</svg>