<?xml version="1.0" encoding="UTF-8"?>
<svg id="_圖層_2" data-name="圖層 2" xmlns="http://www.w3.org/2000/svg" viewBox="0 0 96 96">
  <defs>
    <style>
      .cls-1 {
        fill: #2d2d2d;
      }
    </style>
  </defs>
  <g id="_圖層_1-2" data-name="圖層 1">
    <g>
      <path class="cls-1" d="M48,0C21.49,0,0,21.49,0,48s21.49,48,48,48,48-21.49,48-48S74.51,0,48,0ZM48,92c-24.26,0-44-19.74-44-44S23.74,4,48,4s44,19.74,44,44-19.74,44-44,44Z"/>
      <path class="cls-1" d="M60.75,49.83c-.81-.96-1.63-1.69-2.46-2.18-.83-.49-1.48-.82-1.95-.97,1.35-.68,2.46-1.48,3.31-2.42.86-.94,1.53-1.92,2.03-2.96.49-1.04.84-2.09,1.05-3.16.21-1.07.31-2.07.31-3,0-1.82-.3-3.56-.9-5.23-.6-1.66-1.51-3.16-2.73-4.49-1.22-1.33-2.76-2.38-4.6-3.16-1.85-.78-3.99-1.17-6.44-1.17-4.21,0-7.62,1.26-10.22,3.78-2.6,2.52-4.03,5.84-4.29,9.95h5.77c.21-2.5,1.07-4.52,2.57-6.08,1.51-1.56,3.56-2.34,6.16-2.34,1.61,0,2.98.25,4.1.74,1.12.49,2.03,1.16,2.73,1.99.7.83,1.22,1.78,1.56,2.85.34,1.07.51,2.17.51,3.31s-.16,2.16-.47,3.04c-.31.88-.69,1.64-1.13,2.26-.44.62-.91,1.13-1.4,1.52-.49.39-.95.69-1.36.9-.83.42-1.77.73-2.81.94-1.04.21-2.08.26-3.12.16v5.15c1.04-.05,2.08.01,3.12.2,1.04.18,1.98.48,2.81.9.99.47,1.82,1.04,2.5,1.72.68.68,1.21,1.42,1.6,2.22.39.81.66,1.63.82,2.46.16.83.23,1.61.23,2.34,0,1.46-.26,2.82-.78,4.09-.52,1.27-1.24,2.39-2.15,3.35-.91.96-1.99,1.72-3.24,2.26s-2.6.82-4.06.82c-2.86,0-5.14-.84-6.82-2.53-1.69-1.69-2.72-3.89-3.08-6.59h-5.77c.1,2.18.56,4.16,1.36,5.93.81,1.77,1.91,3.29,3.31,4.56,1.4,1.27,3.04,2.25,4.91,2.92s3.9,1.01,6.08,1.01,4.33-.36,6.28-1.09c1.95-.73,3.64-1.77,5.07-3.12,1.43-1.35,2.56-2.99,3.39-4.91.83-1.92,1.25-4.11,1.25-6.55,0-2.23-.31-4.12-.94-5.65-.62-1.53-1.34-2.78-2.15-3.74Z"/>
    </g>
  </g>
</svg>