<?xml version="1.0" encoding="UTF-8"?>
<svg id="_圖層_2" data-name="圖層 2" xmlns="http://www.w3.org/2000/svg" viewBox="0 0 384 384">
  <defs>
    <style>
      .cls-1 {
        fill: #a0937e;
      }
    </style>
  </defs>
  <g id="_圖層_1-2" data-name="圖層 1">
    <g>
      <path class="cls-1" d="M192,16c97.05,0,176,78.95,176,176s-78.95,176-176,176S16,289.05,16,192,94.95,16,192,16M192,0C85.96,0,0,85.96,0,192s85.96,192,192,192,192-85.96,192-192S298.04,0,192,0h0Z"/>
      <path class="cls-1" d="M209.39,245.35h-99.84v-18.72l102.65-142.59h16.85v144.46h33.07v16.85h-33.07v54.6h-19.66v-54.6ZM209.39,228.5v-110.45h-.62l-78.94,109.52v.94h79.56Z"/>
    </g>
  </g>
</svg>