<?xml version="1.0" encoding="UTF-8"?>
<svg id="_圖層_1" data-name="圖層_1" xmlns="http://www.w3.org/2000/svg" version="1.1" viewBox="0 0 48 48">
  <!-- Generator: Adobe Illustrator 29.6.1, SVG Export Plug-In . SVG Version: 2.1.1 Build 9)  -->
  <defs>
    <style>
      .st0 {
        fill: #2d2d2d;
      }
    </style>
  </defs>
  <path class="st0" d="M24,44c-2.5,0-4.8-.5-7-1.4s-4.1-2.2-5.7-3.9c-1.6-1.6-2.9-3.5-3.9-5.7-.9-2.2-1.4-4.5-1.4-7h3c0,4.2,1.5,7.7,4.4,10.6,2.9,2.9,6.5,4.4,10.6,4.4s7.7-1.5,10.6-4.4c2.9-2.9,4.4-6.5,4.4-10.6s-1.4-7.7-4.3-10.6-6.3-4.4-10.5-4.4h-1.2l3.7,3.7-2.1,2.1-7.4-7.4,7.4-7.4,2.1,2.1-3.9,3.9h1.2c2.5,0,4.8.5,7,1.4s4.1,2.2,5.7,3.9,2.9,3.5,3.9,5.7,1.4,4.5,1.4,7-.5,4.8-1.4,7c-.9,2.2-2.2,4.1-3.9,5.7s-3.5,2.9-5.7,3.9-4.5,1.4-7,1.4Z"/>
</svg>