<?xml version="1.0" encoding="UTF-8"?>
<svg id="Layer_2" data-name="Layer 2" xmlns="http://www.w3.org/2000/svg" viewBox="0 0 448.06 163.73">
  <defs>
    <style>
      .cls-1 {
        fill: #2d2d2d;
      }

      .cls-2 {
        fill: none;
      }
    </style>
  </defs>
  <g id="Layer_1-2" data-name="Layer 1">
    <g>
      <g>
        <path class="cls-1" d="M378.89,109.1h.85c.89,0,1.15-.05,1.25-.12.04-.02.07-.07.07-.23,0-.34-.23-.76-.92-.76s-1.32.65-1.33,1.04c0,.02,0,.06.08.06Z"/>
        <path class="cls-1" d="M368.2,130.07c0,1.09.49,2.27,1.55,2.27s1.38-1.1,1.38-2.03c0-1.02-.41-2.32-1.55-2.32-.79,0-1.38.76-1.38,2.08Z"/>
        <path class="cls-1" d="M389.06,72.55c.02-1.33-.64-2.06-1.64-2.06-.62,0-1.14.3-1.54.61-.92.76-1.98,2.58-2.03,4.62-.02,1.09.46,2.13,1.74,2.13.54,0,1.22-.19,1.86-.9,1.09-1.21,1.58-2.89,1.61-4.4Z"/>
        <path class="cls-1" d="M389.46,56.4l-1.33,2c-.12.18-.1.22.22.22h1.31c.24,0,.28-.02.29-.29l.11-2.03.02-.77h-.02c-.08.14-.26.38-.59.86Z"/>
        <path class="cls-1" d="M395.75,129.1h.85c.89,0,1.15-.05,1.25-.12.04-.02.07-.07.07-.23,0-.34-.23-.76-.92-.76s-1.32.65-1.33,1.04c0,.02,0,.06.08.06Z"/>
        <path class="cls-1" d="M376.99,130.07c0,1.09.49,2.27,1.55,2.27s1.38-1.1,1.38-2.03c0-1.02-.41-2.32-1.55-2.32-.79,0-1.38.76-1.38,2.08Z"/>
        <path class="cls-1" d="M371.8,110.43c-.07,0-.28.05-.49.12-.71.24-1.06.42-1.06.89,0,.2.14.72.76.72.24,0,.61-.18.73-.3.14-.14.14-.31.16-.56l.02-.71c0-.13-.05-.16-.12-.16Z"/>
        <path class="cls-1" d="M394.69,74.13c1.15,0,2.21-.95,2.22-2.12.01-.76-.4-1.37-1.36-1.37-.46,0-.48.06-.58.37l-.82,2.67c-.13.44-.11.44.53.44Z"/>
        <path class="cls-1" d="M395.99,61.69c1.03,0,2.21-.7,2.21-2.16,0-.95-.68-1.43-1.55-1.43-.53,0-.59.02-.7.38l-.66,2.15c-.24.79.01,1.06.7,1.06Z"/>
        <path class="cls-1" d="M388.86,16.84c.95,0,1.36-.77,1.36-1.7,0-1.02-.67-1.6-1.49-1.6-.5,0-.51.04-.51.43v2c0,.54.03.87.65.87Z"/>
        <path class="cls-1" d="M396.76,57.66c1.02,0,2.21-.59,2.21-1.86,0-.66-.46-1.16-1.32-1.16-.38,0-.47,0-.6.41l-.72,2.28c-.1.29-.06.34.43.34Z"/>
        <path class="cls-1" d="M398.98,110.07c0,1.09.49,2.27,1.55,2.27s1.38-1.1,1.38-2.03c0-1.02-.41-2.32-1.55-2.32-.79,0-1.38.76-1.38,2.08Z"/>
        <path class="cls-1" d="M409.32,112.34c1.06,0,1.38-1.1,1.38-2.03,0-1.02-.41-2.32-1.55-2.32-.79,0-1.38.76-1.38,2.08,0,1.09.49,2.27,1.55,2.27Z"/>
        <path class="cls-1" d="M396.96,15.5h.48c.28,0,.31,0,.23-.21-.16-.39-.33-.84-.42-1.04-.14.32-.23.55-.44,1.09-.05.14-.07.16.16.16Z"/>
        <path class="cls-1" d="M386.19,149.1h.85c.89,0,1.15-.05,1.25-.12.04-.02.07-.07.07-.23,0-.34-.23-.76-.92-.76s-1.32.65-1.33,1.04c0,.02,0,.06.08.06Z"/>
        <path class="cls-1" d="M411.44,23.68v-12.5c0-3.16-2.56-5.73-5.73-5.73h-38.27c-3.16,0-5.73,2.56-5.73,5.73v12.5c-13.45,6.42-22.75,20.15-22.75,36.05v44.26c0,15.9,9.3,29.63,22.75,36.05v12.5c0,3.16,2.56,5.73,5.73,5.73h38.27c3.16,0,5.73-2.56,5.73-5.73v-12.5c13.45-6.42,22.75-20.15,22.75-36.05v-44.26c0-15.9-9.3-29.63-22.75-36.05ZM395.23,16.89l.16-.03c.32-.05.35-.14.64-.8l.87-2.02c.11-.25.14-.38.13-.5.23-.06.54-.32.59-.42.04-.02.04-.02.09-.02.04,0,.07.04.11.12.04.08.1.27.42,1.06l.86,2.13c.15.37.22.42.54.46h.09c.07.05.06.25-.03.27-.27-.02-.57-.03-.93-.03-.34,0-.61,0-.9.03-.09-.03-.11-.2-.03-.26l.15-.04c.16-.04.22-.07.15-.24l-.21-.58c-.06-.19-.08-.19-.32-.19h-.85c-.18,0-.19,0-.26.19l-.16.43c-.12.31-.09.38.1.4l.22.03c.06.05.04.23-.04.26-.3-.02-.52-.03-.77-.03-.26,0-.5,0-.62.03-.09-.04-.1-.23-.03-.26ZM392.63,13.47l-.18-.02c-.07-.05-.05-.23,0-.26.32.02.67.03,1.03.03s.68,0,1.01-.03c.06.04.08.21,0,.26l-.18.02c-.33.04-.36.17-.36.77v1.87c0,.59.03.73.36.77l.18.02c.07.05.05.23,0,.26-.32-.02-.67-.03-1.01-.03-.36,0-.7,0-1.03.03-.06-.04-.08-.21,0-.26l.18-.02c.33-.04.36-.17.36-.77v-1.87c0-.59-.03-.73-.36-.77ZM386.7,16.89l.18-.02c.33-.04.36-.17.36-.77v-1.81c0-.56.03-.7-.34-.77l-.09-.02c-.07-.03-.08-.23.02-.26.56-.04,1.08-.05,1.7-.05.66,0,1.19.08,1.57.22.77.28,1.22.93,1.22,1.76,0,.78-.39,1.36-1.07,1.71-.41.22-.95.3-1.6.3-.4,0-.84-.05-1.08-.05-.18,0-.52,0-.85.03-.06-.04-.08-.21,0-.26ZM381.88,16.89l.28-.03c.33-.04.36-.16.36-.76v-1.87c0-.59-.03-.71-.36-.77l-.11-.02c-.07-.05-.05-.23,0-.26.25.02.59.03.95.03h1.45c.4,0,.76,0,.84-.03.03.11.07.53.1.94-.04.07-.19.08-.25.03-.05-.15-.11-.29-.16-.38-.11-.18-.34-.22-.78-.22h-.48c-.23,0-.23.03-.23.46v.74c0,.15,0,.16.21.16h.33c.5,0,.58,0,.65-.28l.05-.22c.05-.05.21-.04.25.02,0,.21-.03.43-.03.66,0,.24.02.47.03.67-.04.06-.2.07-.25.02l-.05-.22c-.07-.27-.15-.28-.65-.28h-.33c-.2,0-.21,0-.21.18v.56c0,.27.02.51.1.61.08.09.29.13.85.13.73,0,.88-.19,1.09-.67.06-.03.19-.03.25.04-.08.38-.19.83-.27,1-.57-.02-1.04-.03-1.53-.03h-.96c-.36,0-.7,0-1.12.03-.06-.04-.08-.21,0-.26ZM375.12,16.9c.42-.04.48-.1.52-.48.02-.12.05-.58.09-1.32.02-.41.05-.87.04-1.17,0-.28-.09-.41-.34-.46l-.15-.03c-.05-.05-.04-.23.02-.25.31.02.5.03.83.03.26,0,.52,0,.75-.03,0,.44.25.9.43,1.28.23.46.45.93.67,1.3.2-.35.41-.77.63-1.19.15-.29.46-.87.58-1.39.32.03.53.03.72.03s.51,0,.79-.03c.07.04.07.17.03.25l-.14.03c-.41.08-.43.24-.43.59,0,.64,0,1.85.05,2.3.03.31.04.47.3.5l.25.04c.05.05.04.22-.02.25-.31-.02-.61-.03-.95-.03s-.59,0-.94.03c-.05-.04-.06-.21,0-.25l.16-.03c.27-.04.3-.13.3-.54v-2.21h-.03c-.21.38-.39.72-.72,1.38l-.17.33c-.2.4-.48,1.04-.59,1.31-.04.02-.07.03-.12.03s-.08,0-.11-.03c-.09-.31-.36-.89-.5-1.17-.31-.61-.6-1.23-.87-1.85h-.02c0,.38,0,.66-.03.91-.03.36-.02.89-.02,1.24,0,.42,0,.52.23.57l.26.05c.05.05.05.2,0,.25-.26-.02-.46-.03-.69-.03-.19,0-.44,0-.79.03-.06-.04-.08-.21,0-.25ZM354.14,94.15l-3.24-8.59c-.04-.11,0-.24.09-.31,2.79-2.09,5.6-6.43,6.59-11.45.03-.15.25-.13.25.02v10.39c-.68.22-1.17.85-1.17,1.6,0,.94.76,1.7,1.7,1.7s1.7-.76,1.7-1.7c0-.75-.49-1.38-1.17-1.6v-10.39c0-.16.22-.18.25-.02.99,5.02,3.81,9.37,6.59,11.45.1.07.13.2.09.31l-3.24,8.59c-.04.11-.14.18-.26.18h-7.93c-.12,0-.22-.07-.26-.18ZM361.18,58.44c-.5-.37-1.19-1.08-1.19-2.01,0-1.45,1.19-2.43,2.75-2.41.82.01,1.63.28,2.01.59-.16.36-.34.94-.46,1.49-.1.1-.31.07-.38-.05.1-.78-.18-1.56-1.33-1.56-.94,0-1.46.67-1.46,1.38,0,.79.77,1.36,1.16,1.64.78.55,1.37,1.24,1.37,2.3,0,1.44-1.12,2.51-2.97,2.51-1.03,0-1.92-.41-2.15-.92-.11-.59-.04-1.16.05-1.62.07-.07.29-.07.37.02.07.43.19.86.43,1.25.3.49.82.8,1.48.8.76,0,1.58-.5,1.58-1.55,0-.77-.59-1.37-1.26-1.86ZM366.64,54.54l-.3-.04c-.08-.1-.05-.28.07-.34.59.02,1.08.04,1.66.04s1.06-.01,1.58-.04c.08.07.08.29-.02.34l-.34.05c-.54.07-.68.22-1.04,1.38l-.86,2.76c-.14.46-.26,1-.28,1.4-.01,1.01.47,1.68,1.69,1.68,1.54,0,2.27-1.42,2.73-2.87l.58-1.8c.25-.8.44-1.66.49-1.92.07-.41-.04-.55-.55-.64l-.31-.05c-.07-.1-.07-.25.05-.34.49.02.92.04,1.44.04.48,0,.85-.01,1.33-.04.08.07.11.26,0,.34l-.31.06c-.36.07-.62.16-.83.54-.12.22-.34.85-.7,2l-.59,1.87c-.29.9-.66,1.86-1.38,2.51-.6.53-1.51.83-2.34.83-1.63,0-2.71-.64-2.66-2.11.01-.37.1-.82.24-1.27l.94-3c.32-1.04.35-1.32-.29-1.39ZM375.81,54.57l-.36-.05c-.07-.1-.02-.29.07-.35.64.02,1.14.04,1.72.04s1.06-.01,1.57-.04c.1.07.1.3-.02.35l-.34.05c-.54.07-.67.2-1.03,1.37l-1.39,4.46c-.32,1.04-.36,1.28.28,1.37l.36.05c.07.1.02.29-.07.35-.64-.02-1.14-.04-1.71-.04s-1.06.01-1.57.04c-.1-.07-.1-.3.02-.35l.34-.05c.54-.07.67-.2,1.03-1.37l1.39-4.46c.32-1.04.36-1.28-.28-1.37ZM382.33,54.68h-.61c-.42,0-.76.05-1.03.2-.34.18-.58.47-.92.96-.12.07-.34,0-.36-.12.36-.64.71-1.34.9-1.8.05-.07.19-.07.29-.02-.02.24.12.31.9.31h4.53c.54,0,.71-.07.92-.29.07-.05.25-.02.3.05-.23.43-.61,1.43-.71,1.87-.07.12-.32.12-.4,0,.05-.49.05-.88-.18-1.01-.18-.11-.48-.16-.86-.16h-.66c-.36,0-.37.02-.5.43l-1.64,5.29c-.32,1.04-.36,1.31.28,1.37l.5.05c.06.1.02.29-.07.35-.78-.02-1.28-.04-1.86-.04s-1.06.01-1.71.04c-.1-.07-.1-.3.02-.35l.48-.06c.54-.07.67-.19,1.03-1.36l1.65-5.29c.13-.41.12-.43-.29-.43ZM391.33,39.13c-1.9,2.18-3.7,5.71-4.75,8.55-1.05-2.84-2.85-6.36-4.76-8.55l4.26,1.54v-5.21h1v5.21l4.26-1.54ZM395.33,54.69l-.38-.05c-.1-.07-.07-.29.06-.34.54-.06,1.25-.13,2.36-.13,1.86,0,2.99.52,2.99,1.79,0,1.13-1.04,1.68-1.76,1.76-.25.04-.28.08-.28.11.02.02.04.05.18.1.66.23,1.15.84,1.16,1.68.01.91-.56,1.69-1.4,2.11-.65.32-1.45.44-2.57.44-.59,0-1.08-.04-1.46-.04-.52,0-1.07.01-1.54.04-.12-.06-.1-.3.02-.35l.3-.05c.54-.08.7-.19,1.06-1.37l1.44-4.62c.28-.9.29-1.03-.18-1.09ZM402.84,54.58l-.31-.06c-.1-.07-.07-.3.07-.35.58.02,1.08.04,1.62.04s1-.01,1.62-.04c.1.07.1.3-.02.35l-.34.05c-.59.08-.67.2-1.03,1.37l-1.33,4.22c-.19.6-.28.97-.18,1.2.1.23.35.3,1.09.3,1.21,0,1.68-.07,2.53-1.31.14-.07.31-.05.38.07-.17.5-.6,1.42-.85,1.74-.78-.02-1.55-.04-2.82-.04h-1.39c-.58,0-1.03.01-1.55.04-.1-.06-.1-.3.02-.35l.34-.05c.54-.07.64-.2,1.01-1.37l1.42-4.46c.34-1.04.34-1.24-.28-1.36ZM409.85,54.57l-.29-.07c-.1-.07-.05-.26.07-.32.49.02.98.04,1.56.04h2.45c.76,0,1.39,0,1.65-.04-.1.2-.38,1.1-.54,1.74-.07.1-.34.12-.38,0,.05-.52.05-.85-.23-1.02-.19-.12-.55-.22-1.14-.22h-.79c-.36,0-.41.05-.53.43l-.72,2.29c-.11.34-.1.35.24.35h.65c.88,0,1.08-.08,1.37-.64l.17-.32c.1-.1.36-.07.38.02-.12.3-.28.77-.43,1.22-.16.46-.25.9-.32,1.21-.1.08-.34.08-.38,0l.02-.31c.05-.6-.19-.65-.97-.65h-.62c-.32,0-.37.02-.47.34l-.49,1.54c-.2.62-.28,1-.17,1.22.08.18.29.28,1.2.28,1.19,0,1.63-.07,2.51-1.31.1-.07.31-.05.37.07-.16.48-.59,1.42-.86,1.74-.78-.02-1.55-.04-2.84-.04h-1.45c-.52,0-1,.01-1.63.04-.12-.06-.1-.28.02-.35l.41-.05c.56-.07.7-.2,1.06-1.37l1.39-4.46c.32-1.04.32-1.22-.25-1.37ZM409.3,107.63c1.34,0,2.44,1.01,2.44,2.48s-1.03,2.58-2.53,2.58c-1.38,0-2.46-.97-2.46-2.47s1.14-2.59,2.55-2.59ZM404.05,104.77l-.12-.07c-.06-.04-.06-.2,0-.24.3-.1.86-.28,1.3-.5.05,0,.1.02.12.07-.01.36-.04.96-.04,1.49v5.67c0,.86.02.98.46,1.04l.29.04c.08.06.06.26-.02.3-.4-.02-.74-.04-1.16-.04s-.79.01-1.15.04c-.08-.04-.11-.24-.02-.3l.28-.04c.44-.06.46-.18.46-1.04v-5.42c0-.71-.01-.78-.37-1ZM402.94,110.12c0,1.5-1.03,2.58-2.53,2.58-1.38,0-2.46-.97-2.46-2.47s1.14-2.59,2.55-2.59,2.44,1.01,2.44,2.48ZM393.44,71.89c.31-1,.31-1.18-.11-1.24l-.41-.06c-.1-.1-.05-.26.07-.32.72-.08,1.38-.1,2.21-.1,2.12,0,3.11.7,3.11,2,0,1.22-1.15,1.88-1.99,2.06-.19.05-.19.13-.14.36.22,1.02.42,1.97.61,2.45.19.5.48.7,1.02.77.07.07.05.24-.02.31-.18.02-.37.05-.88.05-.43,0-.73-.05-.92-.16-.2-.11-.38-.34-.53-.78-.17-.48-.41-1.74-.48-2.06-.11-.53-.22-.61-.6-.61-.44,0-.49.04-.59.35l-.47,1.49c-.32,1.04-.35,1.27.26,1.37l.31.05c.07.1.02.29-.07.35-.58-.02-1.08-.04-1.59-.04s-1.08.01-1.57.04c-.1-.06-.1-.3.02-.35l.31-.05c.54-.08.67-.2,1.03-1.37l1.42-4.51ZM384.74,112.23l.43.04c.08.06.06.26-.02.3-.56-.02-.91-.04-1.33-.04s-.79.01-1.1.04c-.08-.04-.11-.24-.02-.3l.23-.04c.44-.07.46-.18.46-1.04v-2.1c0-.47,0-.53-.32-.74l-.11-.07s-.05-.18.01-.22c.28-.1.91-.41,1.21-.59.06.01.1.04.1.08v.7c0,.06.01.1.04.11.42-.35.88-.72,1.32-.72.3,0,.54.19.54.48,0,.4-.32.55-.52.55-.12,0-.18-.04-.26-.08-.18-.12-.36-.19-.53-.19-.19,0-.34.11-.43.24-.12.17-.16.52-.16.92v1.63c0,.86.02,1.01.48,1.04ZM381.82,89.88l4.26,1.54v-5.21h1v5.21l4.26-1.54c-1.9,2.18-3.7,5.71-4.75,8.55-1.05-2.84-2.85-6.36-4.76-8.55ZM380.67,112.02c.4,0,.73-.12,1.1-.59.12-.04.2.04.22.14-.4.82-1.26,1.12-1.88,1.12-.78,0-1.39-.34-1.74-.79-.36-.47-.5-1.03-.5-1.56,0-1.48.97-2.71,2.41-2.71,1.03,0,1.7.71,1.7,1.43,0,.17-.02.26-.05.31-.04.07-.2.08-.71.08h-2.22c-.31,0-.32.02-.32.32,0,1.21.71,2.24,1.99,2.24ZM382.46,75.15c.02-1.5.71-3.01,1.93-4.04.95-.82,1.99-1.09,2.95-1.09,1.55,0,3.15.92,3.11,3.31-.02,1.34-.61,2.72-1.61,3.69-.61.61-1.73,1.3-3.18,1.3-2.42,0-3.23-1.75-3.2-3.17ZM391.22,105.44c.88-.68,1.99-1.02,3.24-1.02.65,0,1.56.13,2.12.29.14.04.23.06.34.05.01.28.07,1.03.17,1.76-.06.08-.24.1-.32.02-.18-.82-.72-1.75-2.46-1.75-1.83,0-3.39,1.16-3.39,3.65s1.6,3.91,3.56,3.91c1.55,0,2.23-1.01,2.51-1.72.08-.06.26-.04.31.05-.08.62-.4,1.42-.58,1.64-.14.02-.29.07-.42.12-.26.1-1.13.28-1.9.28-1.08,0-2.11-.22-2.99-.8-.96-.66-1.7-1.75-1.7-3.3,0-1.33.6-2.47,1.51-3.18ZM392.03,62.16c-.5-.02-.98-.04-1.56-.04-.61,0-1.1.01-1.48.04-.14-.06-.13-.28-.04-.35l.32-.05c.5-.07.56-.17.59-.73l.07-1.6c.01-.25-.05-.28-.36-.28h-1.64c-.36,0-.36.01-.56.34l-.88,1.33c-.3.49-.36.6-.36.68s.18.19.4.23l.38.07c.1.07.07.28-.04.35-.5-.02-.89-.04-1.38-.04-.44,0-.85.01-1.25.04-.11-.07-.11-.28-.01-.35l.3-.05c.48-.07.68-.22,1.12-.83.16-.22,1.3-1.79,1.74-2.43l1.92-2.76c.46-.65.71-1.07.74-1.28.43-.02.88-.34,1.08-.44.1,0,.19.05.19.13,0,.19-.02.7-.06,1.73-.05,1.54-.08,3.08-.11,4.62-.02,1.09.02,1.21.62,1.28l.29.04c.07.08.05.29-.05.35ZM380.73,70.21c.76,0,1.39,0,1.65-.04-.08.2-.37,1.1-.54,1.74-.05.1-.34.12-.38,0,.05-.52.05-.86-.22-1.02-.2-.12-.54-.22-1.15-.22h-.76c-.31,0-.34.04-.46.43l-.76,2.43c-.08.28-.07.31.2.31h.8c.88,0,1.09-.08,1.38-.61l.18-.34c.07-.1.34-.07.38.02-.12.28-.29.76-.43,1.2-.14.44-.25.9-.35,1.22-.07.1-.31.1-.38,0l.04-.37c.05-.47-.16-.59-.96-.59h-.83c-.28,0-.32.02-.42.35l-.5,1.66c-.32,1.04-.36,1.29.25,1.37l.43.05c.07.1.05.28-.07.35-.68-.02-1.21-.04-1.75-.04s-1,.01-1.61.04c-.1-.07-.1-.28.02-.35l.36-.05c.54-.07.67-.2,1.03-1.37l1.39-4.46c.32-1.04.34-1.25-.25-1.38l-.26-.06c-.1-.07-.07-.26.07-.32.41.02.83.04,1.54.04h2.34ZM376.58,112.17c.12,0,.23-.02.32-.06.11-.04.26-.17.3-.17.1,0,.14.13.12.2-.22.25-.65.55-1.26.55-1.03,0-1.25-.58-1.25-1.3v-2.75c0-.32-.01-.35-.25-.35h-.34c-.07-.05-.08-.18-.04-.25.35-.11.65-.26.77-.37.16-.14.38-.47.5-.71.06-.02.2-.02.25.06v.54c0,.22.01.23.22.23h1.33c.14.11.12.43.01.5h-1.36c-.2,0-.22.04-.22.29v2.24c0,.7.08,1.33.88,1.33ZM361.02,106.7c.67,1.5,1.38,3,2.07,4.47.29-.6.61-1.27.92-1.94.11-.23.19-.43.19-.49s-.04-.17-.1-.31c-.42-.96-.86-1.92-1.32-2.88-.18-.37-.36-.62-.77-.66l-.29-.02c-.08-.1-.07-.24.02-.29.35.02.8.04,1.28.04.6,0,1.04-.01,1.32-.04.08.04.1.19.02.29l-.31.02c-.47.04-.48.12-.25.66.25.59.59,1.34.92,2.09.23-.47.44-.92.71-1.57.43-1.02.37-1.15-.01-1.17l-.36-.02c-.08-.12-.06-.25.02-.29.32.02.68.04,1.13.04.4,0,.88-.01,1.15-.04.08.04.1.19.02.29l-.35.02c-.5.04-.72.58-.98,1.07-.25.44-.76,1.49-.94,1.91-.06.12-.11.24-.11.29s.02.14.08.29c.41.92.83,1.82,1.22,2.73.37-.84.73-1.68,1.08-2.53.24-.58.88-2.17.96-2.39.16-.43.36-.95.36-1.09,0-.17-.14-.26-.4-.28l-.35-.02c-.1-.11-.08-.24.01-.29.46.02.78.04,1.15.04.46,0,.8-.01,1.12-.04.1.04.11.19.02.29l-.23.02c-.6.06-.71.42-1.43,2.09l-.88,2.03c-.53,1.22-1.01,2.4-1.5,3.68-.04.02-.08.04-.14.04s-.12-.01-.17-.04c-.38-1.07-1.08-2.57-1.45-3.41-.43.88-1.15,2.41-1.5,3.41-.04.02-.08.04-.14.04s-.12-.01-.18-.04c-.2-.5-.67-1.58-.83-1.93-.77-1.67-1.51-3.33-2.29-5-.23-.49-.37-.82-.88-.86l-.29-.02c-.07-.07-.06-.24.04-.29.32.02.86.04,1.24.04.34,0,.95-.01,1.37-.04.11.04.1.2.02.29l-.28.02c-.25.02-.4.1-.4.2,0,.14.25.76.62,1.61ZM371.09,108.1c-.34,0-.74.17-.77.54-.01.19-.02.34-.12.41-.18.14-.5.23-.68.23-.11,0-.17-.06-.17-.17,0-.62,1.35-1.48,2.23-1.48s1.28.5,1.25,1.4l-.07,2.09c-.02.55.08,1.04.55,1.04.12,0,.23-.04.3-.07.06-.04.12-.08.16-.08.05,0,.08.07.08.16,0,.06-.42.53-1.01.53-.29,0-.58-.11-.78-.37-.05-.07-.12-.17-.19-.17-.08,0-.23.11-.47.24-.26.14-.53.3-.86.3s-.64-.1-.84-.28c-.23-.2-.37-.5-.37-.84,0-.47.23-.74,1-1.02l1.43-.52c.18-.06.2-.17.2-.35v-.55c.02-.44-.12-1.04-.86-1.04ZM357.7,117.91h57.75v.5h-57.75v-.5ZM412.32,125.67c0,.43-.3.62-.64.62-.37,0-.61-.28-.61-.6,0-.4.29-.65.65-.65s.6.29.6.62ZM402.31,128.21c-.46,0-.85.19-1.02.42-.16.2-.18.37-.18.72v1.83c0,.86.02.97.46,1.04l.22.04c.08.06.06.26-.02.3-.32-.02-.67-.04-1.09-.04s-.79.01-1.13.04c-.08-.04-.11-.24-.02-.3l.25-.04c.44-.06.46-.18.46-1.04v-2.1c0-.47,0-.53-.32-.74l-.11-.07s-.05-.18.01-.22c.28-.1.96-.41,1.2-.59.05,0,.11.02.13.08-.02.28-.02.46-.02.56,0,.07.05.13.13.13.5-.31,1.07-.61,1.68-.61,1,0,1.4.68,1.4,1.49v2.06c0,.86.02.98.46,1.04l.26.04c.08.06.06.26-.02.3-.36-.02-.71-.04-1.13-.04s-.79.01-1.12.04c-.08-.04-.11-.24-.02-.3l.23-.04c.44-.07.46-.18.46-1.04v-1.79c0-.68-.31-1.19-1.13-1.19ZM397.52,132.02c.4,0,.73-.12,1.1-.59.12-.04.2.04.22.14-.4.82-1.26,1.12-1.88,1.12-.78,0-1.39-.34-1.74-.79-.36-.47-.5-1.03-.5-1.56,0-1.48.97-2.71,2.41-2.71,1.03,0,1.7.71,1.7,1.43,0,.17-.02.26-.05.31-.04.07-.2.08-.71.08h-2.22c-.31,0-.32.02-.32.32,0,1.21.71,2.24,1.99,2.24ZM391.52,124.95c-.64,0-.65.05-.65.43v5.35c0,1.26.02,1.42.79,1.5l.32.04c.07.06.05.26-.02.3-.68-.02-1.08-.04-1.56-.04-.5,0-.94.01-1.46.04-.07-.04-.1-.23-.02-.3l.25-.04c.7-.1.72-.24.72-1.5v-4.43c0-1.02-.02-1.22-.56-1.28l-.43-.05c-.08-.07-.07-.25.02-.3.64-.08,1.38-.1,2.38-.1s1.74.13,2.3.48c.55.35.96.97.96,1.8,0,1.1-.68,1.66-1.2,1.91-.53.25-1.16.36-1.66.36-.08-.04-.08-.22-.01-.24,1.3-.24,1.76-.97,1.76-2.01,0-1.16-.68-1.92-1.93-1.92ZM383.91,132.23l.43.04c.08.06.06.26-.02.3-.56-.02-.91-.04-1.33-.04s-.79.01-1.1.04c-.08-.04-.11-.24-.02-.3l.23-.04c.44-.07.46-.18.46-1.04v-2.1c0-.47,0-.53-.32-.74l-.11-.07s-.05-.18.01-.22c.28-.1.91-.41,1.21-.59.06.01.1.04.1.08v.7c0,.06.01.1.04.11.42-.35.88-.72,1.32-.72.3,0,.54.19.54.48,0,.4-.32.55-.52.55-.12,0-.18-.04-.26-.08-.18-.12-.36-.19-.53-.19-.19,0-.34.11-.43.24-.12.17-.16.52-.16.92v1.63c0,.86.02,1.01.48,1.04ZM380.95,130.12c0,1.5-1.03,2.58-2.53,2.58-1.38,0-2.46-.97-2.46-2.47s1.14-2.59,2.55-2.59c1.34,0,2.43,1.01,2.43,2.48ZM373.26,124.77l-.12-.07c-.06-.04-.06-.2,0-.24.3-.1.86-.28,1.3-.5.05,0,.1.02.12.07-.01.36-.04.96-.04,1.49v5.67c0,.86.02.98.46,1.04l.29.04c.08.06.06.26-.02.3-.4-.02-.74-.04-1.16-.04s-.79.01-1.15.04c-.08-.04-.11-.24-.02-.3l.28-.04c.44-.06.46-.18.46-1.04v-5.42c0-.71-.01-.78-.37-1ZM372.15,130.12c0,1.5-1.03,2.58-2.53,2.58-1.38,0-2.46-.97-2.46-2.47s1.14-2.59,2.55-2.59c1.34,0,2.43,1.01,2.43,2.48ZM365.5,132.44c-.26.1-1.13.28-1.9.28-1.08,0-2.11-.22-2.99-.8-.96-.66-1.7-1.75-1.7-3.3,0-1.33.6-2.47,1.51-3.18.88-.68,1.99-1.02,3.24-1.02.65,0,1.56.13,2.12.29.14.04.23.06.34.05.01.28.07,1.03.17,1.76-.06.08-.24.1-.32.02-.18-.82-.72-1.75-2.46-1.75-1.83,0-3.39,1.16-3.39,3.65s1.6,3.91,3.56,3.91c1.55,0,2.23-1.01,2.51-1.72.08-.06.26-.04.31.05-.08.62-.4,1.42-.58,1.64-.14.02-.29.07-.42.12ZM383.8,148.76c-.53.25-1.16.36-1.66.36-.08-.04-.08-.22-.01-.24,1.3-.24,1.76-.97,1.76-2.01,0-1.16-.68-1.92-1.93-1.92-.64,0-.65.05-.65.43v5.35c0,1.26.02,1.42.79,1.5l.32.04c.07.06.05.26-.02.3-.68-.02-1.08-.04-1.56-.04-.5,0-.94.01-1.46.04-.07-.04-.1-.23-.02-.3l.25-.04c.7-.1.72-.24.72-1.5v-4.43c0-1.02-.02-1.22-.56-1.28l-.43-.05c-.08-.07-.07-.25.02-.3.64-.08,1.38-.1,2.38-.1s1.74.13,2.3.48c.55.35.96.97.96,1.8,0,1.1-.68,1.66-1.2,1.91ZM387.4,152.7c-.78,0-1.39-.34-1.74-.79-.36-.47-.5-1.03-.5-1.56,0-1.48.97-2.71,2.41-2.71,1.03,0,1.7.71,1.7,1.43,0,.17-.02.26-.05.31-.04.07-.2.08-.71.08h-2.22c-.31,0-.32.02-.32.32,0,1.21.71,2.24,1.99,2.24.4,0,.73-.12,1.1-.59.12-.04.2.04.22.14-.4.82-1.26,1.12-1.88,1.12ZM395.46,152.56c-.36-.02-.71-.04-1.13-.04s-.79.01-1.12.04c-.08-.04-.11-.24-.02-.3l.23-.04c.44-.07.46-.18.46-1.04v-1.79c0-.68-.31-1.19-1.13-1.19-.46,0-.85.19-1.02.42-.16.2-.18.37-.18.72v1.83c0,.86.02.97.46,1.04l.22.04c.08.06.06.26-.02.3-.32-.02-.67-.04-1.09-.04s-.79.01-1.13.04c-.08-.04-.11-.24-.02-.3l.25-.04c.44-.06.46-.18.46-1.04v-2.1c0-.47,0-.53-.32-.74l-.11-.07s-.05-.18.01-.22c.28-.1.96-.41,1.2-.59.05,0,.11.02.13.08-.02.28-.02.46-.02.56,0,.07.05.13.13.13.5-.31,1.07-.61,1.68-.61,1,0,1.4.68,1.4,1.49v2.06c0,.86.02.98.46,1.04l.26.04c.08.06.06.26-.02.3ZM406.15,140.72h-39.81v-.5h39.81v.5ZM408.12,132.7c-.64,0-1.22-.2-1.64-.61-.42-.41-.7-1-.7-1.77,0-1.3.91-2.67,2.9-2.67.28,0,.74.06,1.07.2.1.08.18.28.18.48,0,.22-.12.44-.26.44-.06,0-.12-.02-.17-.08-.26-.32-.71-.63-1.2-.63-.84,0-1.65.66-1.65,1.93,0,.94.65,2.05,1.93,2.05.7,0,1.06-.31,1.33-.72.1-.02.2.06.22.17-.41.89-1.31,1.22-2,1.22ZM412.89,132.56c-.36-.02-.71-.04-1.13-.04s-.79.01-1.13.04c-.08-.04-.11-.24-.02-.3l.25-.04c.44-.06.46-.18.46-1.04v-2.1c0-.47,0-.53-.32-.74l-.11-.07s-.05-.18.01-.22c.28-.1.96-.41,1.24-.59.06,0,.11.02.12.07-.02.42-.05,1-.05,1.49v2.16c0,.86.02.98.46,1.04l.25.04c.08.06.06.26-.02.3ZM415.89,132.56c-.4-.02-.74-.04-1.16-.04s-.79.01-1.15.04c-.08-.04-.11-.24-.02-.3l.28-.04c.44-.06.46-.18.46-1.04v-5.42c0-.71-.01-.78-.37-1l-.12-.07c-.06-.04-.06-.2,0-.24.3-.1.86-.28,1.3-.5.05,0,.1.02.12.07-.01.36-.04.96-.04,1.49v5.67c0,.86.02.98.46,1.04l.29.04c.08.06.06.26-.02.3ZM415.6,108.67c-.12,0-.18-.04-.26-.08-.18-.12-.36-.19-.53-.19-.19,0-.34.11-.43.24-.12.17-.16.52-.16.92v1.63c0,.86.02,1.01.48,1.04l.43.04c.08.06.06.26-.02.3-.56-.02-.91-.04-1.33-.04s-.79.01-1.1.04c-.08-.04-.11-.24-.02-.3l.23-.04c.44-.07.46-.18.46-1.04v-2.1c0-.47,0-.53-.32-.74l-.11-.07s-.05-.18.01-.22c.28-.1.91-.41,1.21-.59.06.01.1.04.1.08v.7c0,.06.01.1.04.11.42-.35.88-.72,1.32-.72.3,0,.54.19.54.48,0,.4-.32.55-.52.55ZM415.97,95.14c-3.88,0-7.03-3.15-7.03-7.03,0-3.48,5.66-12.68,6.82-14.53.1-.15.32-.15.41,0,1.16,1.85,6.82,11.04,6.82,14.53,0,3.88-3.15,7.03-7.03,7.03ZM422.9,61.74c0-17.94-14.59-32.53-32.53-32.53h-7.58c-17.94,0-32.53,14.59-32.53,32.53h-1c0-18.49,15.04-33.53,33.53-33.53h7.58c18.49,0,33.53,15.04,33.53,33.53h-1Z"/>
      </g>
      <g>
        <path class="cls-1" d="M257.01,52.41c.43,0,1.3-.1,1.81-.43.19-.32.37-.91.42-1.42-.1-.11-.32-.13-.42-.03-.46.86-.98,1.33-1.65,1.33-.88,0-1.79-.7-1.79-2.4,0-1.83.99-2.39,1.7-2.39.48,0,1.17.27,1.5,1.41.1.08.35.06.43-.05l-.14-1.65c-.35-.06-.98-.27-1.86-.27-2.1,0-3.35,1.31-3.35,3.02,0,1.1.62,2.88,3.35,2.88Z"/>
        <path class="cls-1" d="M256.5,55.05c3.09,0,5.6-2.48,5.6-5.54s-2.51-5.54-5.6-5.54-5.6,2.48-5.6,5.54,2.51,5.54,5.6,5.54ZM256.5,44.72c2.47,0,4.51,2.1,4.51,4.77s-2.05,4.8-4.51,4.8-4.51-2.13-4.51-4.8,2.05-4.77,4.51-4.77Z"/>
        <path class="cls-1" d="M205.21,93.45c1.22-.05,1.88-.41,1.88-1.54s-.88-1.62-1.79-1.62c-.26,0-.44.02-.55.07-.12.04-.17.1-.17.31v2.43c0,.34.01.36.62.34Z"/>
        <path class="cls-1" d="M226.14,126.1c-.52,0-.89.19-1.02.34-.11.13-.14.31-.14.71v2.06c0,.38.12.53.36.72.24.18.61.26.86.26.98,0,1.56-.91,1.56-2.16,0-.96-.54-1.93-1.62-1.93Z"/>
        <path class="cls-1" d="M232.04,128.31c-.07,0-.28.05-.49.12-.71.24-1.05.42-1.05.89,0,.2.14.72.75.72.24,0,.61-.18.73-.3.14-.14.14-.31.16-.56l.02-.71c0-.13-.05-.16-.12-.16Z"/>
        <path class="cls-1" d="M205.28,93.81c-.65,0-.7.07-.7.31v1.78c0,.43.02,1.04.25,1.31.23.28.59.34.95.34,1.07,0,1.88-.48,1.88-1.68,0-.95-.48-2.05-2.39-2.05Z"/>
        <path class="cls-1" d="M236.52,125.87c-.58,0-1.01.53-1.01,1.34s.52,1.4,1.09,1.4c.65,0,.98-.52.98-1.25,0-.82-.34-1.5-1.07-1.5Z"/>
        <path class="cls-1" d="M236.84,133.12c1.07,0,1.77-.6,1.77-1.28,0-.73-.5-1.04-1.37-1.04h-.41c-.38,0-.86.02-1.03.13-.29.18-.58.55-.58,1.01,0,.65.52,1.19,1.61,1.19Z"/>
        <path class="cls-1" d="M215.04,95.78c-.07,0-.28.05-.49.12-.71.24-1.05.42-1.05.89,0,.2.14.72.75.72.24,0,.61-.18.73-.3.14-.14.14-.31.16-.56l.02-.71c0-.13-.05-.16-.12-.16Z"/>
        <path class="cls-1" d="M183.22,68.11c-1.64-.45-3.9-.37-4.41,1.46-.35,1.27.6,2.55,2.73,3.14,1.75.48,3.86.21,4.33-1.49.47-1.7-1.16-2.71-2.65-3.12Z"/>
        <path class="cls-1" d="M205.93,46.64c1.56-.81,1.19-2.69.48-4.06-.79-1.51-2.38-3.11-4.07-2.23-1.17.61-1.46,2.18-.44,4.13.84,1.62,2.47,2.98,4.03,2.16Z"/>
        <path class="cls-1" d="M193.06,47.09c-.45.39-.72.82-.81,1.14-.06.24.06.43.57,1.02l2.05,2.35c.46.53.99.89,1.52.98s1.1-.08,1.58-.5c1.41-1.24.92-2.93-.21-4.22-1.36-1.55-3.21-2.06-4.7-.75Z"/>
        <path class="cls-1" d="M188.79,53.5c0-.07-.03-.17-.23-.32-.45-.33-1.24-.44-1.93.49-.7.95-.44,2.41.08,2.82.03.02.08.06.16-.05l.84-1.14c.88-1.19,1.08-1.59,1.07-1.79Z"/>
        <path class="cls-1" d="M215.02,110.71h.85c.89,0,1.15-.05,1.25-.12.04-.02.07-.07.07-.23,0-.33-.23-.75-.92-.75s-1.32.65-1.33,1.04c0,.02,0,.06.08.06Z"/>
        <path class="cls-1" d="M217.06,123.1c-1.32,0-1.42,2.44-1.42,3.56s.1,3.56,1.42,3.56,1.42-2.43,1.42-3.56-.1-3.56-1.42-3.56Z"/>
        <path class="cls-1" d="M249.99,109.83c-.52,0-.89.19-1.02.34-.11.13-.14.31-.14.71v2.06c0,.38.12.53.36.72.24.18.61.26.86.26.98,0,1.56-.91,1.56-2.16,0-.96-.54-1.93-1.62-1.93Z"/>
        <path class="cls-1" d="M244.96,112.05c-.07,0-.28.05-.49.12-.71.24-1.05.42-1.05.89,0,.2.14.72.75.72.24,0,.61-.18.73-.3.14-.14.14-.31.16-.56l.02-.71c0-.13-.05-.16-.12-.16Z"/>
        <path class="cls-1" d="M254.46,110.71h.85c.89,0,1.15-.05,1.25-.12.04-.02.07-.07.07-.23,0-.33-.23-.75-.92-.75s-1.32.65-1.33,1.04c0,.02,0,.06.08.06Z"/>
        <path class="cls-1" d="M224.03,18.87c-34.79,0-63,28.21-63,63s28.21,63,63,63,63-28.21,63-63-28.21-63-63-63ZM256.5,41.6c4.31,0,7.81,3.5,7.81,7.81s-3.5,7.81-7.81,7.81-7.81-3.5-7.81-7.81,3.5-7.81,7.81-7.81ZM244.26,109.72c-.34,0-.74.17-.77.54-.01.19-.02.34-.12.41-.18.14-.5.23-.68.23-.11,0-.17-.06-.17-.17,0-.62,1.36-1.48,2.23-1.48s1.28.5,1.25,1.4l-.07,2.09c-.02.55.08,1.04.55,1.04.12,0,.23-.04.3-.07.06-.04.12-.08.16-.08.05,0,.08.07.08.16,0,.06-.42.53-1.01.53-.29,0-.58-.11-.78-.37-.05-.07-.12-.17-.19-.17-.08,0-.23.11-.47.24-.26.14-.53.3-.86.3s-.64-.1-.84-.28c-.23-.2-.37-.5-.37-.84,0-.47.23-.74,1-1.02l1.43-.52c.18-.06.2-.17.2-.35v-.55c.02-.44-.12-1.04-.86-1.04ZM228.83,93.35l-.38.07c-.24.05-.44.17-.76.42-.47.37-.88.8-1.09,1.01-.14.13-.16.19-.08.29.2.28.4.5.8.96.47.53.89,1,1.13,1.22.17.16.41.23.62.26l.17.02c.08.06.07.26-.02.3-.35-.02-.76-.04-1.14-.04-.48,0-.9.01-1.25.04-.1-.05-.11-.25-.02-.3l.22-.04c.18-.02.3-.05.3-.12s-.05-.16-.2-.34l-1.28-1.49c-.11-.12-.24-.17-.37-.17-.22,0-.23.04-.23.41v.66c0,.86.02.98.46,1.04l.29.04c.08.06.06.26-.02.3-.4-.02-.74-.04-1.16-.04s-.79.01-1.15.04c-.08-.04-.11-.24-.01-.3l.26-.04c.44-.06.46-.18.46-1.04v-5.42c0-.71-.01-.78-.37-1l-.12-.07c-.06-.04-.06-.2,0-.24.3-.1.86-.28,1.3-.5.05,0,.1.02.12.07-.01.36-.04.96-.04,1.49v4.11c0,.16.01.18.22.18.26,0,.49-.13.82-.47l.49-.53c.34-.36.42-.49.42-.55s-.06-.1-.26-.12l-.29-.04c-.11-.04-.11-.26,0-.3h.28c.53,0,1.24-.02,1.91-.1.08.04.1.24.02.3ZM219.28,42.21l.44-.07c.74-.11.76-.31.73-1.75l-.14-9.04c-.02-1.18-.04-1.3-.65-1.65l-.2-.12c-.1-.06-.11-.34,0-.4.5-.17,1.43-.48,2.15-.88.08,0,.16.04.2.12,0,.6-.03,1.6-.02,2.48l.11,6.86c0,.26.02.3.37.29.44,0,.82-.23,1.35-.8l.81-.89c.55-.61.69-.83.69-.93,0-.1-.1-.16-.44-.19l-.48-.05c-.18-.06-.19-.44,0-.5h.46c.88-.02,2.06-.08,3.18-.22.14.06.17.4.05.5l-.64.13c-.4.09-.74.29-1.25.72-.77.63-1.44,1.36-1.79,1.71-.24.22-.25.32-.13.48.35.46.67.83,1.37,1.58.79.87,1.51,1.64,1.91,2.01.28.25.69.37,1.05.42l.28.04c.14.1.13.44-.03.5-.58-.03-1.26-.04-1.9-.03-.8.01-1.5.04-2.08.09-.16-.08-.19-.42-.05-.5l.36-.07c.3-.04.5-.09.5-.21s-.08-.26-.35-.55l-2.18-2.45c-.18-.2-.4-.27-.62-.27-.36,0-.38.07-.37.69l.02,1.1c.02,1.44.07,1.64.79,1.73l.48.05c.14.1.11.44-.03.5-.66-.03-1.24-.04-1.94-.03-.72.01-1.32.04-1.92.09-.14-.06-.19-.4-.03-.5ZM219.08,92.9c-.02.28-.02.46-.02.56,0,.07.05.13.13.13.5-.31,1.07-.61,1.68-.61,1,0,1.4.68,1.4,1.49v2.06c0,.86.02.98.46,1.04l.26.04c.08.06.06.26-.02.3-.36-.02-.71-.04-1.13-.04s-.79.01-1.12.04c-.08-.04-.11-.24-.02-.3l.23-.04c.44-.07.46-.18.46-1.04v-1.79c0-.68-.31-1.19-1.13-1.19-.46,0-.85.19-1.02.42-.16.2-.18.37-.18.72v1.84c0,.86.02.97.46,1.04l.22.04c.08.06.06.26-.02.3-.32-.02-.67-.04-1.09-.04s-.79.01-1.13.04c-.08-.04-.11-.24-.02-.3l.25-.04c.44-.06.46-.18.46-1.04v-2.1c0-.47,0-.53-.32-.74l-.11-.07s-.05-.18.01-.22c.28-.1.96-.41,1.2-.59.05,0,.11.02.13.08ZM212.78,35.76c2.17-.54,4.34.66,4.93,3.05.6,2.43-.64,4.59-3.07,5.18-2.23.55-4.37-.59-4.97-3.02-.6-2.45.81-4.65,3.11-5.21ZM214.33,93.45c-.34,0-.74.17-.77.54-.01.19-.02.34-.12.41-.18.14-.5.23-.68.23-.11,0-.17-.06-.17-.17,0-.62,1.36-1.48,2.23-1.48s1.28.5,1.25,1.4l-.07,2.09c-.02.55.08,1.04.55,1.04.12,0,.23-.04.3-.07.06-.04.12-.08.16-.08.05,0,.08.07.08.16,0,.06-.42.53-1.01.53-.29,0-.58-.11-.78-.37-.05-.07-.12-.17-.19-.17-.08,0-.23.11-.47.24-.26.14-.53.3-.86.3s-.64-.1-.84-.28c-.23-.2-.37-.5-.37-.84,0-.47.23-.74,1-1.02l1.43-.52c.18-.06.2-.17.2-.35v-.55c.02-.44-.12-1.04-.86-1.04ZM209.51,97.61l.28-.04c.44-.06.46-.18.46-1.04v-5.42c0-.71-.01-.78-.37-1l-.12-.07c-.06-.04-.06-.2,0-.24.3-.1.86-.28,1.3-.5.05,0,.1.02.12.07-.01.36-.04.96-.04,1.49v5.67c0,.86.02.98.46,1.04l.29.04c.08.06.06.26-.02.3-.4-.02-.74-.04-1.16-.04s-.79.01-1.15.04c-.08-.04-.11-.24-.02-.3ZM205.42,110.91l-1.14-.74c-.6-.4-1.29-1.08-1.29-2.06,0-1.14.89-2.06,2.45-2.06.37,0,.8.07,1.12.16.16.05.32.07.42.07.11.29.22.96.22,1.46-.05.07-.24.11-.3.04-.16-.58-.48-1.35-1.63-1.35s-1.43.78-1.43,1.33c0,.7.58,1.2,1.02,1.47l.96.6c.75.47,1.5,1.16,1.5,2.3,0,1.32-1,2.22-2.55,2.22-1.01,0-1.64-.31-1.87-.44-.14-.26-.3-1.12-.32-1.68.06-.08.24-.11.29-.04.18.61.67,1.79,2.06,1.79,1.01,0,1.5-.66,1.5-1.38,0-.53-.11-1.12-.98-1.68ZM205.57,97.91c-.35,0-.94-.04-1.44-.04s-.94.02-1.38.04c-.07-.04-.1-.23-.02-.3l.22-.04c.63-.11.66-.24.66-1.5v-4.56c0-.89-.05-1.12-.59-1.16l-.38-.04c-.1-.07-.08-.25.01-.3.65-.06,1.46-.1,2.58-.1.76,0,1.48.06,2.01.33.52.25.91.73.91,1.5,0,.86-.5,1.31-1.22,1.64,0,.12.1.16.23.18.65.12,1.61.72,1.61,2,0,1.39-1.03,2.33-3.19,2.33ZM184.84,79.74c-.06.14-.41.17-.5.03l-.05-.38c-.1-.74-.28-.77-1.72-.81l-2.98-.09c-1.14-.03-1.99.46-2.03,1.82-.02.76.28,1.43.65,1.72.33.27.61.32,1.19.33l3.06.09c1.44.04,1.62,0,1.76-.71l.07-.36c.1-.14.44-.09.5.05-.06.54-.09,1.12-.11,1.82-.02.72-.02,1.32,0,1.88-.06.14-.41.17-.5.03l-.05-.42c-.08-.74-.28-.77-1.72-.81l-3.5-.1c-.78-.02-.88-.03-1.25.5l-.13.18c-.08.08-.3.07-.36-.03-.15-.46-.63-1.62-.92-2.03,0-.08.04-.18.15-.22.46.05.76.06.94.07.12,0,.22-.07.23-.21-.5-.85-.97-1.81-.94-2.83.05-1.66,1.21-2.31,2.55-2.27l3.44.1c1.44.04,1.64,0,1.76-.71l.07-.44c.1-.14.44-.09.5.05-.06.6-.09,1.18-.11,1.88-.02.72-.02,1.32,0,1.86ZM186.39,71.58c-.61,2.22-2.65,3.52-5.06,2.86-2.43-.67-3.66-2.98-3.03-5.26.59-2.16,2.7-3.47,5.07-2.82,2.41.66,3.69,2.8,3.03,5.21ZM189.4,63.89c-.77,1.54-1.79,1.44-2.86.9l-4.1-2.04c-.48-.24-.53-.24-.71.12l-.25.5c-.12.07-.33,0-.4-.13.1-.6.09-1.16.01-1.42-.1-.34-.41-.92-.68-1.28,0-.11.12-.32.28-.33l.81.4c.32.16.35.15.5-.15l.99-1.99c.27-.14.73.14.76.36l-1,2.02c-.15.3-.11.35.27.54l3.35,1.66c1.04.52,2.05.86,2.64-.32.09-.18.13-.36.15-.53.03-.19-.06-.52-.03-.57.07-.14.3-.12.39-.03.22.51.34,1.38-.11,2.29ZM192.9,58.37c-.77,1.05-1.83,1.53-2.78,1.55-.98.02-1.88-.35-2.59-.87-1.98-1.46-2.68-3.99-1.25-5.92,1.02-1.38,2.64-1.59,3.6-.87.23.17.33.29.37.37.06.12-.09.36-.59,1.03l-2.2,2.98c-.31.42-.29.46.11.75,1.63,1.2,3.71,1.27,4.98-.45.39-.53.56-1.1.3-2.06.07-.2.25-.24.41-.15.7,1.34.25,2.79-.37,3.63ZM198.14,52.71c-.56.49-1.07.75-1.45.92-.41.17-.68.25-.8.36s-.14.33-.12.5c0,.03-.02.04-.05.07-.06.05-.15.08-.23.04-.17-.22-.4-.52-1.09-1.31l-6.28-7.18c-.78-.89-.87-.96-1.56-.84l-.23.04c-.12.02-.3-.19-.26-.3.23-.44.78-1.27,1.09-2.07.06-.05.15-.08.23-.04.43.55.99,1.26,1.57,1.92l2.49,2.84c.22.26.34.26.43.18.19-.57.56-1.37,1.3-2.01,1.71-1.5,4.01-1.22,5.45.43,1.75,2,1.53,4.66-.48,6.43ZM200.49,45.5c-1.16-2.24-.31-4.71,1.79-5.8,1.99-1.03,4.38-.38,5.51,1.8,1.15,2.22.46,4.61-1.76,5.76-2.04,1.06-4.39.46-5.54-1.76ZM206.25,130.05c-.89.78-1.92,1.03-2.51,1.03-.54,0-1.19-.18-1.19-.74,0-.24.18-.47.47-.47s.44.24.58.43c.16.23.3.36.64.36.78,0,2.15-1.02,2.15-2.35,0-1.06-.5-1.96-1.55-1.96-.59,0-1.02.29-1.29.59-.19-.02-.34-.19-.26-.42.46-.2,1.44-.65,1.92-1.04.26-.22.64-.58.64-1.15,0-.63-.44-1.03-.98-1.03-.71,0-1.25.44-1.62,1.06-.12.02-.25-.05-.25-.17.37-.84,1.25-1.45,2.17-1.45.98,0,1.67.53,1.67,1.38,0,.49-.19.96-1.28,1.54-.06.12,0,.17.14.18.91.07,1.74.71,1.74,1.85,0,.86-.42,1.73-1.16,2.38ZM213.08,130.45c-.49-.02-1-.04-1.55-.04h-1.74c-.67,0-1.07.01-1.33.04-.02-.01-.08-.06-.08-.16,0-.04.06-.08.13-.13.55-.36.95-.77,1.83-1.73.79-.85,1.72-2.02,1.72-3.3,0-1.09-.53-1.75-1.5-1.75-.72,0-1.23.49-1.56,1.2-.11.06-.29,0-.29-.16.38-1.06,1.33-1.69,2.41-1.69,1.2,0,1.98.8,1.98,1.96,0,.74-.35,1.56-1.28,2.64l-.73.84c-.98,1.13-1.09,1.32-1.09,1.39,0,.08.06.11.37.11h1.49c.55,0,.91-.07,1.13-.26.23-.2.31-.36.38-.49.08-.04.22,0,.26.07-.16.6-.37,1.22-.55,1.46ZM213.71,114.18c-.35-.02-.76-.04-1.14-.04-.48,0-.9.01-1.25.04-.1-.05-.11-.25-.02-.3l.22-.04c.18-.02.3-.05.3-.12s-.05-.16-.2-.34l-1.28-1.49c-.11-.12-.24-.17-.37-.17-.22,0-.23.04-.23.41v.66c0,.86.02.98.46,1.04l.29.04c.08.06.06.26-.02.3-.4-.02-.74-.04-1.16-.04s-.79.01-1.15.04c-.08-.04-.11-.24-.01-.3l.26-.04c.44-.06.46-.18.46-1.04v-5.42c0-.71-.01-.78-.37-1l-.12-.07c-.06-.04-.06-.2,0-.24.3-.1.86-.28,1.3-.5.05,0,.1.02.12.07-.01.36-.04.96-.04,1.49v4.11c0,.16.01.18.22.18.26,0,.49-.13.82-.47l.49-.53c.34-.36.42-.49.42-.55s-.06-.1-.26-.12l-.29-.04c-.11-.04-.11-.26,0-.3h.28c.53,0,1.24-.02,1.91-.1.08.04.1.24.02.3l-.38.07c-.24.05-.44.17-.76.42-.47.37-.88.8-1.09,1.01-.14.13-.16.19-.08.29.2.28.4.5.8.96.47.53.89,1,1.13,1.22.17.16.41.23.62.26l.17.02c.08.06.07.26-.02.3ZM213.99,111.96c0-1.48.97-2.71,2.41-2.71,1.03,0,1.7.71,1.7,1.43,0,.17-.02.26-.05.31-.04.07-.2.08-.71.08h-2.22c-.31,0-.32.02-.32.32,0,1.21.71,2.24,1.99,2.24.4,0,.73-.12,1.1-.59.12-.04.2.04.22.14-.4.82-1.26,1.12-1.88,1.12-.78,0-1.39-.34-1.74-.79-.36-.47-.5-1.03-.5-1.56ZM217.06,130.58c-1.75,0-2.48-2.04-2.48-3.92s.73-3.92,2.48-3.92,2.48,2.11,2.48,3.92-.73,3.92-2.48,3.92ZM221.14,113.78c.12,0,.23-.02.32-.06.11-.04.26-.17.3-.17.1,0,.14.13.12.2-.22.25-.65.55-1.26.55-1.03,0-1.25-.58-1.25-1.29v-2.75c0-.32-.01-.35-.25-.35h-.34c-.07-.05-.08-.18-.04-.25.35-.11.65-.26.77-.37.16-.14.38-.47.5-.71.06-.02.2-.02.25.06v.54c0,.22.01.23.22.23h1.33c.14.11.12.43.01.5h-1.35c-.2,0-.22.04-.22.29v2.24c0,.7.08,1.33.88,1.33ZM222.44,111.93c0-1.29.91-2.67,2.9-2.67.28,0,.74.06,1.07.2.1.08.18.28.18.48,0,.22-.12.44-.26.44-.06,0-.12-.02-.17-.08-.26-.32-.71-.64-1.2-.64-.84,0-1.66.66-1.66,1.93,0,.94.65,2.05,1.93,2.05.7,0,1.05-.31,1.33-.72.1-.02.2.06.22.17-.41.89-1.31,1.22-2,1.22-.64,0-1.22-.2-1.64-.61-.42-.41-.7-1-.7-1.78ZM225.8,130.58c-.22,0-.55-.02-.66-.05-.11.02-.17.08-.17.34v1.26c0,.85.02.96.46,1.02l.47.06c.08.06.06.26-.02.3-.58-.02-.92-.04-1.34-.04s-.79.01-1.13.04c-.08-.04-.11-.24-.02-.3l.25-.04c.44-.06.46-.18.46-1.04v-5.16c0-.47,0-.53-.32-.74l-.11-.07s-.05-.18.01-.22c.31-.13.88-.42,1.19-.65.07,0,.12.02.14.08-.02.22-.05.4-.05.55,0,.08.02.16.11.16.16-.07.91-.56,1.68-.56,1.21,0,1.99.98,1.99,2.2,0,1.67-1.22,2.87-2.93,2.87ZM229.44,114.18c-.36-.02-.71-.04-1.13-.04s-.79.01-1.17.04c-.08-.04-.11-.24-.02-.3l.3-.04c.44-.05.46-.18.46-1.04v-5.42c0-.71-.01-.78-.37-1l-.12-.07c-.06-.04-.06-.2,0-.24.3-.1.86-.28,1.3-.5.05,0,.1.02.12.07-.01.36-.04.96-.04,1.49v2.52c0,.11.01.2.05.23.43-.34,1.01-.62,1.62-.62,1.14,0,1.55.71,1.55,1.55v2c0,.86.02,1,.46,1.04l.32.04c.08.06.06.26-.02.3-.43-.02-.78-.04-1.2-.04s-.79.01-1.12.04c-.08-.04-.11-.24-.02-.3l.24-.04c.44-.07.46-.18.46-1.04v-1.72c0-.77-.37-1.28-1.14-1.28-.41,0-.72.14-.94.32-.22.18-.25.24-.25.66v2.02c0,.86.02.98.46,1.04l.25.04c.08.05.06.26-.02.3ZM233.08,130.58c-.29,0-.58-.11-.78-.37-.05-.07-.12-.17-.19-.17-.08,0-.23.11-.47.24-.26.14-.53.3-.86.3s-.64-.1-.84-.28c-.23-.2-.37-.5-.37-.84,0-.47.23-.74,1-1.02l1.43-.52c.18-.06.2-.17.2-.35v-.55c.02-.44-.12-1.04-.86-1.04-.34,0-.74.17-.77.54-.01.19-.02.34-.12.41-.18.14-.5.23-.68.23-.11,0-.17-.06-.17-.17,0-.62,1.36-1.48,2.23-1.48s1.28.5,1.25,1.4l-.07,2.09c-.02.55.08,1.04.55,1.04.12,0,.23-.04.3-.07.06-.04.12-.08.16-.08.05,0,.08.07.08.16,0,.06-.42.53-1.01.53ZM239.27,126.44h-.86c.02.2.02.41.02.61,0,.83-.49,1.91-2.01,1.91-.22,0-.38-.02-.53-.04-.14.08-.53.31-.53.66,0,.28.28.5.84.5.41,0,.9-.04,1.43-.04.67,0,1.68.12,1.68,1.32,0,1.31-1.43,2.27-2.99,2.27-1.48,0-1.99-.79-1.99-1.39,0-.19.05-.35.13-.44.2-.22.54-.53.82-.8.11-.11.2-.22.1-.29-.47-.12-.88-.53-.88-.95,0-.06.05-.11.18-.2.2-.13.43-.34.64-.55.06-.07.12-.17.12-.23-.41-.22-.9-.68-.9-1.45,0-1.03.89-1.81,1.95-1.81.46,0,.88.12,1.15.24.38.17.47.19.73.19h.97c.13.06.11.47-.07.49ZM239.6,114.18c-.68-.02-1.08-.04-1.56-.04-.5,0-.94.01-1.46.04-.07-.04-.1-.23-.02-.3l.25-.04c.7-.1.72-.24.72-1.5v-4.43c0-1.02-.02-1.22-.56-1.28l-.43-.05c-.08-.07-.07-.25.02-.3.64-.08,1.38-.1,2.38-.1s1.74.13,2.3.48c.55.35.96.97.96,1.8,0,1.1-.68,1.66-1.2,1.91-.53.25-1.16.36-1.66.36-.08-.04-.08-.22-.01-.24,1.3-.24,1.76-.97,1.76-2.02,0-1.16-.68-1.92-1.93-1.92-.64,0-.65.05-.65.43v5.35c0,1.26.02,1.42.79,1.5l.32.04c.07.06.05.26-.02.3ZM242.01,130.58c-.78,0-1.39-.34-1.74-.79-.36-.47-.5-1.03-.5-1.56,0-1.48.97-2.71,2.41-2.71,1.03,0,1.7.71,1.7,1.43,0,.17-.02.26-.05.31-.04.07-.2.08-.71.08h-2.22c-.31,0-.32.02-.32.32,0,1.21.71,2.24,1.99,2.24.4,0,.73-.12,1.1-.59.12-.04.2.04.22.14-.4.82-1.26,1.12-1.88,1.12ZM245.89,130.58c-.56,0-.98-.12-1.28-.36-.1-.23-.17-.82-.14-1.21.06-.07.22-.08.28-.01.2.66.59,1.24,1.27,1.24.43,0,.8-.25.8-.77,0-.55-.48-.85-.92-1.1-.7-.4-1.19-.82-1.19-1.48,0-.88.72-1.37,1.63-1.37.5,0,.95.12,1.06.22.11.26.19.65.19.97-.05.08-.23.11-.29.04-.2-.53-.56-.88-1.06-.88s-.77.3-.77.73c0,.49.5.75.92,1,.64.36,1.22.77,1.22,1.62,0,.91-.84,1.37-1.73,1.37ZM249.65,114.31c-.22,0-.55-.02-.66-.05-.11.02-.17.08-.17.34v1.26c0,.85.02.96.46,1.02l.47.06c.08.06.06.26-.02.3-.58-.02-.92-.04-1.34-.04s-.79.01-1.13.04c-.08-.04-.11-.24-.02-.3l.25-.04c.44-.06.46-.18.46-1.04v-5.16c0-.47,0-.53-.32-.74l-.11-.07s-.05-.18.01-.22c.31-.13.88-.42,1.19-.65.07,0,.12.02.14.08-.02.22-.05.4-.05.55,0,.08.02.16.11.16.16-.07.91-.56,1.68-.56,1.21,0,1.99.98,1.99,2.2,0,1.67-1.22,2.87-2.93,2.87ZM255.67,114.31c-.78,0-1.39-.34-1.74-.79-.36-.47-.5-1.03-.5-1.56,0-1.48.97-2.71,2.41-2.71,1.03,0,1.7.71,1.7,1.43,0,.17-.02.26-.05.31-.04.07-.2.08-.71.08h-2.22c-.31,0-.32.02-.32.32,0,1.21.71,2.24,1.99,2.24.4,0,.73-.12,1.1-.59.12-.04.2.04.22.14-.4.82-1.26,1.12-1.88,1.12ZM261.2,110.28c-.12,0-.18-.04-.26-.08-.18-.12-.36-.19-.53-.19-.19,0-.34.11-.43.24-.12.17-.16.52-.16.92v1.63c0,.86.02,1.01.48,1.04l.43.04c.08.06.06.26-.02.3-.56-.02-.91-.04-1.33-.04s-.79.01-1.1.04c-.08-.04-.11-.24-.02-.3l.23-.04c.44-.07.46-.18.46-1.04v-2.1c0-.47,0-.53-.32-.74l-.11-.07s-.05-.18.01-.22c.28-.1.91-.41,1.21-.59.06.01.1.04.1.08v.7c0,.06.01.1.04.11.42-.35.88-.72,1.32-.72.3,0,.54.19.54.48,0,.4-.32.55-.52.55ZM264.5,94.96c0,.64-.35,1.24-.91,1.56l-2.91,1.68s0,0,0,0h0c-.26.15-.57.23-.88.23h-9.72c-.99,0-1.79-.8-1.79-1.79v-17.91c0-.64.35-1.24.91-1.56h0s2.92-1.68,2.92-1.68c.26-.15.57-.23.88-.23h9.72c.99,0,1.79.8,1.79,1.79v17.92Z"/>
        <path class="cls-1" d="M262.71,76h-9.72c-.18,0-.36.04-.51.13l-1.39.8h9.69c.44,0,.8.36.8.8v18.91c0,.06,0,.12,0,.17l1.64-.95c.34-.19.54-.53.54-.91v-17.92c0-.57-.47-1.04-1.04-1.04Z"/>
        <path class="cls-1" d="M240.8,126.98h.85c.89,0,1.15-.05,1.25-.12.04-.02.07-.07.07-.23,0-.33-.23-.75-.92-.75s-1.32.65-1.33,1.04c0,.02,0,.06.08.06Z"/>
        <path class="cls-1" d="M214.69,43.37c1.71-.42,1.79-2.34,1.43-3.83-.41-1.65-1.58-3.59-3.43-3.13-1.28.32-1.93,1.77-1.41,3.91.43,1.77,1.7,3.47,3.41,3.05Z"/>
      </g>
      <g>
        <path class="cls-1" d="M32.01,92.77c-.39,0-.67.14-.76.25-.08.1-.11.23-.11.53v1.55c0,.29.09.4.27.54.18.14.46.2.65.2.74,0,1.17-.68,1.17-1.62,0-.72-.41-1.45-1.22-1.45Z"/>
        <path class="cls-1" d="M36.39,92.61c-.59,0-1.04.57-1.04,1.56,0,.82.37,1.7,1.16,1.7s1.04-.83,1.04-1.52c0-.77-.31-1.74-1.16-1.74Z"/>
        <path class="cls-1" d="M31.47,59.45c.05-.05.06-.19.06-.33v-1.77c0-.18-.04-.26-.1-.35-.13-.19-.41-.38-.76-.38-.82,0-1.24.71-1.24,1.49s.46,1.59,1.34,1.59c.24,0,.55-.11.69-.25Z"/>
        <path class="cls-1" d="M25.69,92.89c-.64,0-.74,1.01-.74,1.49s.1,1.49.74,1.49.72-1.03.72-1.49-.07-1.49-.72-1.49Z"/>
        <path class="cls-1" d="M25.91,57.43h.64c.67,0,.86-.04.94-.09.03-.02.05-.05.05-.17,0-.25-.17-.57-.69-.57s-.99.49-1,.78c0,.02,0,.04.06.04Z"/>
        <path class="cls-1" d="M35.7,81.43h.64c.67,0,.86-.04.94-.09.03-.02.05-.05.05-.17,0-.25-.17-.57-.69-.57s-.99.49-1,.78c0,.02,0,.04.06.04Z"/>
        <path class="cls-1" d="M17.97,59.86c.79,0,1.04-.83,1.04-1.52,0-.77-.31-1.74-1.16-1.74-.59,0-1.04.57-1.04,1.56,0,.82.37,1.7,1.16,1.7Z"/>
        <path class="cls-1" d="M17.61,90.52c-.99,0-1.06,1.83-1.06,2.67s.07,2.67,1.06,2.67,1.06-1.83,1.06-2.67-.07-2.67-1.06-2.67Z"/>
        <path class="cls-1" d="M29.32,30.11c1.28,1.06,3.47,1.95,4.77.37.87-1.05.79-2.55-1.07-4.09-1.4-1.15-3.53-1.86-4.75-.39-.76.92-.92,2.49,1.05,4.12Z"/>
        <path class="cls-1" d="M21.65,93.49c.65,0,.72-1.03.72-1.49s-.07-1.49-.72-1.49-.74,1.01-.74,1.49.1,1.49.74,1.49Z"/>
        <path class="cls-1" d="M19.94,69.43h.64c.67,0,.86-.04.94-.09.03-.02.05-.05.05-.17,0-.25-.17-.57-.69-.57s-.99.49-1,.78c0,.02,0,.04.06.04Z"/>
        <path class="cls-1" d="M24.71,68.61c-.82,0-1.24.71-1.24,1.49s.46,1.59,1.34,1.59c.24,0,.55-.11.69-.25.05-.05.06-.19.06-.33v-1.77c0-.18-.04-.26-.1-.35-.13-.19-.41-.38-.76-.38Z"/>
        <path class="cls-1" d="M13.75,79.59c-.07-.22-.15-.46-.21-.57h-.02s-.12.26-.22.53l-.57,1.57c-.07.21-.06.22.19.22h1.11c.26,0,.28-.04.2-.28l-.49-1.47Z"/>
        <path class="cls-1" d="M17.5,104.61c-.59,0-1.04.57-1.04,1.56,0,.82.37,1.7,1.16,1.7s1.04-.83,1.04-1.52c0-.77-.31-1.74-1.16-1.74Z"/>
        <path class="cls-1" d="M24.67,83.7c.24,0,.55-.11.69-.25.05-.05.06-.19.06-.33v-1.77c0-.18-.04-.26-.1-.35-.13-.19-.41-.38-.76-.38-.82,0-1.24.71-1.24,1.49s.46,1.59,1.34,1.59Z"/>
        <path class="cls-1" d="M44.39,58.43c-.05,0-.21.04-.37.09-.53.18-.79.31-.79.67,0,.15.11.54.57.54.18,0,.46-.13.55-.22.11-.11.11-.23.12-.42l.02-.53c0-.1-.04-.12-.09-.12Z"/>
        <path class="cls-1" d="M65.13,106.43c-.05,0-.21.04-.37.09-.53.18-.79.31-.79.67,0,.15.11.54.57.54.18,0,.46-.13.55-.22.11-.11.11-.23.12-.42l.02-.53c0-.1-.04-.12-.09-.12Z"/>
        <path class="cls-1" d="M37.17,58.66c.49,0,.74-.39.74-.94,0-.61-.25-1.13-.8-1.13-.43,0-.76.4-.76,1.01s.39,1.05.82,1.05Z"/>
        <path class="cls-1" d="M53.04,95.86c.79,0,1.04-.83,1.04-1.52,0-.77-.31-1.74-1.16-1.74-.59,0-1.04.57-1.04,1.56,0,.82.37,1.7,1.16,1.7Z"/>
        <path class="cls-1" d="M60.38,57.43h.64c.67,0,.86-.04.94-.09.03-.02.05-.05.05-.17,0-.25-.17-.57-.69-.57s-.99.49-1,.78c0,.02,0,.04.06.04Z"/>
        <path class="cls-1" d="M64.76,69.43h.64c.67,0,.86-.04.94-.09.03-.02.05-.05.05-.17,0-.25-.17-.57-.69-.57s-.99.49-1,.78c0,.02,0,.04.06.04Z"/>
        <path class="cls-1" d="M45.36,106.43c-.05,0-.21.04-.37.09-.53.18-.79.31-.79.67,0,.15.11.54.57.54.18,0,.46-.13.55-.22.11-.11.11-.23.12-.42l.02-.53c0-.1-.04-.12-.09-.12Z"/>
        <path class="cls-1" d="M39.26,81.43h.64c.67,0,.86-.04.94-.09.03-.02.05-.05.05-.17,0-.25-.17-.57-.69-.57s-.99.49-1,.78c0,.02,0,.04.06.04Z"/>
        <path class="cls-1" d="M44.68,122.63c.46,0,.93-.13,1.4-.47.69-.5,1.03-1.42,1.03-2.05,0-.57-.12-1.61-1.59-1.6-.24,0-.28.04-.37.33l-.96,3.09c-.08.25-.08.4-.01.5.06.1.2.2.5.2Z"/>
        <path class="cls-1" d="M54.7,105.34c0-.18-.04-.26-.1-.35-.13-.19-.4-.38-.76-.38-.82,0-1.24.71-1.24,1.49s.46,1.59,1.34,1.59c.24,0,.55-.11.69-.25.05-.05.06-.19.06-.33v-1.77Z"/>
        <rect class="cls-1" x="55.09" y="37.42" width="13.53" height="2.02"/>
        <path class="cls-1" d="M37.35,62.04c.8,0,1.33-.45,1.33-.96,0-.55-.38-.78-1.03-.78h-.31c-.29,0-.65.02-.77.1-.22.13-.43.41-.43.76,0,.49.39.89,1.21.89Z"/>
        <path class="cls-1" d="M52.61,18.8c.02,1.16.12,1.79,1.39,1.76,2.13-.04,3.06-1.57,3.02-3.6-.05-2.37-1.45-3.5-3.45-3.46-.5.01-.88.11-.97.19-.08.07-.09.33-.08.89l.09,4.22Z"/>
        <path class="cls-1" d="M69.24,44.23c-.18,0-.18.02-.18.1v.58c0,.36.04.51.39.51.28,0,.52-.18.52-.54,0-.41-.28-.66-.72-.66Z"/>
        <path class="cls-1" d="M69.23,44.08c.38,0,.55-.15.55-.51s-.26-.49-.51-.49c-.2,0-.21,0-.21.17v.72c0,.1.01.11.17.11Z"/>
        <path class="cls-1" d="M58.01,71.73c.18,0,.46-.13.55-.22.11-.11.11-.23.12-.42l.02-.53c0-.1-.04-.12-.09-.12s-.21.04-.37.09c-.53.18-.79.31-.79.67,0,.15.11.54.57.54Z"/>
        <path class="cls-1" d="M89.06,104.61c-.82,0-1.24.71-1.24,1.49s.46,1.59,1.34,1.59c.24,0,.55-.11.69-.25.05-.05.06-.19.06-.33v-1.77c0-.18-.04-.26-.1-.35-.13-.19-.41-.38-.76-.38Z"/>
        <path class="cls-1" d="M78.85,128.79c-.67,1.19-.33,2.65,1.77,3.84,1.58.89,3.8,1.22,4.74-.44.59-1.04.47-2.61-1.75-3.87-1.44-.81-3.75-1.31-4.76.48Z"/>
        <path class="cls-1" d="M75.58,93.43h.64c.67,0,.86-.04.94-.09.03-.02.05-.05.05-.17,0-.25-.17-.57-.69-.57s-.99.49-1,.78c0,.02,0,.04.06.04Z"/>
        <path class="cls-1" d="M82.83,58.43c-.05,0-.21.04-.37.09-.53.18-.79.31-.79.67,0,.15.11.54.57.54.18,0,.46-.13.55-.22.11-.11.11-.23.12-.42l.02-.53c0-.1-.04-.12-.09-.12Z"/>
        <path class="cls-1" d="M55.77,127.58s.1.05.15.08c-.02-.06-.05-.11-.06-.13-.02,0-.05.02-.08.05Z"/>
        <path class="cls-1" d="M31.42,104.6c-.43,0-.76.4-.76,1.01s.39,1.05.82,1.05c.49,0,.74-.39.74-.94,0-.61-.25-1.13-.8-1.13Z"/>
        <path class="cls-1" d="M86,59.64c.18.14.46.2.65.2.74,0,1.17-.68,1.17-1.62,0-.72-.41-1.45-1.21-1.45-.39,0-.67.14-.77.25-.08.1-.11.23-.11.53v1.55c0,.29.09.4.27.54Z"/>
        <path class="cls-1" d="M80.06,30.42c.2.27.24.3.42.05l.88-1.25c.39-.55.57-.76.61-.86v-.02c-.11,0-.46.11-1.04.28l-1.46.38c-.35.1-.34.12-.17.36l.76,1.06Z"/>
        <path class="cls-1" d="M80.64,76.38c0,4.38,3.55,7.93,7.93,7.93s7.93-3.55,7.93-7.93-3.55-7.93-7.93-7.93-7.93,3.55-7.93,7.93ZM95.5,76.38h-13.86c0-3.82,3.11-6.93,6.93-6.93s6.93,3.11,6.93,6.93Z"/>
        <path class="cls-1" d="M95.83,106.43c-.05,0-.21.04-.37.09-.53.18-.79.31-.79.67,0,.15.11.54.57.54.18,0,.46-.13.55-.22.11-.11.11-.23.12-.42l.02-.53c0-.1-.04-.12-.09-.12Z"/>
        <path class="cls-1" d="M77.8,59.64c.18.14.46.2.65.2.74,0,1.17-.68,1.17-1.62,0-.72-.41-1.45-1.22-1.45-.39,0-.67.14-.76.25-.08.1-.11.23-.11.53v1.55c0,.29.09.4.27.54Z"/>
        <path class="cls-1" d="M104.45,46.05h-6.47c-1.19-22.67-19.94-40.68-42.9-40.68h0c-22.96,0-41.71,18.01-42.9,40.68h-6.47c-2.56,0-4.63,2.08-4.63,4.63v62.37c0,2.56,2.08,4.63,4.63,4.63h6.47c1.19,22.67,19.94,40.68,42.9,40.68h0c22.96,0,41.71-18.01,42.9-40.68h6.47c2.56,0,4.63-2.08,4.63-4.63v-62.37c0-2.56-2.07-4.63-4.63-4.63ZM98.49,76.38c0,5.48-4.44,9.92-9.92,9.92s-9.92-4.44-9.92-9.92,4.44-9.92,9.92-9.92,9.92,4.44,9.92,9.92ZM92.8,94.37c0-1.11.73-2.03,1.81-2.03.77,0,1.28.53,1.28,1.07,0,.13-.02.2-.04.23-.03.05-.15.06-.53.06h-1.67c-.23,0-.24.02-.24.24,0,.91.53,1.68,1.49,1.68.3,0,.55-.09.83-.44.09-.03.15.03.16.11-.3.61-.95.84-1.41.84-.58,0-1.04-.25-1.31-.59-.27-.35-.38-.77-.38-1.17ZM92.98,102.86c0,.32-.22.47-.48.47-.28,0-.46-.21-.46-.45,0-.3.22-.49.49-.49s.45.22.45.47ZM85.62,107.63c.3,0,.55-.09.83-.44.09-.03.15.03.16.11-.3.61-.95.84-1.41.84-.58,0-1.04-.25-1.31-.59-.27-.35-.38-.77-.38-1.17,0-1.11.73-2.03,1.81-2.03.77,0,1.28.53,1.28,1.07,0,.13-.02.2-.04.23-.03.05-.15.06-.53.06h-1.67c-.23,0-.24.02-.24.24,0,.91.53,1.68,1.49,1.68ZM86.05,96.04c-.06-.03-.08-.18-.02-.23l.19-.03c.33-.04.34-.14.34-.78v-1.57c0-.55-.06-.59-.45-.59h-1.12c-.15,0-.17.06-.17.28v1.88c0,.65.02.76.34.78l.29.03c.06.05.04.2-.02.23-.37-.02-.63-.03-.95-.03s-.59,0-.86.03c-.06-.03-.08-.18-.02-.23l.21-.03c.33-.04.34-.14.34-.78v-1.9c0-.24,0-.26-.18-.26h-.32c-.05-.04-.06-.12-.03-.17l.39-.19c.07-.04.14-.09.14-.18,0-.51.07-1.04.28-1.51.19-.46.74-1.22,1.75-1.22.61,0,1.12.32,1.12.7,0,.27-.23.37-.37.37-.13,0-.19-.06-.23-.13-.26-.44-.61-.59-.85-.59-.7,0-1.03.77-1.03,2.17v.1c0,.23.02.28.17.28h1.01c.4,0,.96-.05,1.18-.13.04,0,.07.02.09.04-.02.32-.04.76-.04,1.12v1.49c0,.65.02.74.34.78l.19.03c.06.05.04.2-.02.23-.27-.02-.53-.03-.85-.03s-.59,0-.85.03ZM80.93,104.77c-.34,0-.62.15-.75.32-.11.13-.13.23-.13.54v1.38c0,.65.02.74.34.78l.19.03c.06.05.04.2-.02.23-.27-.02-.53-.03-.85-.03s-.57,0-.82.03c-.06-.03-.08-.18-.02-.23l.16-.03c.33-.05.34-.14.34-.78v-1.31c0-.6-.27-.93-.83-.93-.37,0-.62.16-.76.32-.09.11-.13.23-.13.51v1.4c0,.65.02.73.34.78l.16.03c.06.05.04.2-.02.23-.24-.02-.5-.03-.82-.03s-.59,0-.87.03c-.06-.03-.08-.18-.02-.23l.22-.03c.33-.04.34-.14.34-.78v-1.58c0-.35,0-.4-.24-.56l-.08-.05s-.04-.14,0-.16c.21-.07.72-.31.9-.44.04,0,.08.02.1.06-.02.21-.02.34-.02.42,0,.05.04.1.1.1.34-.24.77-.46,1.2-.46s.7.16.96.53c.08.02.14-.02.22-.07.36-.25.8-.46,1.22-.46.72,0,1.07.5,1.07,1.12v1.55c0,.65.02.74.34.78l.22.03c.06.05.04.2-.02.23-.3-.02-.56-.03-.87-.03s-.57,0-.82.03c-.06-.03-.08-.18-.02-.23l.16-.03c.33-.05.34-.14.34-.78v-1.31c0-.61-.27-.93-.84-.93ZM76.62,56.87l-.08-.05s-.04-.14,0-.16c.23-.1.66-.31.89-.49.05,0,.09.02.11.06-.02.16-.04.3-.04.41,0,.06.02.12.08.12.12-.05.68-.42,1.26-.42.91,0,1.49.74,1.49,1.65,0,1.25-.92,2.15-2.2,2.15-.16,0-.41-.02-.5-.04-.08.02-.13.06-.13.25v.95c0,.64.02.72.34.77l.35.04c.06.04.04.2-.02.23-.43-.02-.69-.03-1.01-.03s-.59,0-.85.03c-.06-.03-.08-.18-.02-.23l.19-.03c.33-.05.34-.14.34-.78v-3.87c0-.35,0-.4-.24-.56ZM79.63,92.88c.31-.26.66-.54.99-.54.22,0,.4.14.4.36,0,.3-.24.41-.39.41-.09,0-.13-.03-.2-.06-.13-.09-.27-.14-.4-.14-.14,0-.25.08-.32.18-.09.13-.12.39-.12.69v1.22c0,.65.02.76.36.78l.32.03c.06.05.05.2-.02.23-.42-.02-.68-.03-1-.03s-.59,0-.83.03c-.06-.03-.08-.18-.02-.23l.17-.03c.33-.05.34-.14.34-.78v-1.58c0-.35,0-.4-.24-.56l-.08-.05s-.04-.14,0-.16c.21-.07.68-.31.91-.44.04,0,.07.03.07.06v.52s0,.07.03.08ZM76.61,92.34c.77,0,1.28.53,1.28,1.07,0,.13-.02.2-.04.23-.03.05-.15.06-.53.06h-1.67c-.23,0-.24.02-.24.24,0,.91.53,1.68,1.5,1.68.3,0,.55-.09.83-.44.09-.03.15.03.16.11-.3.61-.95.84-1.41.84-.58,0-1.04-.25-1.3-.59-.27-.35-.38-.77-.38-1.17,0-1.11.73-2.03,1.81-2.03ZM82.3,56.69c-.25,0-.56.13-.58.4,0,.14-.02.25-.09.31-.13.11-.38.17-.51.17-.08,0-.13-.04-.13-.13,0-.47,1.02-1.11,1.67-1.11s.96.38.94,1.05l-.05,1.57c-.02.41.06.78.41.78.09,0,.17-.03.22-.05.05-.03.09-.06.12-.06.04,0,.06.05.06.12,0,.04-.32.4-.76.4-.22,0-.43-.08-.58-.28-.04-.05-.09-.13-.14-.13-.06,0-.17.08-.35.18-.2.11-.4.23-.65.23s-.48-.07-.63-.21c-.17-.15-.28-.38-.28-.63,0-.35.17-.56.75-.77l1.07-.39c.13-.04.15-.13.15-.26v-.41c.02-.33-.09-.78-.65-.78ZM84.82,56.87l-.08-.05s-.04-.14,0-.16c.23-.1.66-.31.89-.49.05,0,.09.02.11.06-.02.16-.04.3-.04.41,0,.06.02.12.08.12.12-.05.68-.42,1.26-.42.91,0,1.49.74,1.49,1.65,0,1.25-.92,2.15-2.2,2.15-.16,0-.41-.02-.5-.04-.08.02-.13.06-.13.25v.95c0,.64.02.72.34.77l.35.04c.06.04.04.2-.02.23-.43-.02-.69-.03-1.01-.03s-.59,0-.85.03c-.06-.03-.08-.18-.02-.23l.19-.03c.33-.05.34-.14.34-.78v-3.87c0-.35,0-.4-.24-.56ZM92.8,59.81l.17-.03c.33-.05.34-.14.34-.78v-1.58c0-.35,0-.4-.24-.56l-.08-.05s-.04-.14,0-.16c.21-.07.68-.31.91-.44.04,0,.07.03.07.06v.52s0,.07.03.08c.32-.26.66-.54.99-.54.23,0,.41.14.41.36,0,.3-.24.41-.39.41-.09,0-.14-.03-.2-.06-.14-.09-.27-.14-.4-.14-.14,0-.25.08-.32.18-.09.13-.12.39-.12.69v1.22c0,.65.02.76.36.78l.32.03c.06.05.04.2-.02.23-.42-.02-.68-.03-1-.03s-.59,0-.83.03c-.06-.03-.08-.18-.02-.23ZM90.99,56.34c.77,0,1.28.53,1.28,1.07,0,.13-.02.2-.04.23-.03.05-.15.06-.53.06h-1.67c-.23,0-.24.02-.24.24,0,.91.53,1.68,1.49,1.68.3,0,.55-.09.83-.44.09-.03.15.03.16.11-.3.61-.95.84-1.41.84-.58,0-1.04-.25-1.31-.59-.27-.35-.38-.77-.38-1.17,0-1.11.73-2.03,1.81-2.03ZM85.91,31.91l-.05-.32c.05-.1.27-.16.34-.09.17.49.35.96.53,1.42.2.49.48,1.16.61,1.41,0,.11-.2.21-.31.15l-.19-.31c-.11-.16-.15-.21-.24-.18s-.2.12-.5.43c-.78.82-1.51,1.61-2.14,2.38.97.14,2,.27,3.01.36.45.04.74.05.87,0,.11-.04.1-.16.06-.32l-.08-.43c.05-.11.24-.19.34-.09.18.5.3.85.44,1.18.14.35.29.7.46,1.04-.02.12-.19.19-.31.15l-.2-.3c-.3-.46-.56-.51-1.77-.69-.79-.12-1.53-.21-2.3-.3-.71-.1-.98-.08-1.74.22l-.67.27c-1.18.48-1.17.59-1.01,1.16l.13.44c-.05.11-.25.18-.33.11-.26-.7-.45-1.2-.65-1.69-.21-.51-.42-1.01-.69-1.6,0-.11.2-.2.31-.15l.19.34c.28.5.34.59,1.52.11l.66-.27c.62-.25.77-.38,1.24-.91l2.1-2.4c.38-.44.46-.58.37-1.12ZM74.01,18.95l-.22-.22c-.01-.12.1-.27.22-.26.64.41,1.46,1.01,2.24,1.62.74.58,1.3,1.18,1.54,1.73.28.63.28,1.35-.25,2.03-.68.87-1.69.77-2.3.6-.08-.02-.12.07-.13.16-.25,1.87-.41,3.04-.25,3.75.04.18.1.33.16.45,0,0,0,0,.01,0l.26.26c.25.25.41.3.83.22.34-.06.86-.2,1.53-.37l4.43-1.14c.4-.11.7-.18.84-.32.31.29.94.33.96.35.06.08.06.15.04.22-.33.47-.7.92-1.02,1.4l-3.09,4.33c-.49.69-.52.78-.26,1.35l.08.17c-.01.13-.18.25-.28.21-.27-.41-.51-.78-.88-1.29-.3-.42-.63-.84-.88-1.17,0-.11.16-.25.26-.23l.18.19c.3.32.39.32.7-.12l1-1.41c.2-.28.17-.32-.02-.59l-.96-1.35c-.18-.25-.17-.24-.5-.14l-1.45.45c-.72.22-.64.36-.45.76l.15.32c-.02.12-.2.23-.3.18-.2-.33-.47-.7-.74-1.11-.17-.24-.35-.47-.53-.71-.12-.07-.26-.16-.46-.32-.91-.71-1.11-1.47-.99-2.79.06-.6.2-1.32.26-1.87.05-.42-.02-.54-.33-.78-.28-.22-.3-.22-.46-.02l-.95,1.21c-.79,1-.72,1.09-.33,1.5l.19.19c.01.12-.13.28-.23.26-.4-.35-.82-.69-1.23-1.01-.42-.33-.85-.65-1.3-.97-.04-.1.06-.29.2-.29l.23.13c.49.29.59.33,1.38-.67l2.71-3.45c.71-.91.79-1.03.38-1.42ZM72.4,107.44l-.96-1.12c-.08-.09-.18-.13-.28-.13-.16,0-.17.03-.17.31v.5c0,.65.02.74.34.78l.22.03c.06.05.04.2-.02.23-.3-.02-.56-.03-.87-.03s-.59,0-.86.03c-.06-.03-.08-.18,0-.23l.2-.03c.33-.04.34-.14.34-.78v-4.07c0-.53,0-.58-.28-.75l-.09-.05s-.05-.15,0-.18c.22-.07.65-.21.97-.38.04,0,.07.02.09.05,0,.27-.03.72-.03,1.12v3.09c0,.12,0,.14.16.14.2,0,.37-.1.61-.35l.37-.4c.25-.27.32-.37.32-.41s-.04-.07-.2-.09l-.22-.03c-.08-.03-.08-.2,0-.23h.21c.4,0,.93-.02,1.43-.07.06.03.07.18.02.23l-.29.05c-.18.04-.33.13-.57.31-.35.28-.66.6-.82.76-.11.1-.12.14-.06.22.15.21.3.38.6.72.35.4.67.75.85.92.13.12.31.17.47.2l.13.02c.06.05.05.2-.02.23-.26-.02-.57-.03-.85-.03-.36,0-.68,0-.94.03-.07-.04-.08-.19-.02-.23l.16-.03c.14-.02.23-.04.23-.09s-.04-.12-.15-.25ZM73.39,96.01c-.32,0-.57,0-.82.03-.06-.03-.08-.18-.02-.23l.16-.03c.33-.05.34-.14.34-.78v-1.31c0-.61-.27-.93-.84-.93-.34,0-.62.15-.75.32-.11.13-.14.23-.14.54v1.38c0,.65.02.74.34.78l.19.03c.06.05.04.2-.02.23-.27-.02-.53-.03-.85-.03s-.57,0-.82.03c-.06-.03-.08-.18-.02-.23l.16-.03c.33-.05.34-.14.34-.78v-1.31c0-.6-.27-.93-.83-.93-.37,0-.62.16-.76.32-.09.11-.14.23-.14.51v1.4c0,.65.02.73.34.78l.16.03c.06.05.04.2-.02.23-.24-.02-.5-.03-.82-.03s-.59,0-.87.03c-.06-.03-.08-.18-.02-.23l.22-.03c.33-.04.34-.14.34-.78v-1.58c0-.35,0-.4-.24-.56l-.08-.05s-.04-.14,0-.16c.21-.07.72-.31.9-.44.04,0,.08.02.1.06-.02.21-.02.34-.02.42,0,.05.04.1.1.1.34-.24.76-.46,1.2-.46s.7.16.95.53c.08.02.14-.02.23-.07.36-.25.8-.46,1.22-.46.72,0,1.07.5,1.07,1.12v1.55c0,.65.02.74.34.78l.22.03c.06.05.04.2-.02.23-.3-.02-.56-.03-.87-.03ZM68.51,107.78l.32.03c.06.05.05.2-.02.23-.42-.02-.68-.03-1-.03s-.59,0-.83.03c-.06-.03-.08-.18-.02-.23l.17-.03c.33-.05.34-.14.34-.78v-1.58c0-.35,0-.4-.24-.56l-.08-.05s-.04-.14,0-.16c.21-.07.68-.31.91-.44.04,0,.07.03.07.06v.52s0,.07.03.08c.31-.26.66-.54.99-.54.22,0,.4.14.4.36,0,.3-.24.41-.39.41-.09,0-.13-.03-.2-.06-.13-.09-.27-.14-.4-.14-.14,0-.25.08-.32.18-.09.13-.12.39-.12.69v1.22c0,.65.02.76.36.78ZM66.85,120.75c0,.6-.41,1.11-.97,1.38-.13.06-.32.1-.51.13-.06.04-.13.13-.13.21,0,.08.13.22.36.34.18.1.44.24.67.38.34.22.48.43.48.7,0,.55-.9.87-1.76.87-.51,0-1.23-.17-1.23-.67,0-.53.81-.83,1.2-.95-.18-.11-.26-.2-.26-.35s.26-.42.39-.55c-.22-.06-.57-.24-.57-.72,0-.34.2-.81.58-1.13.29-.25.63-.38,1.04-.38.1,0,.19.02.29.06.1.04.17.09.23.09.07,0,.2-.01.31-.04.11-.03.25-.07.32-.07.11,0,.2.07.2.24,0,.2-.13.25-.2.25s-.14-.01-.21-.04c-.07-.02-.17-.04-.22-.04-.03,0-.06.03-.06.05.01.06.04.17.04.23ZM63.22,120.39c-.12,0-.42.22-.74.62-.38.49-.72,1.13-1.07,1.86-.04.08-.13.11-.24.11-.13,0-.37-.04-.31-.24.03-.09.67-1.83.74-2.02.04-.11.06-.21-.03-.21-.14,0-.41.18-.6.36-.07,0-.11-.06-.11-.11.22-.36.73-.74,1.21-.74.25,0,.27.21.21.36l-.43,1.09h.03c.44-.62,1.09-1.45,1.69-1.45.31,0,.42.2.42.39,0,.13-.06.37-.13.55-.13.34-.46,1.11-.58,1.39-.03.08-.04.14.01.14.11,0,.45-.25.64-.48.08-.01.13.04.13.13-.24.39-.8.83-1.34.83-.13,0-.24-.13-.24-.22,0-.08.03-.18.13-.41.18-.42.42-1,.59-1.42.06-.14.11-.31.11-.42,0-.06-.01-.12-.1-.12ZM59.62,122.49c.11,0,.5-.27.7-.48.08,0,.13.07.12.14-.2.29-.87.83-1.4.83-.12,0-.22-.15-.22-.22,0-.08.01-.15.06-.27l.78-1.84c.03-.07.03-.11-.01-.11-.08,0-.38.18-.6.38-.07,0-.12-.08-.1-.14.38-.44.97-.75,1.29-.75.1,0,.21.1.23.2.01.06-.01.15-.08.3l-.78,1.83c-.03.07-.04.13.02.13ZM60.26,119.4c-.21,0-.32-.15-.32-.33,0-.22.16-.48.46-.48.2,0,.32.11.32.33,0,.25-.19.48-.46.48ZM60.36,108.13c-1,0-1.67-.78-1.67-1.73,0-1.26.95-2.07,2.18-2.07.31,0,.5.04.6.08.05,0,.05-.05.05-.13v-1.36c0-.53,0-.58-.28-.75l-.09-.05s-.04-.15,0-.18c.22-.07.65-.21.97-.38.04,0,.07.02.09.05,0,.27-.03.72-.03,1.12v3.95c0,.71,0,1.04.26,1.04.1,0,.25-.04.39-.09.06.02.07.24,0,.29-.38.05-.94.19-1.19.29-.05,0-.1-.03-.1-.07v-.15c0-.14,0-.24-.02-.28h-.04c-.4.27-.7.41-1.13.41ZM56.09,121.95c-.12.16-.29.34-.42.46-.29.28-.7.57-1.04.57-.25,0-.39-.25-.39-.39s.04-.3.14-.57l.48-1.26c.07-.18.06-.25-.01-.25-.14,0-.43.25-.62.45-.07,0-.13-.06-.13-.11.21-.34.73-.82,1.25-.82.17,0,.29.17.29.28,0,.08-.02.22-.07.34l-.46,1.23c-.12.31-.15.45-.15.53,0,.07.04.13.11.13.19,0,.5-.33.73-.61.39-.49.57-1.03.66-1.41.08-.36.26-.48.46-.48.19,0,.31.11.31.25,0,.15-.08.3-.24.61-.22.41-.38.95-.38,1.32,0,.18.06.31.21.31.2,0,.53-.22.76-.62.22-.36.33-.8.33-1.06,0-.17-.01-.32-.06-.48.03-.2.17-.34.36-.34.29,0,.37.27.36.47-.01.43-.25,1.03-.81,1.65-.53.58-1.09.83-1.39.83-.18,0-.41-.18-.41-.42,0-.16.07-.39.13-.6h-.01ZM52.96,122.52c.11,0,.39-.16.7-.46.06,0,.11.04.11.13-.31.39-.85.78-1.3.78-.17,0-.23-.14-.23-.22,0-.07.01-.15.07-.29l.25-.67h-.02c-.49.67-1.19,1.18-1.6,1.18-.22,0-.38-.2-.38-.42,0-.27.28-.98.82-1.59.32-.35.64-.57.88-.69.21-.11.38-.15.55-.15.06,0,.11.03.16.05.04.02.11.08.15.13l.18-.39s.08-.03.14-.03c.13,0,.33.04.39.17-.2.46-.64,1.61-.9,2.34-.04.09,0,.13.04.13ZM42.15,92.84h-.25c-.05-.04-.06-.14-.03-.19.26-.08.49-.2.58-.28.12-.11.29-.35.38-.53.04-.02.15-.02.19.05v.4c0,.16,0,.17.16.17h1c.11.08.09.32,0,.38h-1.02c-.15,0-.16.03-.16.22v1.68c0,.52.06,1,.66,1,.09,0,.17-.02.24-.04.08-.03.2-.13.23-.13.07,0,.11.1.09.15-.16.19-.49.41-.95.41-.77,0-.94-.43-.94-.97v-2.06c0-.24,0-.26-.19-.26ZM40.29,107.74c.09,0,.17-.02.24-.04.08-.03.2-.13.22-.13.07,0,.11.1.09.15-.16.19-.49.41-.95.41-.77,0-.94-.43-.94-.97v-2.06c0-.24,0-.26-.19-.26h-.25c-.05-.04-.06-.14-.03-.19.26-.08.49-.2.58-.28.12-.11.29-.35.38-.53.04-.02.15-.02.19.05v.4c0,.16,0,.17.16.17h1c.11.08.09.32,0,.38h-1.02c-.15,0-.16.03-.16.22v1.68c0,.52.06,1,.66,1ZM38.19,71.78l.19.03c.06.05.04.2-.02.23-.27-.02-.53-.03-.85-.03s-.57,0-.82.03c-.06-.03-.08-.18-.02-.23l.16-.03c.33-.05.34-.14.34-.78v-1.31c0-.6-.27-.93-.83-.93-.37,0-.62.16-.76.32-.09.11-.13.23-.13.51v1.4c0,.65.02.73.34.78l.16.03c.06.05.04.2-.02.23-.24-.02-.5-.03-.82-.03s-.59,0-.87.03c-.06-.03-.08-.18-.02-.23l.22-.03c.33-.04.34-.14.34-.78v-1.58c0-.35,0-.4-.24-.56l-.08-.05s-.04-.14,0-.16c.21-.07.72-.31.9-.44.04,0,.08.02.1.06-.02.21-.02.34-.02.42,0,.05.04.1.1.1.34-.24.77-.46,1.2-.46s.7.16.96.53c.08.02.14-.02.22-.07.36-.25.8-.46,1.22-.46.72,0,1.07.5,1.07,1.12v1.55c0,.65.02.74.34.78l.22.03c.06.05.04.2-.02.23-.3-.02-.56-.03-.87-.03s-.57,0-.82.03c-.06-.03-.08-.18-.02-.23l.16-.03c.33-.05.34-.14.34-.78v-1.31c0-.61-.27-.93-.84-.93-.34,0-.62.15-.75.32-.11.13-.13.23-.13.54v1.38c0,.65.02.74.34.78ZM35.89,104.75c-.31,0-.54.11-.7.24-.16.14-.19.18-.19.5v1.51c0,.65.02.74.34.78l.19.03c.06.04.04.2-.02.23-.27-.02-.53-.03-.85-.03s-.59,0-.88.03c-.06-.03-.08-.18-.02-.23l.22-.03c.33-.04.34-.14.34-.78v-4.07c0-.53,0-.58-.28-.75l-.09-.05s-.05-.15,0-.18c.22-.07.65-.21.97-.38.04,0,.07.02.09.05,0,.27-.03.72-.03,1.12v1.89c0,.08,0,.15.04.17.32-.25.76-.47,1.21-.47.86,0,1.16.53,1.16,1.16v1.5c0,.65.02.75.34.78l.24.03c.06.05.04.2-.02.23-.32-.02-.58-.03-.9-.03s-.59,0-.84.03c-.06-.03-.08-.18-.02-.23l.18-.03c.33-.05.34-.14.34-.78v-1.29c0-.58-.28-.96-.86-.96ZM32.86,105.49c0,.62-.37,1.43-1.51,1.43-.16,0-.29-.02-.4-.03-.11.06-.4.23-.4.5,0,.21.21.38.63.38.31,0,.67-.03,1.07-.03.5,0,1.26.09,1.26.99,0,.98-1.07,1.7-2.24,1.7-1.11,0-1.49-.59-1.49-1.04,0-.14.04-.26.1-.33.15-.16.41-.4.61-.6.08-.08.15-.16.07-.22-.35-.09-.66-.4-.66-.71,0-.04.04-.08.13-.15.15-.1.32-.25.48-.41.04-.05.09-.13.09-.17-.31-.16-.67-.51-.67-1.09,0-.77.67-1.36,1.47-1.36.34,0,.66.09.86.18.29.13.35.14.55.14h.73c.1.04.08.35-.05.37h-.65c.02.15.02.31.02.46ZM25.5,102.18l-.09-.05s-.05-.15,0-.18c.22-.07.65-.21.97-.38.04,0,.07.02.09.05,0,.27-.03.72-.03,1.12v4.26c0,.65.02.74.34.78l.22.03c.06.05.04.2-.02.23-.3-.02-.56-.03-.87-.03s-.59,0-.86.03c-.06-.03-.08-.18-.02-.23l.21-.03c.33-.04.34-.14.34-.78v-4.07c0-.53,0-.58-.28-.75ZM25.68,96.13c-.97,0-1.38-1.04-1.38-1.75s.41-1.75,1.38-1.75,1.38,1.03,1.38,1.75-.41,1.75-1.38,1.75ZM21.27,71.63c.3,0,.55-.09.83-.44.09-.03.15.03.16.11-.3.61-.95.84-1.41.84-.58,0-1.04-.25-1.31-.59-.27-.35-.38-.77-.38-1.17,0-1.11.73-2.03,1.81-2.03.77,0,1.28.53,1.28,1.07,0,.13-.02.2-.04.23-.03.05-.15.06-.53.06h-1.67c-.23,0-.24.02-.24.24,0,.91.53,1.68,1.49,1.68ZM20.6,80.87l-.08-.05s-.04-.14,0-.16c.21-.07.72-.31.93-.44.04,0,.08.02.09.05-.02.31-.04.75-.04,1.12v1.62c0,.65.02.74.34.78l.19.03c.06.05.04.2-.02.23-.27-.02-.53-.03-.85-.03s-.59,0-.85.03c-.06-.03-.08-.18-.02-.23l.19-.03c.33-.04.34-.14.34-.78v-1.58c0-.35,0-.4-.24-.56ZM20.65,78.88c0-.3.22-.49.49-.49s.45.22.45.47c0,.32-.23.47-.48.47-.28,0-.46-.21-.46-.45ZM21.64,90.25c.97,0,1.38,1.03,1.38,1.75s-.41,1.75-1.38,1.75-1.38-1.04-1.38-1.75.41-1.75,1.38-1.75ZM25.29,66.18l-.09-.05s-.04-.15,0-.18c.23-.07.65-.21.97-.38.04,0,.07.02.09.05,0,.27-.03.72-.03,1.12v3.95c0,.71,0,1.04.26,1.04.1,0,.25-.04.39-.09.06.02.07.24,0,.29-.38.05-.94.19-1.19.29-.05,0-.1-.03-.1-.07v-.15c0-.14,0-.24-.02-.28h-.04c-.4.27-.7.41-1.13.41-1,0-1.67-.78-1.67-1.73,0-1.26.96-2.07,2.18-2.07.31,0,.5.04.6.08.04,0,.05-.05.05-.13v-1.36c0-.53,0-.58-.28-.75ZM24.77,80.34c.31,0,.5.04.6.08.04,0,.05-.05.05-.13v-1.36c0-.53,0-.58-.28-.75l-.09-.05s-.04-.15,0-.18c.23-.07.65-.21.97-.38.04,0,.07.02.09.05,0,.27-.03.72-.03,1.12v3.95c0,.71,0,1.04.26,1.04.1,0,.25-.04.39-.09.06.02.07.24,0,.29-.38.05-.94.19-1.19.29-.05,0-.1-.03-.1-.07v-.15c0-.14,0-.24-.02-.28h-.04c-.4.27-.7.41-1.13.41-1,0-1.67-.78-1.67-1.73,0-1.26.96-2.07,2.18-2.07ZM25.29,90.14c.09,0,.22.04.3.15l-3.66,6.08c-.14,0-.27-.08-.27-.2l3.64-6.03ZM26.82,60.13c-.58,0-1.04-.25-1.31-.59-.27-.35-.38-.77-.38-1.17,0-1.11.73-2.03,1.81-2.03.77,0,1.28.53,1.28,1.07,0,.13-.02.2-.04.23-.03.05-.15.06-.53.06h-1.67c-.23,0-.24.02-.24.24,0,.91.53,1.68,1.49,1.68.3,0,.55-.09.83-.44.09-.03.15.03.16.11-.3.61-.95.84-1.41.84ZM28.63,66.86c0,.32-.23.47-.48.47-.28,0-.46-.21-.46-.45,0-.3.22-.49.49-.49s.45.22.45.47ZM27.35,71.81l.19-.03c.33-.04.34-.14.34-.78v-1.58c0-.35,0-.4-.24-.56l-.08-.05s-.04-.14,0-.16c.21-.07.72-.31.93-.44.04,0,.08.02.09.05-.02.31-.04.75-.04,1.12v1.62c0,.65.02.74.34.78l.19.03c.06.05.04.2-.02.23-.27-.02-.53-.03-.85-.03s-.59,0-.85.03c-.06-.03-.08-.18-.02-.23ZM28.84,102.86c0,.32-.23.47-.48.47-.28,0-.46-.21-.46-.45,0-.3.22-.49.49-.49s.45.22.45.47ZM27.56,107.81l.19-.03c.33-.04.34-.14.34-.78v-1.58c0-.35,0-.4-.24-.56l-.08-.05s-.04-.14,0-.16c.21-.07.72-.31.93-.44.04,0,.08.02.09.05-.02.31-.04.75-.04,1.12v1.62c0,.65.02.74.34.78l.19.03c.06.05.04.2-.02.23-.27-.02-.53-.03-.85-.03s-.59,0-.85.03c-.06-.03-.08-.18-.02-.23ZM28.7,58.41c0-1.26.96-2.07,2.18-2.07.31,0,.5.04.6.08.04,0,.05-.05.05-.13v-1.36c0-.53,0-.58-.28-.75l-.09-.05s-.04-.15,0-.18c.23-.07.65-.21.97-.38.04,0,.07.02.09.05,0,.27-.03.72-.03,1.12v3.95c0,.71,0,1.04.26,1.04.1,0,.25-.04.39-.09.06.02.07.24,0,.29-.38.05-.94.19-1.19.29-.05,0-.1-.03-.1-.07v-.15c0-.14,0-.24-.02-.28h-.04c-.4.27-.7.41-1.13.41-1,0-1.67-.78-1.67-1.73ZM33.43,71.68c.11,0,.22-.02.35-.04.05.04.06.23,0,.26-.35.07-.87.16-1.18.33-.05,0-.09-.03-.11-.06v-.37c0-.08-.03-.13-.08-.13-.27.17-.71.47-1.24.47-.79,0-1.09-.4-1.09-1.13v-1.5c0-.57,0-.65-.27-.77l-.11-.04c-.05-.04-.04-.17.02-.2.41,0,.76-.09.96-.16.05,0,.08.03.09.06-.02.15-.03.34-.03.78v1.5c0,.62.15,1.04.84,1.04.24,0,.53-.1.73-.27.12-.11.18-.24.18-.52v-1.48c0-.59-.06-.6-.33-.71l-.12-.04c-.06-.04-.06-.16,0-.2.36,0,.86-.07,1.05-.16.04,0,.07.03.08.06-.02.17-.03.45-.03.78v1.51c0,.71.03.98.28.98ZM33.62,83.78l.32.03c.06.05.05.2-.02.23-.42-.02-.68-.03-1-.03s-.59,0-.83.03c-.06-.03-.08-.18-.02-.23l.17-.03c.33-.05.34-.14.34-.78v-1.58c0-.35,0-.4-.24-.56l-.08-.05s-.04-.14,0-.16c.21-.07.68-.31.91-.44.04,0,.07.03.07.06v.52s0,.07.03.08c.31-.26.66-.54.99-.54.22,0,.4.14.4.36,0,.3-.24.41-.39.41-.09,0-.13-.03-.2-.06-.13-.09-.27-.14-.4-.14-.14,0-.25.08-.32.18-.09.13-.12.39-.12.69v1.22c0,.65.02.76.36.78ZM29.41,83.81l.21-.03c.33-.04.34-.14.34-.78v-1.9c0-.24,0-.26-.18-.26h-.32c-.05-.04-.06-.12-.03-.17l.39-.19c.07-.04.14-.09.14-.18,0-.52.06-1.08.28-1.58.23-.51.73-1.14,1.62-1.14.48,0,.88.22.88.54,0,.18-.17.32-.34.32-.1,0-.15-.04-.22-.11-.17-.2-.42-.4-.72-.4-.28,0-.5.17-.64.5-.16.41-.2,1.07-.2,1.52v.26c0,.24,0,.25.15.25h1.03c.1.09.04.34-.06.38h-.96c-.15,0-.15.02-.15.26v1.9c0,.65.02.76.34.78l.32.03c.06.05.04.2-.02.23-.4-.02-.67-.03-.98-.03s-.59,0-.86.03c-.06-.03-.08-.18-.02-.23ZM31.76,96.13c-.16,0-.41-.02-.5-.04-.08.02-.13.06-.13.25v.95c0,.64.02.72.34.77l.35.04c.06.04.04.2-.02.23-.43-.02-.69-.03-1.01-.03s-.59,0-.85.03c-.06-.03-.08-.18-.02-.23l.19-.03c.33-.05.34-.14.34-.78v-3.87c0-.35,0-.4-.24-.56l-.08-.05s-.04-.14,0-.16c.23-.1.66-.31.89-.49.05,0,.09.02.11.06-.02.16-.04.3-.04.41,0,.06.02.12.08.12.12-.05.68-.42,1.26-.42.91,0,1.49.74,1.49,1.65,0,1.25-.92,2.15-2.2,2.15ZM36.43,96.13c-1.04,0-1.85-.73-1.85-1.85s.86-1.94,1.92-1.94c1.01,0,1.83.76,1.83,1.86s-.77,1.94-1.9,1.94ZM37.03,83.63c.3,0,.55-.09.83-.44.09-.03.15.03.16.11-.3.61-.95.84-1.41.84-.58,0-1.04-.25-1.3-.59-.27-.35-.38-.77-.38-1.17,0-1.11.73-2.03,1.81-2.03.77,0,1.28.53,1.28,1.07,0,.13-.02.2-.04.23-.03.05-.15.06-.53.06h-1.67c-.23,0-.24.02-.24.24,0,.91.53,1.68,1.5,1.68ZM36.25,60.23c-.35-.09-.66-.4-.66-.71,0-.04.04-.08.14-.15.15-.1.32-.25.48-.41.04-.05.09-.13.09-.17-.31-.16-.67-.51-.67-1.09,0-.77.67-1.36,1.47-1.36.34,0,.66.09.86.18.29.13.35.14.55.14h.73c.1.04.08.35-.05.37h-.65c.02.15.02.31.02.46,0,.62-.37,1.43-1.51,1.43-.16,0-.29-.02-.4-.03-.11.06-.4.23-.4.5,0,.21.21.38.63.38.31,0,.68-.03,1.07-.03.5,0,1.26.09,1.26.99,0,.98-1.07,1.7-2.24,1.7-1.11,0-1.5-.59-1.5-1.04,0-.14.04-.26.1-.33.15-.16.41-.4.61-.6.08-.08.15-.16.07-.22ZM39.69,43.39l.48,1.03c.14.3.25.52.29.58.08-.16.17-.34.27-.55.03-.06.06-.13.06-.15,0-.02-.02-.08-.04-.14l-.42-.89c-.08-.16-.12-.2-.23-.22l-.12-.02s-.02-.09.01-.11c.16,0,.3.01.43.01.16,0,.32,0,.48-.01.03.02.04.09,0,.11l-.11.02s-.07.03-.07.06c0,.02,0,.07.04.13.09.2.19.42.28.6.07-.14.15-.3.21-.45.06-.14.09-.24.09-.28,0-.03-.02-.05-.08-.06l-.14-.03s-.02-.1.01-.11c.11,0,.22.01.37.01.14,0,.24,0,.36-.01.04.02.04.09,0,.12l-.1.02c-.15.03-.19.08-.32.31-.09.16-.19.38-.28.56-.02.04-.04.1-.04.11s.01.05.03.1l.17.37c.08.18.2.43.23.5.22-.48.44-1.01.65-1.52.07-.16.12-.32.12-.37,0-.03-.1-.04-.16-.06l-.07-.02s-.04-.09,0-.11c.15,0,.27.01.41.01s.26,0,.38-.01c.03.02.04.08.01.11l-.1.02c-.18.04-.25.13-.4.45-.3.64-.56,1.22-.78,1.78-.06.15-.09.26-.13.33-.01,0-.04.02-.07.02s-.06,0-.07-.02c-.08-.25-.34-.76-.5-1.11-.18.36-.36.73-.51,1.11-.01,0-.04.02-.07.02s-.06,0-.07-.02c-.06-.18-.16-.4-.28-.64l-.77-1.63c-.08-.18-.12-.24-.29-.28l-.11-.03s-.02-.09.01-.11c.14,0,.31.01.48.01.14,0,.3,0,.49-.01.03.02.04.09.01.11l-.1.02c-.05.01-.09.03-.09.06s.03.12.1.27ZM69.37,36.67v3.52h-28.57v-3.52h0s14.28,0,14.28,0h0s14.28,0,14.28,0ZM69.83,44.13c.3.05.64.24.64.7,0,.18-.06.38-.24.53-.19.16-.45.22-.91.22-.18,0-.34-.01-.5-.01-.18,0-.36,0-.54.01-.03-.02-.04-.09,0-.12h.09c.19-.04.22-.05.22-.47v-1.46c0-.38,0-.43-.19-.45h-.1s-.03-.1,0-.12c.18-.02.47-.04.91-.04.34,0,.6.03.78.14.18.11.28.27.28.52,0,.24-.17.42-.45.51-.02,0-.02.02-.02.02,0,0,0,.02.03.02ZM70.71,56.8c.32-.25.76-.47,1.22-.47.85,0,1.16.53,1.16,1.16v1.5c0,.65.02.75.34.78l.24.03c.06.05.04.2-.02.23-.32-.02-.59-.03-.9-.03s-.59,0-.84.03c-.06-.03-.08-.18-.02-.23l.18-.03c.33-.05.34-.14.34-.78v-1.29c0-.58-.28-.96-.86-.96-.31,0-.54.11-.7.24-.16.14-.19.18-.19.5v1.51c0,.65.02.74.34.78l.19.03c.06.04.04.2-.02.23-.27-.02-.53-.03-.85-.03s-.59,0-.88.03c-.06-.03-.08-.18-.02-.23l.23-.03c.33-.04.34-.14.34-.78v-4.07c0-.53,0-.58-.28-.75l-.09-.05s-.04-.15,0-.18c.22-.07.65-.21.97-.38.04,0,.07.02.09.05,0,.27-.03.72-.03,1.12v1.89c0,.08,0,.15.04.17ZM73.52,66.46v19.84h-.75v-19.84h.75ZM64.6,104.69c-.25,0-.56.13-.58.4,0,.14-.02.25-.09.31-.13.11-.38.17-.51.17-.08,0-.13-.04-.13-.13,0-.47,1.02-1.11,1.67-1.11s.96.38.94,1.05l-.05,1.57c-.02.41.06.78.41.78.09,0,.17-.03.22-.05.05-.03.09-.06.12-.06.04,0,.06.05.06.12,0,.04-.32.4-.76.4-.22,0-.43-.08-.58-.28-.04-.05-.09-.13-.14-.13-.06,0-.17.08-.35.18-.2.11-.4.23-.65.23s-.48-.07-.63-.21c-.17-.15-.28-.38-.28-.63,0-.35.17-.56.75-.77l1.07-.39c.13-.04.15-.13.15-.26v-.41c.02-.33-.09-.78-.65-.78ZM66.09,96.22s-.09-.03-.11-.06v-.37c0-.08-.03-.13-.08-.13-.27.17-.71.47-1.24.47-.79,0-1.09-.4-1.09-1.13v-1.5c0-.57,0-.65-.27-.77l-.11-.04c-.05-.04-.04-.17.02-.2.41,0,.77-.09.96-.16.05,0,.08.03.09.06-.02.15-.03.34-.03.78v1.5c0,.62.15,1.04.84,1.04.24,0,.53-.1.73-.27.12-.11.18-.24.18-.52v-1.48c0-.59-.06-.6-.33-.71l-.12-.04c-.06-.04-.06-.16,0-.2.36,0,.86-.07,1.05-.16.04,0,.07.03.08.06-.02.17-.03.45-.03.78v1.51c0,.71.03.98.28.98.11,0,.23-.02.35-.04.05.04.06.23,0,.26-.35.07-.87.16-1.18.33ZM55.5,68.46h1.03c.1.09.04.34-.06.38h-.96c-.15,0-.15.02-.15.26v1.9c0,.65.02.76.34.78l.32.03c.06.05.04.2-.02.23-.4-.02-.67-.03-.98-.03s-.59,0-.86.03c-.06-.03-.08-.18-.02-.23l.21-.03c.33-.04.34-.14.34-.78v-1.9c0-.24,0-.26-.18-.26h-.32c-.05-.04-.06-.12-.03-.17l.39-.19c.07-.04.14-.09.14-.18,0-.52.06-1.08.28-1.58.23-.51.73-1.14,1.62-1.14.48,0,.88.22.88.54,0,.18-.17.32-.34.32-.1,0-.15-.04-.22-.11-.17-.2-.42-.4-.72-.4-.28,0-.5.17-.64.5-.16.41-.2,1.07-.2,1.52v.26c0,.24,0,.25.15.25ZM51.41,68.87l-.08-.05s-.04-.14,0-.16c.21-.07.68-.31.91-.44.04,0,.07.03.07.06v.52s0,.07.03.08c.31-.26.66-.54.99-.54.22,0,.4.14.4.36,0,.3-.24.41-.39.41-.09,0-.13-.03-.2-.06-.13-.09-.27-.14-.4-.14-.14,0-.25.08-.32.18-.09.13-.12.39-.12.69v1.22c0,.65.02.76.36.78l.32.03c.06.05.05.2-.02.23-.42-.02-.68-.03-1-.03s-.59,0-.83.03c-.06-.03-.08-.18-.02-.23l.17-.03c.33-.05.34-.14.34-.78v-1.58c0-.35,0-.4-.24-.56ZM53.39,58.47c-.52-.3-.89-.61-.89-1.11,0-.66.54-1.03,1.22-1.03.38,0,.71.09.79.16.08.2.14.49.14.73-.04.06-.17.08-.22.03-.15-.4-.42-.66-.79-.66s-.58.23-.58.55c0,.37.38.57.69.75.48.27.92.58.92,1.22,0,.68-.63,1.03-1.3,1.03-.42,0-.74-.09-.96-.27-.07-.17-.13-.61-.11-.91.04-.05.16-.06.21,0,.15.5.44.93.95.93.32,0,.6-.19.6-.58,0-.41-.36-.64-.69-.83ZM53.03,92.34c1.01,0,1.83.76,1.83,1.86s-.77,1.94-1.9,1.94c-1.04,0-1.85-.73-1.85-1.85s.86-1.94,1.92-1.94ZM55.46,54.18l-.09-.05s-.04-.15,0-.18c.22-.07.65-.21.97-.38.04,0,.07.02.09.05,0,.27-.03.72-.03,1.12v3.09c0,.12,0,.14.16.14.2,0,.37-.1.61-.35l.37-.4c.25-.27.32-.37.32-.41s-.04-.07-.2-.09l-.22-.03c-.08-.03-.08-.2,0-.23h.21c.4,0,.93-.02,1.43-.07.06.03.07.18.02.23l-.29.05c-.18.04-.33.13-.57.31-.35.28-.66.6-.82.76-.11.1-.12.14-.06.22.15.21.3.38.6.72.35.4.67.75.85.92.13.12.31.17.47.2l.13.02c.06.05.05.2-.02.23-.26-.02-.57-.03-.86-.03-.36,0-.67,0-.94.03-.07-.04-.08-.19-.02-.23l.16-.03c.13-.02.22-.04.22-.09s-.04-.12-.15-.25l-.96-1.12c-.08-.09-.18-.13-.28-.13-.16,0-.17.03-.17.31v.5c0,.65.02.74.34.78l.22.03c.06.05.04.2-.02.23-.3-.02-.56-.03-.87-.03s-.59,0-.86.03c-.06-.03-.08-.18,0-.23l.2-.03c.33-.04.34-.14.34-.78v-4.07c0-.53,0-.58-.28-.75ZM57.5,70.53l1.07-.39c.13-.04.15-.13.15-.26v-.41c.02-.33-.09-.78-.65-.78-.25,0-.56.13-.58.4,0,.14-.02.25-.09.31-.13.11-.38.17-.51.17-.08,0-.13-.04-.13-.13,0-.47,1.02-1.11,1.67-1.11s.96.38.94,1.05l-.05,1.57c-.02.41.06.78.42.78.09,0,.17-.03.22-.05.04-.03.09-.06.12-.06.04,0,.06.05.06.12,0,.04-.31.4-.76.4-.22,0-.43-.08-.58-.28-.04-.05-.09-.13-.14-.13-.06,0-.17.08-.35.18-.2.11-.4.23-.65.23s-.48-.07-.63-.21c-.17-.15-.28-.38-.28-.63,0-.35.17-.56.75-.77ZM59.98,59.54c-.27-.35-.38-.77-.38-1.17,0-1.11.73-2.03,1.81-2.03.77,0,1.28.53,1.28,1.07,0,.13-.02.2-.04.23-.03.05-.15.06-.53.06h-1.67c-.23,0-.24.02-.24.24,0,.91.53,1.68,1.5,1.68.3,0,.55-.09.83-.44.09-.03.15.03.16.11-.3.61-.95.84-1.41.84-.58,0-1.04-.25-1.3-.59ZM60.16,94.95c.04-.05.16-.06.21,0,.15.5.44.93.95.93.32,0,.6-.19.6-.58,0-.41-.36-.64-.69-.83-.52-.3-.89-.61-.89-1.11,0-.66.54-1.03,1.22-1.03.38,0,.71.09.79.16.08.2.14.49.14.73-.04.06-.17.08-.22.03-.15-.4-.42-.66-.79-.66s-.58.23-.58.55c0,.37.38.57.69.75.48.27.92.58.92,1.22,0,.68-.63,1.03-1.3,1.03-.42,0-.74-.09-.96-.27-.07-.17-.13-.61-.11-.91ZM62.15,72.13c-.48,0-.92-.15-1.23-.46-.31-.31-.52-.75-.52-1.33,0-.97.68-2.01,2.18-2.01.21,0,.56.04.8.15.07.06.13.21.13.36,0,.16-.09.33-.2.33-.04,0-.09-.02-.13-.06-.2-.24-.53-.48-.9-.48-.63,0-1.24.5-1.24,1.45,0,.7.49,1.54,1.45,1.54.52,0,.79-.23,1-.54.07-.02.15.05.16.13-.31.67-.98.92-1.5.92ZM64.48,56.46h1c.11.08.09.32,0,.38h-1.02c-.15,0-.16.03-.16.22v1.68c0,.52.06,1,.66,1,.09,0,.17-.02.24-.04.08-.03.2-.13.22-.13.07,0,.11.1.09.15-.16.19-.49.41-.95.41-.77,0-.94-.43-.94-.97v-2.06c0-.24,0-.26-.19-.26h-.25c-.05-.04-.06-.14-.03-.19.26-.08.49-.2.58-.28.12-.11.29-.35.38-.53.04-.02.15-.02.19.05v.4c0,.16,0,.17.16.17ZM66.09,71.63c.3,0,.55-.09.83-.44.09-.03.15.03.16.11-.3.61-.95.84-1.41.84-.58,0-1.04-.25-1.3-.59-.27-.35-.38-.77-.38-1.17,0-1.11.73-2.03,1.81-2.03.77,0,1.28.53,1.28,1.07,0,.13-.02.2-.04.23-.03.05-.15.06-.53.06h-1.67c-.23,0-.24.02-.24.24,0,.91.53,1.68,1.5,1.68ZM66.46,59.68c-.31-.31-.52-.75-.52-1.33,0-.97.68-2.01,2.18-2.01.21,0,.56.04.8.15.07.06.13.21.13.36,0,.16-.09.33-.2.33-.04,0-.09-.02-.13-.06-.2-.24-.53-.48-.9-.48-.63,0-1.24.5-1.24,1.45,0,.7.49,1.54,1.45,1.54.52,0,.79-.23,1-.54.07-.02.15.05.16.13-.31.67-.98.92-1.5.92-.48,0-.92-.15-1.23-.46ZM46.65,68.74l-.11-.04c-.05-.04-.04-.17.02-.2.41,0,.76-.09.96-.16.05,0,.08.03.09.06-.02.15-.03.34-.03.78v1.5c0,.62.15,1.04.84,1.04.24,0,.53-.1.73-.27.12-.11.18-.24.18-.52v-1.48c0-.59-.06-.6-.33-.71l-.12-.04c-.06-.04-.06-.16,0-.2.36,0,.86-.07,1.05-.16.04,0,.07.03.08.06-.02.17-.03.45-.03.78v1.51c0,.71.03.98.28.98.11,0,.22-.02.35-.04.05.04.06.23,0,.26-.35.07-.87.16-1.18.33-.05,0-.09-.03-.11-.06v-.37c0-.08-.03-.13-.08-.13-.27.17-.71.47-1.24.47-.79,0-1.09-.4-1.09-1.13v-1.5c0-.57,0-.65-.27-.77ZM44.83,104.69c-.25,0-.56.13-.58.4,0,.14-.02.25-.09.31-.13.11-.38.17-.51.17-.08,0-.13-.04-.13-.13,0-.47,1.02-1.11,1.67-1.11s.96.38.94,1.05l-.05,1.57c-.02.41.06.78.41.78.09,0,.17-.03.22-.05.05-.03.09-.06.12-.06.04,0,.06.05.06.12,0,.04-.32.4-.76.4-.22,0-.43-.08-.58-.28-.04-.05-.09-.13-.14-.13-.06,0-.17.08-.35.18-.2.11-.4.23-.65.23s-.48-.07-.63-.21c-.17-.15-.28-.38-.28-.63,0-.35.17-.56.75-.77l1.07-.39c.13-.04.15-.13.15-.26v-.41c.02-.33-.09-.78-.65-.78ZM43.85,56.69c-.25,0-.56.13-.58.4,0,.14-.02.25-.09.31-.13.11-.38.17-.51.17-.08,0-.13-.04-.13-.13,0-.47,1.02-1.11,1.67-1.11s.96.38.94,1.05l-.05,1.57c-.02.41.06.78.42.78.09,0,.17-.03.22-.05.04-.03.09-.06.12-.06.04,0,.06.05.06.12,0,.04-.31.4-.76.4-.22,0-.43-.08-.58-.28-.04-.05-.09-.13-.14-.13-.06,0-.17.08-.35.18-.2.11-.4.23-.65.23s-.48-.07-.63-.21c-.17-.15-.28-.38-.28-.63,0-.35.17-.56.75-.77l1.07-.39c.13-.04.15-.13.15-.26v-.41c.02-.33-.09-.78-.65-.78ZM47.42,57.67l.29.83c.05.14.23.62.26.64.03-.02.17-.3.33-.67l.31-.71c.2-.47.32-.8.32-.9,0-.06-.05-.13-.22-.15l-.28-.04c-.06-.04-.05-.2.02-.23.29.02.56.03.79.03s.43,0,.68-.03c.07.04.08.17.02.23l-.15.03c-.3.05-.46.31-.77.95l-.5,1.04c-.3.6-1.04,2.17-1.48,3.15-.15.34-.37.42-.58.42-.26,0-.4-.16-.4-.39,0-.24.16-.36.36-.36h.17c.14,0,.23-.06.3-.16.26-.41.44-.78.52-1,.03-.07.09-.26.09-.39,0-.18-.04-.29-.15-.62l-.7-1.93c-.15-.42-.22-.64-.53-.7l-.23-.04c-.05-.04-.04-.2.03-.23.29.02.56.03.86.03.24,0,.5,0,.78-.03.07.03.08.18.02.23l-.22.04c-.13.03-.2.05-.2.12,0,.11.21.69.26.85ZM43.52,70.95c.04-.05.16-.06.21,0,.15.5.44.93.95.93.32,0,.6-.19.6-.58,0-.41-.36-.64-.69-.83-.52-.3-.89-.61-.89-1.11,0-.66.54-1.03,1.22-1.03.38,0,.71.09.79.16.08.2.14.49.14.73-.04.06-.17.08-.22.03-.15-.4-.42-.66-.79-.66s-.58.23-.58.55c0,.37.38.57.69.75.48.27.92.58.92,1.22,0,.68-.63,1.03-1.3,1.03-.42,0-.74-.09-.96-.27-.07-.17-.13-.61-.11-.91ZM46.83,94.3l-2.1.2c-.1-.08-.13-.2-.13-.29s.03-.17.07-.22l2.1-.2c.1.06.14.17.14.29,0,.09-.03.17-.07.23ZM49.7,92.34c.21,0,.56.04.8.15.07.06.13.21.13.36,0,.16-.09.33-.2.33-.04,0-.09-.02-.13-.06-.2-.24-.53-.48-.9-.48-.63,0-1.24.5-1.24,1.45,0,.7.49,1.54,1.45,1.54.52,0,.79-.23,1-.54.07-.02.15.05.16.13-.31.67-.98.92-1.5.92-.48,0-.92-.15-1.23-.46-.31-.31-.52-.75-.52-1.33,0-.97.68-2.01,2.18-2.01ZM39.98,96.13c-.42,0-.74-.09-.96-.27-.07-.17-.13-.61-.11-.91.04-.05.16-.06.21,0,.15.5.44.93.96.93.32,0,.6-.19.6-.58,0-.41-.36-.64-.69-.83-.52-.3-.89-.61-.89-1.11,0-.66.54-1.03,1.22-1.03.38,0,.71.09.79.16.08.2.14.49.14.73-.04.06-.17.08-.22.03-.15-.4-.42-.66-.79-.66s-.58.23-.58.55c0,.37.38.57.69.75.48.27.92.58.92,1.22,0,.68-.63,1.03-1.3,1.03ZM40.17,84.13c-.58,0-1.04-.25-1.31-.59-.27-.35-.38-.77-.38-1.17,0-1.11.73-2.03,1.81-2.03.77,0,1.28.53,1.28,1.07,0,.13-.02.2-.04.23-.03.05-.15.06-.53.06h-1.67c-.23,0-.24.02-.24.24,0,.91.53,1.68,1.49,1.68.3,0,.55-.09.83-.44.09-.03.15.03.16.11-.3.61-.95.84-1.41.84ZM41.22,56.9c-.14,0-.25.08-.32.18-.09.13-.12.39-.12.69v1.22c0,.65.02.76.36.78l.32.03c.06.05.04.2-.02.23-.42-.02-.68-.03-1-.03s-.59,0-.83.03c-.06-.03-.08-.18-.02-.23l.17-.03c.33-.05.34-.14.34-.78v-1.58c0-.35,0-.4-.24-.56l-.08-.05s-.04-.14,0-.16c.21-.07.68-.31.91-.44.04,0,.07.03.07.06v.52s0,.07.03.08c.32-.26.66-.54.99-.54.23,0,.41.14.41.36,0,.3-.24.41-.39.41-.09,0-.14-.03-.2-.06-.14-.09-.27-.14-.4-.14ZM42.65,122.7l.2-.03c.31-.04.38-.12.59-.8l.85-2.74c.14-.46.13-.54-.1-.58l-.24-.04c-.06-.04-.04-.17.01-.2.26-.03.81-.07,1.46-.07.78,0,1.37.15,1.79.41.52.34.76.88.76,1.53,0,.76-.36,1.48-.93,1.96-.81.68-1.88.76-2.51.76-.33,0-.68-.02-.97-.02s-.58,0-.92.02c-.06-.04-.06-.18.01-.2ZM47.19,108.04c-.06-.03-.08-.18-.02-.23l.19-.03c.33-.04.34-.14.34-.78v-1.58c0-.35,0-.4-.24-.56l-.08-.05s-.04-.14,0-.16c.21-.07.72-.31.9-.44.04,0,.08.02.1.06-.02.21-.02.34-.02.42,0,.05.04.1.1.1.38-.23.8-.46,1.26-.46.75,0,1.05.51,1.05,1.12v1.55c0,.65.02.74.34.78l.2.03c.06.05.04.2-.02.23-.27-.02-.53-.03-.85-.03s-.59,0-.84.03c-.06-.03-.08-.18-.02-.23l.17-.03c.33-.05.34-.14.34-.78v-1.34c0-.51-.23-.89-.85-.89-.34,0-.64.14-.76.32-.12.15-.14.28-.14.54v1.38c0,.65.02.73.34.78l.16.03c.06.05.04.2-.02.23-.24-.02-.5-.03-.82-.03s-.59,0-.85.03ZM48.92,120.49c-.15,0-.38.2-.55.39-.07,0-.13-.06-.11-.14.18-.31.53-.72.97-.72.38,0,.32.41.2.73l-.25.72h.04c.21-.39.45-.78.62-1,.22-.28.41-.45.62-.45.22,0,.32.2.32.39,0,.22-.16.56-.38.56-.08,0-.11-.08-.14-.2-.03-.14-.07-.21-.14-.21-.08,0-.25.15-.48.54-.26.42-.55,1.1-.84,1.76-.03.08-.13.11-.24.11-.14,0-.39-.04-.32-.24.15-.46.5-1.43.7-2.07.04-.11.03-.18-.04-.18ZM53.53,108.13c-1,0-1.67-.78-1.67-1.73,0-1.26.95-2.07,2.18-2.07.31,0,.5.04.6.08.05,0,.05-.05.05-.13v-1.36c0-.53,0-.58-.28-.75l-.09-.05s-.04-.15,0-.18c.22-.07.65-.21.97-.38.04,0,.07.02.09.05,0,.27-.03.72-.03,1.12v3.95c0,.71,0,1.04.26,1.04.1,0,.25-.04.39-.09.06.02.07.24,0,.29-.38.05-.94.19-1.19.29-.05,0-.1-.03-.1-.07v-.15c0-.14,0-.24-.02-.28h-.04c-.4.27-.7.41-1.13.41ZM57.97,96.04c-.06-.03-.08-.18-.02-.23l.17-.03c.33-.05.34-.14.34-.78v-1.34c0-.51-.23-.89-.85-.89-.34,0-.64.14-.77.32-.12.15-.13.28-.13.54v1.38c0,.65.02.73.34.78l.16.03c.06.05.04.2-.02.23-.24-.02-.5-.03-.82-.03s-.59,0-.85.03c-.06-.03-.08-.18-.02-.23l.19-.03c.33-.04.34-.14.34-.78v-1.58c0-.35,0-.4-.24-.56l-.08-.05s-.04-.14,0-.16c.21-.07.72-.31.9-.44.04,0,.08.02.1.06-.02.21-.02.34-.02.42,0,.05.04.1.1.1.38-.23.8-.46,1.26-.46.75,0,1.05.51,1.05,1.12v1.55c0,.65.02.74.34.78l.2.03c.06.05.04.2-.02.23-.27-.02-.53-.03-.85-.03s-.59,0-.84.03ZM63.17,17.87c.38-.93,1.1-1.76,2.09-2.19,1.13-.51,2.54-.49,4.08.14.52.21,1.05.54,1.41.77.23.16.54.34.67.39-.13.34-.28.94-.58,1.83-.1.09-.35,0-.36-.12.2-1.18-.37-2.04-1.47-2.49-1.96-.8-3.48.22-4.25,2.11-.37.89-.56,1.93-.25,2.88.31.96,1.1,1.56,1.76,1.82.53.22.89.26,1.09.15.11-.07.22-.26.39-.66l.16-.4c.32-.79.34-.86-.35-1.29l-.37-.23c-.05-.11.03-.3.14-.32.42.2.95.43,1.72.75.5.21.88.35,1.37.52.09.1.02.29-.11.33l-.21-.05c-.44-.1-.54-.04-.82.64l-.26.64c-.16.39-.22.7-.05.89.02.06-.02.15-.08.16-.12-.05-.34-.09-.57-.13-.76-.12-1.64-.33-2.28-.58-1.33-.55-2.44-1.42-2.92-2.63-.38-.95-.32-2.01.07-2.95ZM50.29,13.19c.86-.09,1.82-.15,3-.17,1.14-.02,1.96.06,2.84.35,1.45.5,2.5,1.75,2.53,3.54.03,1.33-.6,2.71-2.08,3.5-.84.45-1.87.61-2.96.64-.73.01-1.3-.05-1.74-.04-.46,0-1,.03-1.52.07-.1-.05-.11-.26-.03-.35l.26-.04c.56-.08.67-.12.64-1.39l-.09-4.39c-.02-1.15-.04-1.32-.6-1.36l-.25-.02c-.09-.06-.09-.27,0-.34ZM42.04,15.38c.44-.11.99-.27,1.49-.42l2.19-.67c.73-.23,1.4-.44,1.54-.51.11.18.45,1.07.67,1.54-.02.11-.24.2-.35.16-.39-.61-.64-.83-1.04-.82-.28.01-.64.08-.95.18l-.77.24c-.49.15-.49.17-.29.83l.6,1.94c.09.3.11.31.37.23l.55-.17c1-.31,1.17-.37,1.12-.9l-.04-.41c.07-.11.29-.18.37-.1.08.31.19.73.32,1.16.13.44.28.83.4,1.19-.03.1-.25.16-.36.12l-.22-.43c-.23-.46-.43-.42-1.43-.11l-.55.17c-.26.08-.27.11-.18.39l.45,1.46c.18.58.33.99.56,1.13.19.12.41.14,1.37-.15,1.46-.44,1.62-.83,1.73-1.89.08-.11.28-.14.39-.04.08.5.09,1.45.03,1.81-.51.13-1.5.42-2.84.84l-1.31.4c-.51.16-1.2.38-1.71.56-.11-.02-.18-.22-.12-.33l.41-.18c.52-.22.61-.29.24-1.51l-1.31-4.27c-.37-1.22-.49-1.23-1.05-1.13l-.19.03c-.11-.06-.16-.27-.08-.34ZM32.36,21c.41-.21.96-.58,1.21-.74.21-.14.45-.3.68-.48.45.32,2.37.88,2.97,1.04l1.71.44c.72.19,2.35.65,2.49.65.01-.05-.02-.1-.13-.26l-1.27-1.96c-.49-.76-1.1-1.68-1.47-1.86-.19-.09-.4-.06-.67.07l-.25.12c-.14-.01-.25-.21-.17-.31.41-.23.79-.46,1.18-.72.43-.28.69-.46,1.04-.71.11,0,.24.16.21.28l-.2.2c-.17.16-.32.31-.28.51.06.4.63,1.28,1.14,2.08l1.56,2.41c.2.3.96,1.49,1.14,1.7,0,.16-.16.32-.29.39-.3-.11-.74-.24-2-.59l-4.1-1.16c-1.13-.33-1.7-.49-1.97-.53-.03.02.04.13.39.66l1.27,1.96c.49.76,1.1,1.68,1.46,1.87.19.09.41.05.68-.08l.24-.11c.14.01.25.21.17.31-.39.22-.79.46-1.17.71-.42.27-.69.46-1.03.71-.11,0-.24-.16-.21-.28l.19-.19c.17-.16.33-.31.29-.52-.07-.4-.64-1.27-1.15-2.07l-1.54-2.39c-.51-.79-.6-.95-1.13-1.02-.17-.02-.5.08-.66.14l-.17.07c-.11-.01-.23-.22-.15-.32ZM28,25.56c1.77-2.14,4.21-1.97,5.89-.58,1.82,1.51,2.03,4.02.49,5.88-1.73,2.09-4.19,2.08-5.84.72-1.89-1.56-2.15-4.08-.55-6.02ZM21.27,37.2s.05-.08.09-.09c.3.06.38-.09.7-.84l1.92-4.5c.23-.54.27-.72.07-.96,0-.05,0-.11.01-.15.03-.07.07-.11.12-.12.41.3,1.32.8,1.68.92.06.09,0,.29-.11.36-.92-.22-1.22-.1-1.73,1.08l-.27.63c-.12.29-.11.31.36.51l4.77,2.04c1.17.5,1.25.41,1.52-.08l.21-.38c.11-.04.3.05.31.16-.29.63-.52,1.12-.73,1.61-.21.49-.42,1.01-.7,1.72-.08.07-.31-.01-.33-.11l.14-.49c.16-.55.19-.65-.98-1.15l-4.77-2.04c-.46-.2-.49-.2-.61.09l-.26.62c-.43,1.01-.44,1.36.28,2.15.03.11-.1.32-.23.32-.52-.44-1.13-.9-1.48-1.14-.02-.04-.02-.08,0-.14ZM20.45,59.81l.19-.03c.33-.04.34-.14.34-.78v-1.58c0-.35,0-.4-.24-.56l-.08-.05s-.04-.14,0-.16c.21-.07.72-.31.9-.44.04,0,.08.02.1.06-.02.21-.02.34-.02.42,0,.05.04.1.1.1.38-.23.8-.46,1.26-.46.75,0,1.05.51,1.05,1.12v1.55c0,.65.02.74.34.78l.2.03c.06.05.04.2-.02.23-.27-.02-.53-.03-.85-.03s-.59,0-.84.03c-.06-.03-.08-.18-.02-.23l.17-.03c.33-.05.34-.14.34-.78v-1.34c0-.51-.23-.89-.85-.89-.34,0-.64.14-.76.32-.12.15-.14.28-.14.54v1.38c0,.65.02.73.34.78l.16.03c.06.05.04.2-.02.23-.24-.02-.5-.03-.82-.03s-.59,0-.85.03c-.06-.03-.08-.18-.02-.23ZM19.78,58.2c0,1.13-.77,1.94-1.9,1.94-1.04,0-1.85-.73-1.85-1.85s.86-1.94,1.92-1.94c1.01,0,1.83.76,1.83,1.86ZM17.21,67.26h-.02c-.06.1-.41.82-.58,1.17l-.8,1.58c-.41.79-.81,1.64-.97,2.05-.02.03-.05.04-.09.04-.02,0-.06,0-.08-.04-.15-.48-.59-1.36-.79-1.8l-.81-1.74c-.19-.41-.38-.88-.58-1.3h-.02c-.04.56-.06,1.08-.09,1.6-.03.55-.06,1.35-.06,2.12,0,.67.05.81.41.84l.34.03c.06.05.05.2,0,.23-.31-.02-.66-.03-1-.03-.29,0-.61,0-.92.03-.05-.04-.07-.18-.02-.23l.2-.03c.38-.05.5-.11.56-.74.05-.59.1-1.09.15-1.98.05-.75.08-1.51.1-2.01.02-.57-.05-.7-.6-.77l-.14-.02c-.04-.05-.04-.19.04-.23.27.02.49.03.71.03.21,0,.45,0,.75-.03-.04.35.19.91.47,1.49l1.03,2.08c.21.42.41.84.62,1.23h.02c.24-.42.47-.89.69-1.35l.85-1.72c.41-.82.67-1.31.68-1.73.31.03.5.03.67.03.23,0,.52,0,.8-.03.05.04.05.19,0,.23l-.19.02c-.57.05-.64.23-.63.85.02.95.03,2.62.1,3.92.03.45.02.69.44.73l.29.03c.05.05.04.19-.02.23-.37-.02-.74-.03-1.06-.03s-.72,0-1.09.03c-.06-.04-.07-.17-.02-.23l.26-.03c.44-.04.44-.19.44-.77l-.03-3.75ZM11.27,53.79s.14-.03.17,0c.05.29.35.28.77.28h3.65c.49,0,.57-.02.7-.25.05-.02.14,0,.16.03-.1.37-.16,1.1-.13,1.37-.04.07-.19.07-.23.02-.03-.23-.09-.56-.22-.66-.21-.15-.55-.23-1.04-.23h-.64c-.27,0-.26,0-.26.31v4.01c0,.95.02,1.08.54,1.13l.29.03c.05.04.04.2-.02.23-.51-.02-.82-.03-1.18-.03s-.68,0-1.25.03c-.05-.03-.07-.18,0-.23l.32-.03c.51-.04.56-.18.56-1.13v-4.02c0-.28,0-.29-.27-.29h-.5c-.39,0-.88.02-1.11.23-.22.2-.31.4-.41.62-.07.05-.2,0-.23-.06.14-.41.28-.98.34-1.34ZM15.07,103.25c-.07-.41-.18-.74-.63-.86-.2-.05-.5-.05-.87-.05h-.55c-.27,0-.27.02-.27.36v1.9c0,.24.03.24.3.24h.61c.37,0,.66-.02.77-.05.1-.04.17-.08.22-.32l.08-.36c.04-.05.2-.05.23,0,0,.22-.04.58-.04.91s.04.67.04.87c-.04.05-.17.05-.23,0l-.09-.35c-.04-.16-.12-.29-.29-.34-.13-.04-.35-.04-.69-.04h-.61c-.27,0-.3,0-.3.24v1.25c0,.95.02,1.08.55,1.13l.31.03c.05.04.04.2-.02.23-.53-.02-.84-.03-1.2-.03-.4,0-.7,0-1.12.03-.05-.03-.07-.17-.02-.23l.22-.03c.52-.06.54-.18.54-1.13v-3.24c0-.95-.02-1.07-.54-1.13l-.14-.02c-.05-.04-.04-.2.02-.23.38.02.68.03,1.04.03h1.66c.58,0,1.1,0,1.21-.03,0,.41,0,.85.03,1.19-.03.05-.15.08-.22.03ZM12.94,92.97c-.44,0-.77.22-.97.44-.14-.02-.25-.14-.2-.32.34-.15,1.08-.49,1.44-.78.2-.16.48-.43.48-.86,0-.48-.33-.77-.74-.77-.53,0-.94.33-1.22.79-.09.02-.19-.04-.19-.13.28-.63.94-1.09,1.63-1.09.74,0,1.25.4,1.25,1.04,0,.37-.14.72-.96,1.15-.04.09,0,.13.11.14.68.05,1.31.53,1.31,1.39,0,.65-.32,1.3-.87,1.78-.67.58-1.44.77-1.88.77-.41,0-.89-.13-.89-.56,0-.18.13-.35.35-.35s.33.18.43.32c.12.17.23.27.48.27.58,0,1.61-.77,1.61-1.76,0-.79-.38-1.47-1.16-1.47ZM14.48,84.04c-.07-.04-.08-.18-.02-.23l.26-.03c.19-.02.32-.07.32-.16,0-.1-.04-.26-.12-.48l-.4-1.22c-.06-.2-.1-.22-.37-.22h-1.36c-.22,0-.28.03-.34.22l-.32.95c-.13.41-.2.65-.2.75,0,.11.05.16.26.18l.3.03c.06.05.06.19-.02.23-.23-.02-.51-.02-.94-.03-.3,0-.62.02-.86.03-.05-.04-.07-.18-.02-.23l.3-.03c.22-.02.41-.12.54-.44.16-.41.41-1,.79-2.01l.92-2.43c.13-.32.18-.5.15-.64.22-.06.37-.23.47-.34.05,0,.12.02.14.08.12.4.26.81.4,1.21l1.23,3.62c.26.77.38.91.77.95l.24.03c.06.05.04.19,0,.23-.37-.02-.68-.03-1.09-.03-.43,0-.77.02-1.04.03ZM17.54,108.13c-1.04,0-1.85-.73-1.85-1.85s.86-1.94,1.92-1.94c1.01,0,1.83.76,1.83,1.86s-.77,1.94-1.9,1.94ZM17.61,96.13c-1.31,0-1.86-1.53-1.86-2.94s.55-2.94,1.86-2.94,1.86,1.58,1.86,2.94-.55,2.94-1.86,2.94ZM18.44,84.13c-.48,0-.92-.15-1.23-.46-.32-.31-.52-.75-.52-1.33,0-.97.68-2.01,2.18-2.01.21,0,.56.04.8.15.07.06.13.21.13.36,0,.16-.09.33-.2.33-.04,0-.09-.02-.13-.06-.2-.24-.53-.48-.9-.48-.63,0-1.24.5-1.24,1.45,0,.7.49,1.54,1.45,1.54.52,0,.79-.23,1-.54.07-.02.15.05.16.13-.31.67-.98.92-1.5.92ZM20.12,107.81l.17-.03c.33-.05.34-.14.34-.78v-1.58c0-.35,0-.4-.24-.56l-.08-.05s-.04-.14,0-.16c.21-.07.68-.31.91-.44.04,0,.07.03.07.06v.52s0,.07.03.08c.32-.26.66-.54.99-.54.23,0,.41.14.41.36,0,.3-.24.41-.39.41-.09,0-.14-.03-.2-.06-.14-.09-.27-.14-.4-.14-.14,0-.25.08-.32.18-.09.13-.12.39-.12.69v1.22c0,.65.02.76.36.78l.32.03c.06.05.04.2-.02.23-.42-.02-.68-.03-1-.03s-.59,0-.83.03c-.06-.03-.08-.18-.02-.23ZM21.76,125.13l.02.19c-.07.1-.28.13-.35.05-.07-.45-.18-1-.29-1.52l-.48-2.24c-.16-.75-.32-1.43-.37-1.58.19-.09,1.1-.36,1.59-.54.1.03.18.26.13.37-.64.33-.88.57-.91.97-.01.29.03.64.09.96l.17.79c.11.5.13.5.8.36l1.98-.42c.3-.07.31-.08.26-.35l-.12-.56c-.22-1.02-.27-1.19-.79-1.19h-.42c-.1-.07-.15-.3-.07-.38.32-.06.75-.12,1.18-.21.45-.1.85-.21,1.22-.3.09.04.14.26.09.37l-.45.18c-.48.19-.46.39-.24,1.41l.12.56c.06.27.08.28.38.21l1.49-.32c.6-.13,1.02-.24,1.18-.46.13-.18.17-.39-.02-1.38-.31-1.49-.69-1.68-1.73-1.89-.1-.09-.11-.29,0-.39.51-.03,1.46.03,1.81.13.09.52.29,1.53.58,2.91l.29,1.34c.11.52.27,1.23.41,1.75-.03.1-.24.16-.33.1l-.14-.42c-.18-.54-.23-.64-1.48-.37l-4.37.93c-1.24.27-1.27.38-1.22.95ZM24.99,132.56l.1.32c-.02.1-.23.21-.32.13-.24-.55-.46-1.04-.7-1.54-.23-.48-.47-.96-.72-1.42,0-.12.21-.23.3-.17l.16.22c.33.47.4.55,1.53.01l3.8-1.83c.54-.26.92-.47,1.03-.72.09-.2.09-.42-.32-1.28-.58-1.2-.71-1.35-2.07-1.31-.11-.08-.16-.27-.1-.37.5-.13,1.43-.29,1.79-.3.2.46.63,1.4,1.22,2.61l.54,1.12c.26.55.54,1.09.78,1.53,0,.11-.2.24-.3.17l-.21-.3c-.33-.47-.39-.56-1.51-.02l-4.02,1.94c-1.12.54-1.11.65-.94,1.2ZM35.27,143.6c-.39-.18-1-.01-1.02-.03-.08-.06-.1-.12-.11-.2.16-.55.37-1.1.53-1.65l1.55-5.09c.25-.81.24-.91-.18-1.36l-.12-.13c-.01-.05,0-.11.03-.16-.02,0-.05.02-.07.01l-.19-.18c-.41-.39-.51-.45-1.5.35l-3.41,2.77c-.9.73-1,.83-.69,1.3l.17.27c-.01.12-.16.24-.27.2-.38-.39-.98-1.03-1.81-2.06-.64-.78-1.07-1.47-1.17-2.08-.1-.63.09-1.16.68-1.64.55-.45,1.29-.39,2.04.09.04.03.08.03.1.01s.02-.05,0-.12c-.46-.8-.65-1.96.4-2.82.43-.35,1.01-.59,1.7-.44.72.14,1.38.63,2.24,1.69.33.41.62.82.91,1.18.33.41.7.84,1.05,1.23,0,.03,0,.07-.03.1,0,0,0,0,0,0,.38.31.74.58,1.24.94.42.3.86.59,1.21.83.04.1-.07.29-.17.3l-.24-.13c-.38-.21-.48-.18-.63.33l-.5,1.65c-.1.33-.06.35.21.55l1.34.97c.25.18.24.18.52-.02l1.23-.89c.61-.43.5-.54.18-.86l-.25-.25c-.02-.12.12-.29.22-.27.3.24.67.51,1.06.81.32.23.63.44.98.67.03.1-.06.25-.19.29l-.33-.16c-.32-.16-.48-.15-.86.06-.3.17-.75.46-1.33.84l-3.84,2.5c-.34.23-.61.39-.7.58ZM46.72,141.36l-.49-.13c-.55-.14-.66-.17-1.12,1.01l-1.91,4.82c-.19.47-.18.5.11.61l.62.25c1.03.41,1.38.4,2.15-.34.1-.04.33.09.33.22-.43.53-.87,1.15-1.1,1.51-.04.02-.08.02-.14,0-.04-.02-.08-.05-.09-.09.05-.3-.1-.37-.86-.67l-4.55-1.81c-.55-.22-.73-.25-.96-.05-.05,0-.11,0-.15,0-.07-.03-.11-.07-.12-.11.29-.41.76-1.34.87-1.71.09-.07.29-.01.36.1-.2.93-.07,1.22,1.12,1.7l.64.25c.29.12.31.1.5-.37l1.91-4.82c.47-1.18.38-1.26-.12-1.52l-.38-.2c-.05-.11.04-.31.15-.31.64.28,1.14.49,1.63.68.49.19,1.02.39,1.74.65.07.08,0,.31-.11.33ZM55.34,142.81h-.27c-.57.01-.68.04-.83,1.3l-.5,4.36c-.13,1.14-.14,1.29.42,1.41l.31.07c.07.09.05.28-.05.33-.76-.01-1.78-.1-2.75-.21-.93-.11-1.73-.32-2.22-.67-.57-.39-.95-1-.85-1.86.13-1.1,1.04-1.55,1.65-1.72.08-.03.06-.13.02-.2-.77-1.72-1.25-2.8-1.75-3.33-.3-.32-.64-.44-.78-.46-.05-.05-.04-.19,0-.24.15-.02.38-.03.79.02,1.14.13,1.71.67,2.31,1.86.26.54.52,1.23.75,1.73.17.38.3.45.69.49.36.04.37.03.4-.22l.18-1.53c.15-1.26.04-1.31-.51-1.45l-.26-.07c-.07-.09-.04-.31.06-.34.52.08,1.06.16,1.58.22.52.06,1.06.11,1.61.15.09.06.1.28-.02.35ZM60.88,149.93c-2.74.46-4.47-1.27-4.83-3.43-.39-2.33,1.09-4.37,3.49-4.77,2.68-.45,4.53,1.18,4.88,3.28.4,2.42-1.05,4.5-3.54,4.91ZM62.76,132.64s-2.19,1.09-3.16,1.09c-.19,0-.34-.04-.42-.14-.23-.31.2-.71.41-.89.57-.55,1.2-1.08,1.8-1.6,1.24-1.05,2.51-2.13,3.42-3.49-.9.35-2.2.6-2.81.71-1.38.16-1.54.47-1.67.73-.23.45-.5.62-1.63.49-1.73-.19-2.33-.86-2.6-1.4-.21.43-1.37.84-1.68.9-.1.02-.38.08-.51-.13-.04-.07-.1-.21.04-.4.34-.31.61-.56.84-.76-1.19-.31-2.88-.23-5.06.25-.06.01-.2.05-.32.09-.4.12-.55.16-.64-.05l-.09-.21.2-.12s.13-.16.22-.3c-.18.1-.35.2-.5.3-.34,1.24-.91,1.84-1.37,1.87-.24.02-.4-.11-.46-.32-.12-.43.29-1.13,1.39-1.87.06-.23.11-.49.15-.78.03-.23,0-.32-.03-.33-.21-.14-1.23.43-1.79.74-1.05.59-1.67.92-2.02.63-.08-.07-.13-.15-.16-.24-1.2,1.54-2.42,2.64-5.53,3.45l-.12-.48c3.26-.84,4.35-2.03,5.62-3.75.09-.13.26-.17.4-.1.14.07.21.23.16.38-.08.28-.05.36-.05.37.14.02.97-.42,1.45-.69.99-.56,1.84-1.04,2.31-.72.21.15.3.42.24.81-.02.12-.04.23-.05.35.16-.09.34-.19.52-.28.31-.14.45-.01.5.07.11.17,0,.43-.14.68,2.47-.54,4.32-.59,5.61-.14.37-.28.56-.34.74-.3.24.06.33.28.41.5.18.47.48,1.25,2.35,1.46.96.11,1.02-.02,1.13-.22.22-.42.54-.82,2.04-.99.68-.13,2.33-.43,3.1-.86.14-.08.31-.05.43.06.11.11.13.28.05.42-.97,1.64-2.41,2.86-3.79,4.04-.6.51-1.22,1.03-1.79,1.58-.08.07-.14.13-.18.18.64-.1,2.21-.71,2.75-1.03,1.63-.97,3.09-2.32,4.22-3.91.9-1.27,1.68-1.05,2.51-.81.95.27,2.14.62,4.27-1.04l.31.39c-2.34,1.82-3.72,1.42-4.72,1.13-.81-.23-1.26-.36-1.96.62-1.17,1.65-2.68,3.05-4.38,4.05ZM72.06,145.97c-.39.15-.89.37-1.37.59l-2.06.95c-.7.32-1.3.61-1.52.74-.11-.24-.49-1.06-.74-1.56,0-.11.19-.22.33-.2.4.58.72.82,1.18.74.33-.06.61-.17.96-.33l.56-.26c.46-.21.45-.23.17-.84l-.9-1.95c-.12-.27-.15-.29-.4-.17l-.64.3c-.95.44-1.1.53-1,1.04l.08.41c-.03.11-.24.2-.33.14-.12-.29-.28-.7-.47-1.1s-.39-.79-.55-1.12c.01-.11.22-.21.32-.16l.28.38c.31.41.49.35,1.44-.08l.64-.3c.25-.12.25-.14.13-.41l-.7-1.53c-.53-1.15-.64-1.12-1.18-.95l-.48.16c-.11-.04-.19-.24-.12-.33.71-.3,1.2-.51,1.68-.74s.96-.46,1.46-.71c.11,0,.21.19.17.31l-.22.14c-.48.3-.56.38-.03,1.53l1.87,4.05c.53,1.15.65,1.14,1.19.98l.15-.04c.11.04.19.24.12.33ZM81.96,138.21c-.29.22-.54.43-.87.72-.31.28-.63.56-.94.88-.51-.51-1.15-.78-1.81-1.05l-2.8-1.23c-.21-.09-.9-.39-1.2-.49.09.39.21.84.38,1.44l.69,2.46c.24.85.42,1.63.79,2.36-.26.2-.53.42-.72.59-.38.33-.68.62-.92.86-.13.05-.3-.1-.26-.24l.26-.31c.34-.41.3-.64-.12-1.11-1.18-1.33-2.37-2.64-3.61-3.92-.56-.58-.71-.54-1.03-.34l-.3.19c-.12.04-.28-.15-.21-.28.4-.32.76-.62,1.12-.94.42-.37.8-.72,1.18-1.09.1-.03.29.11.25.24l-.2.26c-.3.38-.28.47.27,1.08l3.25,3.68.02-.02c-.19-.71-.31-1.09-.45-1.6l-.63-2.27c-.25-.9-.68-2.29-.9-2.86,0-.07.14-.19.23-.21.58.35,1.75.89,2.35,1.16l2.3,1.04c.5.23,1.29.59,1.64.76l.02-.02-1.3-1.6c-.47-.56-1.14-1.4-1.79-2.13-.52-.59-.65-.72-1.1-.45l-.34.21c-.11,0-.26-.17-.22-.27.35-.28.64-.51.97-.81.29-.25.58-.53.92-.86.12-.03.27.14.26.24l-.14.15c-.38.44-.34.63.08,1.24.44.62.91,1.25,1.69,2.22.5.64,1.11,1.44,1.6,1.98.37.42.67.48,1.07.24l.35-.22c.11.02.25.19.2.29ZM85.7,132.56c-1.36,2.41-3.8,2.67-5.7,1.6-2.06-1.16-2.7-3.6-1.51-5.71,1.33-2.36,3.76-2.78,5.62-1.73,2.13,1.2,2.83,3.64,1.59,5.83ZM89.21,123.9c-.15.67-.44,1.45-.7,1.97l-.14.31c-.27-.04-.97-.16-1.86-.24-.08-.1-.04-.32.06-.38.78-.04,1.87-.35,2.21-1.9.33-1.49-.4-3.22-2.8-3.74-2.5-.55-4.06.75-4.39,2.26-.32,1.48.52,2.34,1.21,2.83.08.13,0,.31-.12.34-.77-.25-1.47-.74-1.66-.95,0-.15,0-.3-.02-.43-.03-.28-.05-1.13.12-1.89.25-1.16.71-2.1,1.44-2.83.83-.81,2.05-1.29,3.59-.96,1.37.3,2.3,1.14,2.78,2.16.47,1.01.55,2.27.29,3.45ZM91.22,107.94c-.38.05-.94.19-1.19.29-.05,0-.1-.03-.1-.07v-.15c0-.14,0-.24-.02-.28h-.04c-.4.27-.7.41-1.13.41-1,0-1.67-.78-1.67-1.73,0-1.26.96-2.07,2.18-2.07.31,0,.5.04.6.08.04,0,.05-.05.05-.13v-1.36c0-.53,0-.58-.28-.75l-.09-.05s-.04-.15,0-.18c.23-.07.65-.21.97-.38.04,0,.07.02.09.05,0,.27-.03.72-.03,1.12v3.95c0,.71,0,1.04.26,1.04.1,0,.25-.04.39-.09.06.02.07.24,0,.29ZM90.11,96.13c-.33,0-.59-.06-.77-.12-.19-.06-.31-.12-.38-.12s-.14.07-.19.13c0,0-.02,0-.04,0-.04,0-.07-.02-.09-.05,0-.13.02-.3.02-.77v-4.29c0-.53,0-.58-.28-.75l-.09-.05s-.04-.15,0-.18c.21-.08.64-.2.98-.38.04,0,.07.02.09.05-.02.31-.04.72-.04,1.12v1.7c0,.15.04.19.09.19.23-.14.59-.3,1.04-.3,1.03,0,1.72.77,1.72,1.76,0,1.2-.86,2.03-2.07,2.03ZM93.41,108.04c-.27-.02-.53-.03-.85-.03s-.59,0-.85.03c-.06-.03-.08-.18-.02-.23l.19-.03c.33-.04.34-.14.34-.78v-1.58c0-.35,0-.4-.24-.56l-.08-.05s-.04-.14,0-.16c.21-.07.72-.31.93-.44.04,0,.08.02.09.05-.02.31-.04.75-.04,1.12v1.62c0,.65.02.74.34.78l.19.03c.06.05.04.2-.02.23ZM96.61,108.13c-.22,0-.43-.08-.58-.28-.04-.05-.09-.13-.14-.13-.06,0-.17.08-.35.18-.2.11-.4.23-.65.23s-.48-.07-.63-.21c-.17-.15-.28-.38-.28-.63,0-.35.17-.56.75-.77l1.07-.39c.13-.04.15-.13.15-.26v-.41c.02-.33-.09-.78-.65-.78-.25,0-.56.13-.58.4,0,.14-.02.25-.09.31-.13.11-.38.17-.51.17-.08,0-.13-.04-.13-.13,0-.47,1.02-1.11,1.67-1.11s.96.38.94,1.05l-.05,1.57c-.02.41.06.78.42.78.09,0,.17-.03.22-.05.04-.03.09-.06.12-.06.04,0,.06.05.06.12,0,.04-.31.4-.76.4ZM98.42,108.13c-.26,0-.5-.19-.5-.5s.22-.53.5-.53c.31,0,.5.24.5.53s-.2.5-.5.5ZM98.64,93.11c-.09,0-.14-.03-.2-.06-.14-.09-.27-.14-.4-.14-.14,0-.25.08-.32.18-.09.13-.12.39-.12.69v1.22c0,.65.02.76.36.78l.32.03c.06.05.04.2-.02.23-.42-.02-.68-.03-1-.03s-.59,0-.83.03c-.06-.03-.08-.18-.02-.23l.17-.03c.33-.05.34-.14.34-.78v-1.58c0-.35,0-.4-.24-.56l-.08-.05s-.04-.14,0-.16c.21-.07.68-.31.91-.44.04,0,.07.03.07.06v.52s0,.07.03.08c.32-.26.66-.54.99-.54.23,0,.41.14.41.36,0,.3-.24.41-.39.41Z"/>
        <path class="cls-1" d="M90.05,92.72c-.27,0-.49.06-.61.14-.09.06-.11.16-.11.51v1.4c0,.32.07.59.22.78.15.19.4.3.68.3.85,0,1.18-.72,1.18-1.49,0-.93-.48-1.65-1.37-1.65Z"/>
        <path class="cls-1" d="M84.29,105.43h.64c.67,0,.86-.04.94-.09.03-.02.05-.05.05-.17,0-.25-.17-.57-.69-.57s-.99.49-1,.78c0,.02,0,.04.06.04Z"/>
        <path class="cls-1" d="M93.58,93.43h.64c.67,0,.86-.04.94-.09.03-.02.05-.05.05-.17,0-.25-.17-.57-.69-.57s-.99.49-1,.78c0,.02,0,.04.06.04Z"/>
        <path class="cls-1" d="M89.95,57.43h.64c.67,0,.86-.04.94-.09.03-.02.05-.05.05-.17,0-.25-.17-.57-.69-.57s-.99.49-1,.78c0,.02,0,.04.06.04Z"/>
        <path class="cls-1" d="M38.1,140.64l-1.06-.77c-.27-.2-.32-.21-.42.08l-.44,1.46c-.2.64-.3.91-.3,1.01h.02c.09-.03.39-.24.88-.57l1.26-.82c.3-.21.28-.23.05-.39Z"/>
        <path class="cls-1" d="M61.53,105.34c0-.18-.04-.26-.1-.35-.13-.19-.4-.38-.76-.38-.82,0-1.24.71-1.24,1.49s.46,1.59,1.34,1.59c.24,0,.55-.11.69-.25.05-.05.06-.19.06-.33v-1.77Z"/>
        <path class="cls-1" d="M31.34,132.17c-.96.78-1,1.89-.16,2.93.33.41.4.38.59.23l1.34-1.09c.85-.69,1.12-1.06.46-1.87-.52-.64-1.4-.87-2.23-.2Z"/>
        <path class="cls-1" d="M31.66,110.04c.8,0,1.33-.45,1.33-.96,0-.55-.38-.78-1.03-.78h-.31c-.29,0-.65.02-.77.1-.22.13-.43.41-.43.76,0,.49.39.89,1.21.89Z"/>
        <path class="cls-1" d="M66.09,120.28c-.11,0-.25.08-.43.3-.24.29-.53.88-.53,1.2,0,.13.08.23.21.23s.29-.14.48-.4c.26-.36.47-.89.47-1.09,0-.15-.1-.25-.2-.25Z"/>
        <path class="cls-1" d="M28.63,135.1c-.82.67-.65,1.54-.19,2.12.38.47.42.48.79.18l1.69-1.37c.24-.2.23-.23-.07-.61-.71-.88-1.38-1-2.22-.32Z"/>
        <path class="cls-1" d="M52.62,120.42c-.15,0-.27.06-.49.3-.39.43-.76,1.22-.77,1.68,0,.08.03.14.08.14.11,0,.41-.25.71-.56.36-.36.67-.99.77-1.32-.06-.17-.17-.25-.31-.25Z"/>
        <path class="cls-1" d="M59.5,142.23c-1.35.23-2.27,1.42-1.87,3.8.3,1.79,1.45,3.73,3.33,3.41,1.18-.2,2.33-1.28,1.91-3.8-.27-1.63-1.35-3.74-3.37-3.4Z"/>
        <path class="cls-1" d="M73.85,23.27c.92.73,1.7.61,2.41-.29.58-.74.62-1.77-.2-2.42-.49-.39-.52-.36-.86.07l-1.54,1.96c-.24.3-.25.32.2.68Z"/>
        <path class="cls-1" d="M47.28,129.06c.14-.06.38-.3.62-.82-.44.39-.59.69-.62.82Z"/>
        <path class="cls-1" d="M54.83,128.38c.27-.11.55-.25.71-.36-.06-.03-.13-.06-.2-.1-.16.14-.34.3-.51.45Z"/>
        <path class="cls-1" d="M64.75,123.51c-.18.14-.29.29-.29.46,0,.33.43.53.89.53.36,0,.81-.14.81-.41,0-.15-.11-.31-.34-.46-.27-.18-.53-.31-.6-.31s-.32.09-.47.2Z"/>
        <path class="cls-1" d="M52.04,146.13c-1.17-.13-1.77.38-1.9,1.51-.11.94.41,1.83,1.44,1.95.62.07.64.04.7-.51l.29-2.48c.04-.38.05-.41-.53-.47Z"/>
      </g>
      <rect class="cls-2" width="448.06" height="163.73"/>
    </g>
  </g>
</svg>