<svg width="1380" height="173" viewBox="0 0 1380 173" fill="none" xmlns="http://www.w3.org/2000/svg">
<path d="M1239.99 165V1.67505L1362.19 129.75V8.25505H1379.58V172.05L1257.38 43.9751V165H1239.99Z" fill="#B3B3B3"/>
<path d="M1121.8 167.82C1110.52 167.82 1099.87 165.783 1089.84 161.71C1079.97 157.637 1071.35 151.997 1063.99 144.79C1056.63 137.583 1050.83 129.045 1046.6 119.175C1042.37 109.148 1040.25 98.3383 1040.25 86.7449C1040.25 74.9949 1042.37 64.1849 1046.6 54.3149C1050.83 44.4449 1056.63 35.9066 1063.99 28.6999C1071.51 21.4933 1080.2 15.8533 1090.07 11.7799C1099.94 7.70659 1110.52 5.66992 1121.8 5.66992C1133.08 5.66992 1143.65 7.70659 1153.52 11.7799C1163.39 15.8533 1172.01 21.4933 1179.37 28.6999C1186.89 35.9066 1192.77 44.4449 1197 54.3149C1201.23 64.1849 1203.34 74.9949 1203.34 86.7449C1203.34 98.3383 1201.23 109.148 1197 119.175C1192.77 129.045 1186.97 137.583 1179.61 144.79C1172.25 151.997 1163.55 157.637 1153.52 161.71C1143.65 165.783 1133.08 167.82 1121.8 167.82ZM1121.8 22.1199C1113.03 22.1199 1104.72 23.8433 1096.89 27.2899C1089.21 30.5799 1082.48 35.1233 1076.68 40.9199C1071.04 46.7166 1066.5 53.6099 1063.05 61.5999C1059.76 69.4333 1058.11 77.8149 1058.11 86.7449C1058.11 95.6749 1059.76 104.135 1063.05 112.125C1066.5 119.958 1071.04 126.773 1076.68 132.57C1082.48 138.367 1089.21 142.988 1096.89 146.435C1104.72 149.725 1113.03 151.37 1121.8 151.37C1130.57 151.37 1138.8 149.725 1146.47 146.435C1154.31 142.988 1161.12 138.367 1166.92 132.57C1172.72 126.773 1177.26 119.958 1180.55 112.125C1183.84 104.135 1185.48 95.6749 1185.48 86.7449C1185.48 77.8149 1183.84 69.4333 1180.55 61.5999C1177.26 53.6099 1172.72 46.7166 1166.92 40.9199C1161.12 35.1233 1154.31 30.5799 1146.47 27.2899C1138.8 23.8433 1130.57 22.1199 1121.8 22.1199Z" fill="#B3B3B3"/>
<path d="M1003.57 8.25488V165H986.182V8.25488H1003.57Z" fill="#B3B3B3"/>
<path d="M919.963 24.7049V165H902.573V24.7049H864.503V8.25488H958.033V24.7049H919.963Z" fill="#B3B3B3"/>
<path d="M827.573 120.82H760.833L742.033 165H722.763L794.908 0.734863L865.173 165H845.903L827.573 120.82ZM820.758 104.37L794.438 41.6249L767.648 104.37H820.758Z" fill="#B3B3B3"/>
<path d="M643.58 8.25488C646.243 8.25488 649.141 8.33322 652.275 8.48989C655.565 8.64656 658.855 9.03823 662.145 9.66489C665.591 10.1349 668.96 10.9966 672.25 12.2499C675.54 13.3466 678.673 14.9132 681.65 16.9499C686.193 20.0832 690.188 24.5482 693.635 30.3449C697.081 36.1416 698.805 43.2699 698.805 51.7299C698.805 57.6832 697.865 63.2449 695.985 68.4149C694.105 73.4282 691.441 77.8932 687.995 81.8099C684.548 85.5699 680.396 88.6249 675.54 90.9749C670.683 93.1682 665.278 94.4999 659.325 94.9699L709.145 165H687.995L640.29 96.3799H635.825V165H618.435V8.25488H643.58ZM635.825 80.8699H646.87C657.68 80.8699 666.14 78.4416 672.25 73.5849C678.36 68.5716 681.415 61.4432 681.415 52.1999C681.415 46.7166 680.475 42.2516 678.595 38.8049C676.715 35.2016 674.13 32.3816 670.84 30.3449C667.706 28.3082 664.025 26.8982 659.795 26.1149C655.565 25.1749 651.1 24.7049 646.4 24.7049H635.825V80.8699Z" fill="#B3B3B3"/>
<path d="M552.216 24.7049V165H534.826V24.7049H496.756V8.25488H590.286V24.7049H552.216Z" fill="#B3B3B3"/>
<path d="M467.243 39.2749C464.423 33.6349 460.82 29.4049 456.433 26.5849C452.203 23.6083 446.877 22.1199 440.453 22.1199C432.62 22.1199 426.275 24.3133 421.418 28.6999C416.562 33.0866 414.133 38.9616 414.133 46.3249C414.133 49.6149 414.76 52.5133 416.013 55.0199C417.423 57.3699 419.147 59.4849 421.183 61.3649C423.376 63.0883 425.805 64.6549 428.468 66.0649C431.132 67.3183 433.795 68.5716 436.458 69.8249L451.498 76.4049C456.512 78.5983 461.133 80.9483 465.363 83.4549C469.75 85.9616 473.51 88.9383 476.643 92.3849C479.933 95.6749 482.44 99.5133 484.163 103.9C486.043 108.287 486.983 113.535 486.983 119.645C486.983 126.852 485.73 133.432 483.223 139.385C480.717 145.338 477.191 150.43 472.648 154.66C468.261 158.89 463.013 162.18 456.903 164.53C450.95 166.723 444.448 167.82 437.398 167.82C424.081 167.82 413.35 164.217 405.203 157.01C397.057 149.803 391.573 139.933 388.753 127.4L405.673 122.7C406.927 131.317 410.295 138.288 415.778 143.615C421.418 148.785 428.703 151.37 437.633 151.37C442.96 151.37 447.582 150.508 451.498 148.785C455.572 147.062 458.862 144.79 461.368 141.97C464.032 138.993 465.99 135.625 467.243 131.865C468.496 128.105 469.123 124.267 469.123 120.35C469.123 116.747 468.496 113.457 467.243 110.48C466.146 107.503 464.188 104.683 461.368 102.02C459.175 99.8266 456.512 97.9466 453.378 96.3799C450.245 94.8133 446.642 93.0899 442.568 91.2099L428.468 84.6299C424.082 82.5933 419.93 80.4783 416.013 78.2849C412.253 75.9349 408.885 73.2716 405.908 70.2949C403.088 67.3183 400.817 63.8716 399.093 59.9549C397.527 56.0383 396.743 51.4166 396.743 46.0899C396.743 39.9799 397.84 34.4966 400.033 29.6399C402.227 24.6266 405.282 20.3966 409.198 16.9499C413.115 13.3466 417.737 10.6049 423.063 8.72493C428.547 6.68826 434.422 5.66992 440.688 5.66992C459.175 5.66992 472.648 13.8166 481.108 30.1099L467.243 39.2749Z" fill="#B3B3B3"/>
<path d="M257.979 104.37C257.979 107.66 258.058 111.028 258.214 114.475C258.371 117.765 258.841 121.055 259.624 124.345C260.408 127.635 261.583 130.847 263.149 133.98C264.873 136.957 267.301 139.777 270.434 142.44C273.568 145.103 277.563 147.297 282.419 149.02C287.276 150.587 291.898 151.37 296.284 151.37C300.671 151.37 305.293 150.587 310.149 149.02C315.006 147.297 319.001 145.103 322.134 142.44C325.268 139.777 327.618 136.957 329.184 133.98C330.908 130.847 332.161 127.635 332.944 124.345C333.728 121.055 334.198 117.765 334.354 114.475C334.511 111.028 334.589 107.66 334.589 104.37V8.25488H351.979V109.07C351.979 115.65 351.353 122.073 350.099 128.34C349.003 134.607 346.339 140.717 342.109 146.67C337.409 153.25 331.064 158.42 323.074 162.18C315.241 165.94 306.311 167.82 296.284 167.82C286.258 167.82 277.249 165.94 269.259 162.18C261.426 158.42 255.159 153.25 250.459 146.67C246.229 140.717 243.488 134.607 242.234 128.34C241.138 122.073 240.589 115.65 240.589 109.07V8.25488H257.979V104.37Z" fill="#B3B3B3"/>
<path d="M169.056 8.25488V148.55H212.296V165H151.666V8.25488H169.056Z" fill="#B3B3B3"/>
<path d="M80.1319 8.25488V148.55H123.372V165H62.7419V8.25488H80.1319Z" fill="#B3B3B3"/>
<path d="M17.6 8.25488V165H0.209961V8.25488H17.6Z" fill="#B3B3B3"/>
</svg>
